ply
format ascii 1.0
comment Created by Blender 2.78 (sub 0) - www.blender.org, source file: 'Bolt.blend'
element vertex 236
property float x
property float y
property float z
property float nx
property float ny
property float nz
property float s
property float t
element face 152
property list uchar uint vertex_indices
end_header
0.000000 0.177558 0.234859 0.500000 0.866025 0.000000 0.500000 0.684228
0.153770 0.088779 0.146080 0.500000 0.866025 0.000000 0.629904 0.609228
0.000000 0.177558 0.146080 0.500000 0.866025 0.000000 0.500000 0.609228
0.153770 0.088779 0.234859 1.000000 -0.000000 0.000000 0.575000 0.684228
0.153770 -0.088779 0.146080 1.000000 -0.000000 0.000000 0.425000 0.609228
0.153770 0.088779 0.146080 1.000000 -0.000000 0.000000 0.575000 0.609228
0.153770 -0.088779 0.234859 0.500000 -0.866025 0.000000 0.629904 0.684228
-0.000000 -0.177558 0.146080 0.500000 -0.866025 0.000000 0.500000 0.609228
0.153770 -0.088779 0.146080 0.500000 -0.866025 0.000000 0.629904 0.609228
-0.000000 -0.177558 0.234859 -0.500000 -0.866025 0.000000 0.500000 0.684228
-0.153770 -0.088779 0.146080 -0.500000 -0.866025 0.000000 0.370096 0.609228
-0.000000 -0.177558 0.146080 -0.500000 -0.866025 0.000000 0.500000 0.609228
-0.000000 -0.130777 0.234859 0.500000 0.866025 0.000000 0.500000 0.684228
-0.113256 -0.065388 0.209656 0.500000 0.866025 0.000000 0.404322 0.662936
-0.113256 -0.065388 0.234859 0.500000 0.866025 0.000000 0.404322 0.684228
-0.153770 -0.088779 0.234859 -1.000000 0.000000 0.000000 0.425000 0.684228
-0.153770 0.088779 0.146080 -1.000000 0.000000 0.000000 0.575000 0.609228
-0.153770 -0.088779 0.146080 -1.000000 0.000000 0.000000 0.425000 0.609228
-0.153770 0.088779 0.234859 -0.500000 0.866025 0.000000 0.370096 0.684228
0.000000 0.177558 0.146080 -0.500000 0.866025 0.000000 0.500000 0.609228
-0.153770 0.088779 0.146080 -0.500000 0.866025 0.000000 0.370096 0.609228
0.017267 -0.061265 0.146080 -0.000000 0.000000 -1.000000 0.514587 0.448244
0.078957 -0.045586 0.146080 -0.000000 0.000000 -1.000000 0.566702 0.461489
-0.000000 -0.091172 0.146080 -0.000000 0.000000 -1.000000 0.500000 0.422979
-0.017267 0.061265 0.146080 -0.500000 0.866025 -0.000000 0.485413 0.609228
-0.044424 0.045586 -0.198004 -0.500000 0.866025 -0.000000 0.462471 0.318547
-0.044424 0.045586 0.146080 -0.500000 0.866025 -0.000000 0.462471 0.609228
0.017267 -0.061265 0.146080 0.500000 -0.866025 -0.000000 0.514587 0.609228
0.044424 -0.045586 -0.198004 0.500000 -0.866025 -0.000000 0.537529 0.318547
0.044424 -0.045586 0.146080 0.500000 -0.866025 -0.000000 0.537529 0.609228
-0.044424 -0.045586 0.146080 -0.500000 -0.866025 -0.000000 0.462471 0.609228
-0.017267 -0.061265 -0.198004 -0.500000 -0.866025 -0.000000 0.485413 0.318547
-0.017267 -0.061265 0.146080 -0.500000 -0.866025 -0.000000 0.485413 0.609228
-0.061691 0.015679 0.146080 -1.000000 0.000000 0.000000 0.513246 0.609228
-0.061691 -0.015679 -0.198004 -1.000000 0.000000 0.000000 0.486754 0.318547
-0.061691 -0.015679 0.146080 -1.000000 0.000000 0.000000 0.486754 0.609228
-0.044424 -0.045586 -0.198004 -0.816199 -0.471233 -0.334303 0.461489 0.318547
-0.049603 -0.012607 -0.231845 -0.816199 -0.471233 -0.334303 0.489350 0.289959
-0.035720 -0.036654 -0.231845 -0.816199 -0.471233 -0.334303 0.469035 0.289959
0.044424 0.045586 0.146080 -0.000000 -0.000000 -1.000000 0.537529 0.538511
0.000000 0.091172 0.146080 -0.000000 -0.000000 -1.000000 0.500000 0.577021
0.078957 0.045586 0.146080 -0.000000 -0.000000 -1.000000 0.566702 0.538511
-0.017267 0.061265 0.146080 0.000000 -0.000000 -1.000000 0.485413 0.551756
-0.078957 0.045586 0.146080 0.000000 -0.000000 -1.000000 0.433297 0.538511
0.061690 -0.015679 0.146080 1.000000 0.000000 0.000000 0.486754 0.609228
0.061690 0.015679 -0.198004 1.000000 0.000000 0.000000 0.513246 0.318547
0.061690 0.015679 0.146080 1.000000 0.000000 0.000000 0.513246 0.609228
-0.044424 -0.045586 0.146080 0.000000 0.000000 -1.000000 0.462471 0.461489
-0.078957 -0.045586 0.146080 0.000000 0.000000 -1.000000 0.433298 0.461489
0.061690 -0.015679 0.146080 -0.000000 0.000000 -1.000000 0.552116 0.486754
-0.061691 0.015679 0.146080 0.000000 0.000000 -1.000000 0.447884 0.513246
0.017267 0.061265 0.146080 0.000000 -0.000000 -1.000000 0.514587 0.551756
0.061690 0.015679 0.146080 -0.000000 -0.000000 -1.000000 0.552116 0.513246
0.044424 -0.045586 0.146080 -0.000000 0.000000 -1.000000 0.537529 0.461489
-0.017267 -0.061265 0.146080 0.000000 0.000000 -1.000000 0.485413 0.448244
-0.061691 -0.015679 0.146080 0.000000 0.000000 -1.000000 0.447884 0.486754
-0.044424 0.045586 0.146080 0.000000 0.000000 -1.000000 0.462471 0.538511
-0.017267 -0.061265 0.146080 -0.000000 -1.000000 0.000000 0.485413 0.609228
0.017267 -0.061265 -0.198004 -0.000000 -1.000000 0.000000 0.514587 0.318547
0.017267 -0.061265 0.146080 -0.000000 -1.000000 0.000000 0.514587 0.609228
0.061690 -0.015679 0.146080 0.866025 -0.500000 0.000000 0.486754 0.609228
0.044424 -0.045586 -0.198004 0.866025 -0.500000 0.000000 0.461489 0.318547
0.061690 -0.015679 -0.198004 0.866025 -0.500000 0.000000 0.486754 0.318547
0.061690 0.015679 -0.198004 0.866025 0.500000 0.000000 0.513246 0.318547
0.044424 0.045586 0.146080 0.866025 0.500000 0.000000 0.538511 0.609228
0.061690 0.015679 0.146080 0.866025 0.500000 0.000000 0.513246 0.609228
-0.017267 0.061265 0.146080 0.000000 1.000000 -0.000000 0.485413 0.609228
0.017267 0.061265 -0.198004 0.000000 1.000000 -0.000000 0.514587 0.318547
-0.017267 0.061265 -0.198004 0.000000 1.000000 -0.000000 0.485413 0.318547
-0.061691 0.015679 0.146080 -0.866025 0.500000 0.000000 0.513246 0.609228
-0.044424 0.045586 -0.198004 -0.866025 0.500000 0.000000 0.538511 0.318547
-0.061691 0.015679 -0.198004 -0.866025 0.500000 0.000000 0.513246 0.318547
-0.061691 -0.015679 -0.198004 -0.866025 -0.500000 0.000000 0.486754 0.318547
-0.044424 -0.045586 0.146080 -0.866025 -0.500000 0.000000 0.461489 0.609228
-0.061691 -0.015679 0.146080 -0.866025 -0.500000 0.000000 0.486754 0.609228
0.044424 0.045586 0.146080 0.500000 0.866025 0.000000 0.537529 0.609228
0.017267 0.061265 -0.198004 0.500000 0.866025 0.000000 0.514587 0.318547
0.017267 0.061265 0.146080 0.500000 0.866025 0.000000 0.514587 0.609228
0.113256 0.065388 0.234859 -0.000000 -0.000000 1.000000 0.595678 0.555240
0.000000 0.177558 0.234859 -0.000000 -0.000000 1.000000 0.500000 0.650000
0.000000 0.130777 0.234859 -0.000000 -0.000000 1.000000 0.500000 0.610480
0.153770 -0.088779 0.234859 0.000000 0.000000 1.000000 0.629904 0.425000
0.153770 0.088779 0.234859 0.000000 0.000000 1.000000 0.629904 0.575000
-0.000000 -0.130777 0.234859 0.000000 0.000000 1.000000 0.500000 0.389520
0.113256 -0.065388 0.234859 0.000000 0.000000 1.000000 0.595678 0.444760
-0.153770 -0.088779 0.234859 -0.000000 -0.000000 1.000000 0.370096 0.425000
-0.000000 -0.177558 0.234859 -0.000000 -0.000000 1.000000 0.500000 0.350000
-0.113256 0.065388 0.234859 0.000000 -0.000000 1.000000 0.404322 0.555240
-0.113256 -0.065388 0.234859 0.000000 -0.000000 1.000000 0.404322 0.444760
-0.153770 0.088779 0.234859 0.000000 -0.000000 1.000000 0.370096 0.575000
0.036654 0.021162 0.209656 1.000000 -0.000000 0.000000 0.517877 0.662936
0.036654 -0.021162 0.222413 1.000000 -0.000000 0.000000 0.482123 0.673713
0.036654 -0.021162 0.209656 1.000000 -0.000000 0.000000 0.482123 0.662936
0.113256 0.065388 0.234859 -1.000000 0.000000 0.000000 0.555240 0.684228
0.113256 -0.065388 0.209656 -1.000000 0.000000 0.000000 0.444760 0.662936
0.113256 -0.065388 0.234859 -1.000000 0.000000 0.000000 0.444760 0.684228
-0.113256 -0.065388 0.234859 1.000000 0.000000 0.000000 0.444760 0.684228
-0.113256 0.065388 0.209656 1.000000 0.000000 0.000000 0.555240 0.662936
-0.113256 0.065388 0.234859 1.000000 0.000000 0.000000 0.555240 0.684228
0.113256 -0.065388 0.234859 -0.500000 0.866025 0.000000 0.595678 0.684228
-0.000000 -0.130777 0.209656 -0.500000 0.866025 0.000000 0.500000 0.662936
-0.000000 -0.130777 0.234859 -0.500000 0.866025 0.000000 0.500000 0.684228
0.000000 0.130777 0.234859 -0.500000 -0.866025 -0.000000 0.500000 0.684228
0.113256 0.065388 0.209656 -0.500000 -0.866025 -0.000000 0.595678 0.662936
0.113256 0.065388 0.234859 -0.500000 -0.866025 -0.000000 0.595678 0.684228
-0.113256 0.065388 0.234859 0.500000 -0.866025 -0.000000 0.404322 0.684228
0.000000 0.130777 0.209656 0.500000 -0.866025 -0.000000 0.500000 0.662936
0.000000 0.130777 0.234859 0.500000 -0.866025 -0.000000 0.500000 0.684228
0.000000 0.042324 0.209656 0.000000 0.000000 1.000000 0.500000 0.535755
0.113256 0.065388 0.209656 0.000000 0.000000 1.000000 0.595678 0.555240
0.000000 0.130777 0.209656 0.000000 0.000000 1.000000 0.500000 0.610480
0.036654 0.021162 0.209656 0.000000 0.000000 1.000000 0.530965 0.517877
0.113256 -0.065388 0.209656 0.000000 0.000000 1.000000 0.595678 0.444760
-0.000000 -0.042324 0.209656 0.000000 0.000000 1.000000 0.500000 0.464245
0.036654 -0.021162 0.209656 0.000000 0.000000 1.000000 0.530965 0.482123
-0.113256 -0.065388 0.209656 0.000000 -0.000000 1.000000 0.404322 0.444760
-0.000000 -0.130777 0.209656 0.000000 -0.000000 1.000000 0.500000 0.389520
-0.036654 0.021162 0.209656 0.000000 -0.000000 1.000000 0.469035 0.517877
-0.036654 -0.021162 0.209656 0.000000 -0.000000 1.000000 0.469035 0.482123
-0.113256 0.065388 0.209656 -0.000000 0.000000 1.000000 0.404322 0.555240
0.000000 0.042324 0.222413 0.000000 -0.000000 1.000000 0.500000 0.535755
-0.036654 -0.021162 0.222413 0.000000 -0.000000 1.000000 0.469035 0.482123
0.036654 -0.021162 0.222413 0.000000 -0.000000 1.000000 0.530965 0.482123
-0.036654 -0.021162 0.209656 -1.000000 -0.000000 0.000000 0.482123 0.662936
-0.036654 0.021162 0.222413 -1.000000 -0.000000 0.000000 0.517877 0.673713
-0.036654 0.021162 0.209656 -1.000000 -0.000000 0.000000 0.517877 0.662936
0.036654 -0.021162 0.209656 0.500000 -0.866026 0.000000 0.530965 0.662936
-0.000000 -0.042324 0.222413 0.500000 -0.866026 0.000000 0.500000 0.673713
-0.000000 -0.042324 0.209656 0.500000 -0.866026 0.000000 0.500000 0.662936
0.000000 0.042324 0.209656 0.500000 0.866025 -0.000000 0.500000 0.662936
0.036654 0.021162 0.222413 0.500000 0.866025 -0.000000 0.530965 0.673713
0.036654 0.021162 0.209656 0.500000 0.866025 -0.000000 0.530965 0.662936
-0.036654 0.021162 0.209656 -0.500000 0.866025 0.000000 0.469035 0.662936
0.000000 0.042324 0.222413 -0.500000 0.866025 0.000000 0.500000 0.673713
0.000000 0.042324 0.209656 -0.500000 0.866025 0.000000 0.500000 0.662936
-0.000000 -0.042324 0.209656 -0.500000 -0.866025 0.000000 0.500000 0.662936
-0.036654 -0.021162 0.222413 -0.500000 -0.866025 0.000000 0.469035 0.673713
-0.036654 -0.021162 0.209656 -0.500000 -0.866025 0.000000 0.469035 0.662936
0.049603 0.012607 -0.231845 0.000000 -0.000000 -1.000000 0.541905 0.510650
-0.049603 -0.012607 -0.231845 0.000000 -0.000000 -1.000000 0.458095 0.489350
-0.035720 0.036654 -0.231845 0.000000 -0.000000 -1.000000 0.469824 0.530965
0.061690 -0.015679 -0.198004 0.816199 -0.471233 -0.334303 0.486754 0.318547
0.035720 -0.036654 -0.231845 0.816199 -0.471233 -0.334303 0.469035 0.289959
0.049603 -0.012607 -0.231845 0.816199 -0.471233 -0.334303 0.489350 0.289959
0.061690 0.015679 -0.198004 0.816199 0.471233 -0.334303 0.513246 0.318547
0.035720 0.036654 -0.231845 0.816199 0.471233 -0.334303 0.530965 0.289959
0.044424 0.045586 -0.198004 0.816199 0.471233 -0.334303 0.538511 0.318547
-0.017267 0.061265 -0.198004 -0.470866 0.815565 -0.336362 0.485413 0.318547
-0.035720 0.036654 -0.231845 -0.470866 0.815565 -0.336362 0.469824 0.289959
-0.044424 0.045586 -0.198004 -0.470866 0.815565 -0.336362 0.462471 0.318547
-0.061691 0.015679 -0.198004 -0.941733 0.000000 -0.336362 0.513246 0.318547
-0.049603 -0.012607 -0.231845 -0.941733 0.000000 -0.336362 0.489350 0.289959
-0.061691 -0.015679 -0.198004 -0.941733 0.000000 -0.336362 0.486754 0.318547
0.017267 -0.061265 -0.198004 -0.000000 -0.942466 -0.334303 0.514587 0.318547
-0.013884 -0.049261 -0.231845 -0.000000 -0.942466 -0.334303 0.488271 0.289959
0.013884 -0.049261 -0.231845 -0.000000 -0.942466 -0.334303 0.511729 0.289959
-0.017267 -0.061265 -0.198004 -0.470867 -0.815564 -0.336362 0.485413 0.318547
-0.035720 -0.036654 -0.231845 -0.470867 -0.815564 -0.336362 0.469824 0.289959
-0.013884 -0.049261 -0.231845 -0.470867 -0.815564 -0.336362 0.488271 0.289959
0.044424 -0.045586 -0.198004 0.470866 -0.815564 -0.336362 0.537529 0.318547
0.013884 -0.049261 -0.231845 0.470866 -0.815564 -0.336362 0.511729 0.289959
0.035720 -0.036654 -0.231845 0.470866 -0.815564 -0.336362 0.530176 0.289959
-0.044424 0.045586 -0.198004 -0.816199 0.471233 -0.334303 0.538511 0.318547
-0.049603 0.012607 -0.231845 -0.816199 0.471233 -0.334303 0.510650 0.289959
-0.061691 0.015679 -0.198004 -0.816199 0.471233 -0.334303 0.513246 0.318547
0.044424 0.045586 -0.198004 0.470866 0.815564 -0.336362 0.537529 0.318547
0.013884 0.049261 -0.231845 0.470866 0.815564 -0.336362 0.511729 0.289959
0.017267 0.061265 -0.198004 0.470866 0.815564 -0.336362 0.514587 0.318547
0.017267 0.061265 -0.198004 0.000000 0.942466 -0.334303 0.514587 0.318547
-0.013884 0.049261 -0.231845 0.000000 0.942466 -0.334303 0.488271 0.289959
-0.017267 0.061265 -0.198004 0.000000 0.942466 -0.334303 0.485413 0.318547
0.061690 -0.015679 -0.198004 0.941733 0.000000 -0.336362 0.486754 0.318547
0.049603 0.012607 -0.231845 0.941733 0.000000 -0.336362 0.510650 0.289959
0.061690 0.015679 -0.198004 0.941733 0.000000 -0.336362 0.513246 0.318547
0.153770 0.088779 0.234859 0.500000 0.866025 -0.000000 0.629904 0.684228
0.153770 -0.088779 0.234859 1.000000 -0.000000 0.000000 0.425000 0.684228
-0.000000 -0.177558 0.234859 0.500000 -0.866025 0.000000 0.500000 0.684228
-0.153770 -0.088779 0.234859 -0.500000 -0.866025 0.000000 0.370096 0.684228
-0.000000 -0.130777 0.209656 0.500000 0.866025 -0.000000 0.500000 0.662936
-0.153770 0.088779 0.234859 -1.000000 0.000000 0.000000 0.575000 0.684228
0.000000 0.177558 0.234859 -0.500000 0.866025 0.000000 0.500000 0.684228
-0.000000 -0.177558 0.146080 0.000000 0.000000 -1.000000 0.500000 0.350000
0.153770 -0.088779 0.146080 0.000000 0.000000 -1.000000 0.629904 0.425000
-0.017267 0.061265 -0.198004 -0.500000 0.866025 0.000000 0.485413 0.318547
0.017267 -0.061265 -0.198004 0.500000 -0.866025 -0.000000 0.514587 0.318547
-0.044424 -0.045586 -0.198004 -0.500000 -0.866025 0.000000 0.462471 0.318547
-0.061691 0.015679 -0.198004 -1.000000 0.000000 0.000000 0.513246 0.318547
-0.061691 -0.015679 -0.198004 -0.816199 -0.471233 -0.334303 0.486754 0.318547
0.153770 0.088779 0.146080 0.000000 0.000000 -1.000000 0.629904 0.575000
0.000000 0.177558 0.146080 -0.000000 -0.000000 -1.000000 0.500000 0.650000
-0.153770 0.088779 0.146080 0.000000 -0.000000 -1.000000 0.370096 0.575000
0.061690 -0.015679 -0.198004 1.000000 0.000000 -0.000000 0.486754 0.318547
-0.153770 -0.088779 0.146080 -0.000000 0.000000 -1.000000 0.370096 0.425000
-0.017267 -0.061265 -0.198004 -0.000000 -1.000000 0.000000 0.485413 0.318547
0.044424 -0.045586 0.146080 0.866025 -0.500000 -0.000000 0.461489 0.609228
0.044424 0.045586 -0.198004 0.866025 0.500000 0.000000 0.538511 0.318547
0.017267 0.061265 0.146080 0.000000 1.000000 0.000000 0.514587 0.609228
-0.044424 0.045586 0.146080 -0.866025 0.500000 -0.000000 0.538511 0.609228
-0.044424 -0.045586 -0.198004 -0.866025 -0.500000 -0.000000 0.461489 0.318547
0.044424 0.045586 -0.198004 0.500000 0.866025 -0.000000 0.537529 0.318547
0.036654 0.021162 0.222413 1.000000 -0.000000 0.000000 0.517877 0.673713
0.113256 0.065388 0.209656 -1.000000 0.000000 0.000000 0.555240 0.662936
-0.113256 -0.065388 0.209656 1.000000 0.000000 -0.000000 0.444760 0.662936
0.113256 -0.065388 0.209656 -0.500000 0.866025 0.000000 0.595678 0.662936
0.000000 0.130777 0.209656 -0.500000 -0.866025 0.000000 0.500000 0.662936
-0.113256 0.065388 0.209656 0.500000 -0.866025 0.000000 0.404322 0.662936
0.036654 0.021162 0.222413 0.000000 0.000000 1.000000 0.530965 0.517877
-0.036654 0.021162 0.222413 0.000000 0.000000 1.000000 0.469035 0.517877
-0.000000 -0.042324 0.222413 0.000000 0.000000 1.000000 0.500000 0.464245
-0.036654 -0.021162 0.222413 -1.000000 -0.000000 -0.000000 0.482123 0.673713
0.036654 -0.021162 0.222413 0.500000 -0.866026 0.000000 0.530965 0.673713
0.000000 0.042324 0.222413 0.500000 0.866025 0.000000 0.500000 0.673713
-0.036654 0.021162 0.222413 -0.500000 0.866025 0.000000 0.469035 0.673713
-0.000000 -0.042324 0.222413 -0.500000 -0.866025 -0.000000 0.500000 0.673713
-0.013884 0.049261 -0.231845 -0.000000 0.000000 -1.000000 0.488271 0.541616
0.013884 0.049261 -0.231845 -0.000000 0.000000 -1.000000 0.511729 0.541616
0.035720 0.036654 -0.231845 0.000000 0.000000 -1.000000 0.530176 0.530965
0.049603 -0.012607 -0.231845 0.000000 0.000000 -1.000000 0.541905 0.489350
-0.013884 -0.049261 -0.231845 0.000000 0.000000 -1.000000 0.488271 0.458384
0.035720 -0.036654 -0.231845 0.000000 0.000000 -1.000000 0.530176 0.469035
0.013884 -0.049261 -0.231845 0.000000 0.000000 -1.000000 0.511729 0.458384
-0.035720 -0.036654 -0.231845 0.000000 0.000000 -1.000000 0.469824 0.469035
-0.049603 0.012607 -0.231845 0.000000 -0.000000 -1.000000 0.458095 0.510650
0.044424 -0.045586 -0.198004 0.816199 -0.471233 -0.334303 0.461489 0.318547
0.049603 0.012607 -0.231845 0.816199 0.471233 -0.334303 0.510650 0.289959
-0.013884 0.049261 -0.231845 -0.470866 0.815565 -0.336362 0.488271 0.289959
-0.049603 0.012607 -0.231845 -0.941733 0.000000 -0.336362 0.510650 0.289959
-0.017267 -0.061265 -0.198004 -0.000000 -0.942466 -0.334303 0.485413 0.318547
-0.044424 -0.045586 -0.198004 -0.470867 -0.815564 -0.336362 0.462471 0.318547
0.044424 -0.045586 -0.198004 0.470866 -0.815565 -0.336362 0.537529 0.318547
0.017267 -0.061265 -0.198004 0.470866 -0.815565 -0.336362 0.514587 0.318547
0.013884 -0.049261 -0.231845 0.470866 -0.815565 -0.336362 0.511729 0.289959
-0.035720 0.036654 -0.231845 -0.816199 0.471233 -0.334303 0.530965 0.289959
0.035720 0.036654 -0.231845 0.470866 0.815564 -0.336362 0.530176 0.289959
0.013884 0.049261 -0.231845 0.000000 0.942466 -0.334303 0.511729 0.289959
0.049603 -0.012607 -0.231845 0.941733 0.000000 -0.336362 0.489350 0.289959
3 0 1 2
3 3 4 5
3 6 7 8
3 9 10 11
3 12 13 14
3 15 16 17
3 18 19 20
3 21 22 23
3 24 25 26
3 27 28 29
3 30 31 32
3 33 34 35
3 36 37 38
3 39 40 41
3 42 43 40
3 44 45 46
3 47 23 48
3 49 41 22
3 50 48 43
3 51 42 40
3 52 39 41
3 53 49 22
3 54 21 23
3 55 47 48
3 56 50 43
3 57 58 59
3 60 61 62
3 63 64 65
3 66 67 68
3 69 70 71
3 72 73 74
3 75 76 77
3 78 79 80
3 78 81 82
3 83 81 84
3 83 85 86
3 87 85 88
3 80 89 87
3 90 91 92
3 93 94 95
3 96 97 98
3 99 100 101
3 102 103 104
3 105 106 107
3 108 109 110
3 111 112 109
3 113 112 114
3 113 115 116
3 117 115 118
3 117 110 119
3 120 121 122
3 123 124 125
3 126 127 128
3 129 130 131
3 132 133 134
3 135 136 137
3 138 139 140
3 141 142 143
3 144 145 146
3 147 148 149
3 150 151 152
3 153 154 155
3 156 157 158
3 159 160 161
3 162 163 164
3 165 166 167
3 168 169 170
3 171 172 173
3 0 174 1
3 3 175 4
3 6 176 7
3 9 177 10
3 12 178 13
3 15 179 16
3 18 180 19
3 181 23 22
3 21 53 22
3 22 182 181
3 24 183 25
3 27 184 28
3 30 185 31
3 33 186 34
3 36 187 37
3 188 41 40
3 39 51 40
3 40 189 188
3 189 40 43
3 42 56 43
3 43 190 189
3 44 191 45
3 192 48 23
3 47 54 23
3 23 181 192
3 182 22 41
3 49 52 41
3 41 188 182
3 190 43 48
3 50 55 48
3 48 192 190
3 57 193 58
3 60 194 61
3 63 195 64
3 66 196 67
3 69 197 70
3 72 198 73
3 75 199 76
3 78 82 79
3 78 84 81
3 83 86 81
3 83 88 85
3 87 89 85
3 80 79 89
3 90 200 91
3 93 201 94
3 96 202 97
3 99 203 100
3 102 204 103
3 105 205 106
3 108 111 109
3 111 114 112
3 113 116 112
3 113 118 115
3 117 119 115
3 117 108 110
3 122 206 120
3 120 207 121
3 121 208 122
3 123 209 124
3 126 210 127
3 129 211 130
3 132 212 133
3 135 213 136
3 140 214 215
3 215 216 138
3 138 217 218
3 219 220 218
3 218 221 139
3 139 222 140
3 140 215 138
3 217 219 218
3 218 139 138
3 141 223 142
3 144 224 145
3 147 225 148
3 150 226 151
3 153 227 154
3 156 228 157
3 229 230 231
3 162 232 163
3 165 233 166
3 168 234 169
3 171 235 172
