ply
format ascii 1.0
comment Created by Blender 2.78 (sub 0) - www.blender.org, source file: 'Bucket.blend'
element vertex 448
property float x
property float y
property float z
property float nx
property float ny
property float nz
property float s
property float t
element face 252
property list uchar uint vertex_indices
end_header
-0.000000 0.244886 0.200000 0.097412 0.989037 -0.110985 0.729001 -0.245199
0.039018 0.196157 -0.200000 0.097412 0.989037 -0.110985 0.770675 0.261995
0.000000 0.200000 -0.200000 0.097412 0.989037 -0.110985 0.731520 0.262328
0.047775 0.240181 0.200000 0.288491 0.951028 -0.110985 0.767841 -0.245530
0.076537 0.184776 -0.200000 0.288491 0.951028 -0.110985 0.809829 0.261623
0.039018 0.196157 -0.200000 0.288491 0.951028 -0.110985 0.770675 0.261995
0.093714 0.226245 0.200000 0.468485 0.876473 -0.110985 0.806681 -0.245899
0.111114 0.166294 -0.200000 0.468485 0.876473 -0.110985 0.848984 0.261211
0.076537 0.184776 -0.200000 0.468485 0.876473 -0.110985 0.809829 0.261623
0.136051 0.203615 0.200000 0.630474 0.768235 -0.110985 0.845521 -0.246307
0.141421 0.141421 -0.200000 0.630474 0.768235 -0.110985 0.888138 0.260760
0.111114 0.166294 -0.200000 0.630474 0.768235 -0.110985 0.848984 0.261211
0.173161 0.173161 0.200000 0.768235 0.630474 -0.110985 0.884360 -0.246754
0.166294 0.111114 -0.200000 0.768235 0.630474 -0.110985 0.927292 0.260270
0.141421 0.141421 -0.200000 0.768235 0.630474 -0.110985 0.888138 0.260760
0.203615 0.136051 0.200000 0.876473 0.468484 -0.110985 0.923199 -0.247241
0.184776 0.076537 -0.200000 0.876473 0.468484 -0.110985 0.966446 0.259741
0.166294 0.111114 -0.200000 0.876473 0.468484 -0.110985 0.927292 0.260270
0.226245 0.093714 0.200000 0.951028 0.288491 -0.110985 0.962037 -0.247766
0.196157 0.039018 -0.200000 0.951028 0.288491 -0.110985 1.005599 0.259172
0.184776 0.076537 -0.200000 0.951028 0.288491 -0.110985 0.966446 0.259741
0.240181 0.047775 0.200000 0.989037 0.097412 -0.110985 1.000876 -0.248329
0.200000 0.000000 -0.200000 0.989037 0.097412 -0.110985 1.044752 0.258564
0.196157 0.039018 -0.200000 0.989037 0.097412 -0.110985 1.005599 0.259172
0.244886 0.000000 0.200000 0.989037 -0.097411 -0.110985 -0.203163 -0.248937
0.196157 -0.039018 -0.200000 0.989037 -0.097411 -0.110985 -0.169049 0.259170
0.200000 0.000000 -0.200000 0.989037 -0.097411 -0.110985 -0.208202 0.258562
0.240181 -0.047775 0.200000 0.951028 -0.288491 -0.110985 -0.164325 -0.248334
0.184776 -0.076537 -0.200000 0.951028 -0.288491 -0.110985 -0.129896 0.259738
0.196157 -0.039018 -0.200000 0.951028 -0.288491 -0.110985 -0.169049 0.259170
0.226245 -0.093714 0.200000 0.876473 -0.468484 -0.110985 -0.125486 -0.247770
0.166294 -0.111114 -0.200000 0.876473 -0.468484 -0.110985 -0.090742 0.260268
0.184776 -0.076537 -0.200000 0.876473 -0.468484 -0.110985 -0.129896 0.259738
0.203615 -0.136052 0.200000 0.768235 -0.630474 -0.110985 -0.086647 -0.247245
0.141421 -0.141421 -0.200000 0.768235 -0.630474 -0.110985 -0.051588 0.260758
0.166294 -0.111114 -0.200000 0.768235 -0.630474 -0.110985 -0.090742 0.260268
0.173161 -0.173161 0.200000 0.630474 -0.768235 -0.110985 -0.047808 -0.246758
0.111114 -0.166294 -0.200000 0.630474 -0.768235 -0.110985 -0.012434 0.261209
0.141421 -0.141421 -0.200000 0.630474 -0.768235 -0.110985 -0.051588 0.260758
0.136051 -0.203615 0.200000 0.468485 -0.876473 -0.110985 -0.008969 -0.246311
0.076537 -0.184776 -0.200000 0.468485 -0.876473 -0.110985 0.026721 0.261621
0.111114 -0.166294 -0.200000 0.468485 -0.876473 -0.110985 -0.012434 0.261209
0.093714 -0.226245 0.200000 0.288491 -0.951029 -0.110985 0.029871 -0.245902
0.039018 -0.196157 -0.200000 0.288491 -0.951029 -0.110985 0.065876 0.261994
0.076537 -0.184776 -0.200000 0.288491 -0.951029 -0.110985 0.026721 0.261621
0.047775 -0.240181 0.200000 0.097411 -0.989037 -0.110985 0.068711 -0.245533
-0.000000 -0.200000 -0.200000 0.097411 -0.989037 -0.110985 0.105031 0.262327
0.039018 -0.196157 -0.200000 0.097411 -0.989037 -0.110985 0.065876 0.261994
-0.000000 -0.244886 0.200000 -0.097412 -0.989037 -0.110985 0.107551 -0.245202
-0.039018 -0.196157 -0.200000 -0.097412 -0.989037 -0.110985 0.144186 0.262621
-0.000000 -0.200000 -0.200000 -0.097412 -0.989037 -0.110985 0.105031 0.262327
-0.047775 -0.240181 0.200000 -0.288492 -0.951028 -0.110985 0.146391 -0.244910
-0.076537 -0.184776 -0.200000 -0.288492 -0.951028 -0.110985 0.183341 0.262876
-0.039018 -0.196157 -0.200000 -0.288492 -0.951028 -0.110985 0.144186 0.262621
-0.093714 -0.226245 0.200000 -0.468485 -0.876473 -0.110985 0.185232 -0.244657
-0.111114 -0.166294 -0.200000 -0.468485 -0.876473 -0.110985 0.222497 0.263092
-0.076537 -0.184776 -0.200000 -0.468485 -0.876473 -0.110985 0.183341 0.262876
-0.136052 -0.203615 0.200000 -0.630474 -0.768234 -0.110985 0.224072 -0.244443
-0.141421 -0.141421 -0.200000 -0.630474 -0.768234 -0.110985 0.261652 0.263268
-0.111114 -0.166294 -0.200000 -0.630474 -0.768234 -0.110985 0.222497 0.263092
-0.173161 -0.173161 0.200000 -0.768235 -0.630474 -0.110985 0.262913 -0.244268
-0.166294 -0.111114 -0.200000 -0.768235 -0.630474 -0.110985 0.300808 0.263406
-0.141421 -0.141421 -0.200000 -0.768235 -0.630474 -0.110985 0.261652 0.263268
-0.203616 -0.136051 0.200000 -0.876473 -0.468484 -0.110985 0.301754 -0.244131
-0.184776 -0.076537 -0.200000 -0.876473 -0.468484 -0.110985 0.339964 0.263504
-0.166294 -0.111114 -0.200000 -0.876473 -0.468484 -0.110985 0.300808 0.263406
-0.226245 -0.093714 0.200000 -0.951029 -0.288490 -0.110985 0.340595 -0.244034
-0.196157 -0.039018 -0.200000 -0.951029 -0.288490 -0.110985 0.379120 0.263563
-0.184776 -0.076537 -0.200000 -0.951029 -0.288490 -0.110985 0.339964 0.263504
-0.240181 -0.047775 0.200000 -0.989037 -0.097411 -0.110985 0.379436 -0.243975
-0.200000 0.000000 -0.200000 -0.989037 -0.097411 -0.110985 0.418275 0.263582
-0.196157 -0.039018 -0.200000 -0.989037 -0.097411 -0.110985 0.379120 0.263563
-0.244886 0.000000 0.200000 -0.989037 0.097412 -0.110985 0.418277 -0.243956
-0.196157 0.039018 -0.200000 -0.989037 0.097412 -0.110985 0.457431 0.263563
-0.200000 0.000000 -0.200000 -0.989037 0.097412 -0.110985 0.418275 0.263582
-0.240181 0.047775 0.200000 -0.951028 0.288493 -0.110985 0.457117 -0.243975
-0.184776 0.076537 -0.200000 -0.951028 0.288493 -0.110985 0.496587 0.263504
-0.196157 0.039018 -0.200000 -0.951028 0.288493 -0.110985 0.457431 0.263563
-0.226245 0.093714 0.200000 -0.876473 0.468485 -0.110985 0.495958 -0.244033
-0.166294 0.111114 -0.200000 -0.876473 0.468485 -0.110985 0.535743 0.263406
-0.184776 0.076537 -0.200000 -0.876473 0.468485 -0.110985 0.496587 0.263504
-0.203615 0.136052 0.200000 -0.768234 0.630475 -0.110985 0.534799 -0.244130
-0.141421 0.141422 -0.200000 -0.768234 0.630475 -0.110985 0.574898 0.263269
-0.166294 0.111114 -0.200000 -0.768234 0.630475 -0.110985 0.535743 0.263406
-0.173160 0.173161 0.200000 -0.630473 0.768236 -0.110985 0.573640 -0.244266
-0.111114 0.166294 -0.200000 -0.630473 0.768236 -0.110985 0.614054 0.263093
-0.141421 0.141422 -0.200000 -0.630473 0.768236 -0.110985 0.574898 0.263269
-0.136051 0.203616 0.200000 -0.468483 0.876474 -0.110985 0.612481 -0.244441
-0.076536 0.184776 -0.200000 -0.468483 0.876474 -0.110985 0.653210 0.262877
-0.111114 0.166294 -0.200000 -0.468483 0.876474 -0.110985 0.614054 0.263093
-0.000000 -0.222296 0.200000 0.097365 0.988562 0.115171 0.073850 0.742229
-0.034860 -0.175253 -0.174321 0.097365 0.988562 0.115171 0.111030 0.267528
-0.043368 -0.218025 0.200000 0.097365 0.988562 0.115171 0.109107 0.742476
-0.093714 0.226245 0.200000 -0.288490 0.951029 -0.110985 0.651321 -0.244655
-0.039018 0.196157 -0.200000 -0.288490 0.951029 -0.110985 0.692365 0.262622
-0.076536 0.184776 -0.200000 -0.288490 0.951029 -0.110985 0.653210 0.262877
-0.047775 0.240181 0.200000 -0.097411 0.989037 -0.110985 0.690162 -0.244908
0.000000 0.200000 -0.200000 -0.097411 0.989037 -0.110985 0.731520 0.262328
-0.039018 0.196157 -0.200000 -0.097411 0.989037 -0.110985 0.692365 0.262622
0.039018 -0.196157 -0.200000 0.000000 -0.000000 -1.000000 -0.034092 1.239232
-0.196157 -0.039018 -0.200000 0.000000 -0.000000 -1.000000 -0.348097 1.070057
0.196157 0.039018 -0.200000 0.000000 -0.000000 -1.000000 0.133747 0.922729
0.043368 0.218025 0.200000 -0.000000 0.000000 1.000000 0.414840 1.221760
-0.000000 0.244886 0.200000 -0.000000 0.000000 1.000000 0.368142 1.244869
-0.000000 0.222296 0.200000 -0.000000 0.000000 1.000000 0.370400 1.221760
0.085069 0.205375 0.200000 -0.000000 0.000000 1.000000 0.458426 1.213021
0.047775 0.240181 0.200000 -0.000000 0.000000 1.000000 0.417098 1.244869
0.136051 0.203615 0.200000 0.000000 0.000000 1.000000 0.510344 1.216358
0.093714 0.226245 0.200000 0.000000 0.000000 1.000000 0.465114 1.235242
0.157187 0.157187 0.200000 -0.000000 0.000000 1.000000 0.536435 1.170993
0.123501 0.184832 0.200000 -0.000000 0.000000 1.000000 0.499484 1.195879
0.184832 0.123501 0.200000 -0.000000 0.000000 1.000000 0.567859 1.139319
0.173161 0.173161 0.200000 -0.000000 0.000000 1.000000 0.551049 1.188943
0.205375 0.085069 0.200000 -0.000000 0.000000 1.000000 0.592549 1.102074
0.203615 0.136051 0.200000 -0.000000 0.000000 1.000000 0.585667 1.154050
0.240181 0.047775 0.200000 0.000000 0.000000 1.000000 0.631601 1.067430
0.226245 0.093714 0.200000 0.000000 0.000000 1.000000 0.612866 1.113020
0.222296 -0.000000 0.200000 -0.000000 0.000000 1.000000 0.618225 1.016756
0.218025 0.043368 0.200000 -0.000000 0.000000 1.000000 0.609555 1.060690
0.222296 -0.000000 0.200000 0.000000 0.000000 1.000000 0.618224 1.016755
0.240181 -0.047775 0.200000 0.000000 0.000000 1.000000 0.641151 0.969685
0.244886 0.000000 0.200000 0.000000 0.000000 1.000000 0.641151 1.019031
0.218025 -0.043368 0.200000 0.000000 0.000000 1.000000 0.618224 0.971961
0.226245 -0.093714 0.200000 0.000000 0.000000 1.000000 0.631600 0.921288
0.184832 -0.123501 0.200000 0.000000 0.000000 1.000000 0.592548 0.886644
0.205375 -0.085069 0.200000 0.000000 0.000000 1.000000 0.609555 0.928028
0.173161 -0.173161 0.200000 0.000000 -0.000000 1.000000 0.585666 0.834668
0.203615 -0.136052 0.200000 0.000000 -0.000000 1.000000 0.612865 0.875698
0.123501 -0.184832 0.200000 0.000000 0.000000 1.000000 0.536434 0.817725
0.157187 -0.157187 0.200000 0.000000 0.000000 1.000000 0.567858 0.849399
0.085069 -0.205375 0.200000 0.000000 0.000000 1.000000 0.499484 0.792839
0.136051 -0.203615 0.200000 0.000000 0.000000 1.000000 0.551049 0.799775
0.047775 -0.240181 0.200000 0.000000 -0.000000 1.000000 0.465113 0.753476
0.093714 -0.226245 0.200000 0.000000 -0.000000 1.000000 0.510343 0.772360
0.043368 -0.218025 0.200000 0.000000 -0.000000 1.000000 0.458426 0.775697
-0.000000 -0.244886 0.200000 0.000000 -0.000000 1.000000 0.417098 0.743849
-0.043368 -0.218025 0.200000 0.000000 0.000000 1.000000 0.370399 0.766958
-0.000000 -0.222296 0.200000 0.000000 0.000000 1.000000 0.414840 0.766958
-0.085069 -0.205375 0.200000 0.000000 0.000000 1.000000 0.326813 0.775697
-0.047775 -0.240181 0.200000 0.000000 0.000000 1.000000 0.368141 0.743849
-0.136052 -0.203615 0.200000 -0.000000 -0.000000 1.000000 0.274896 0.772360
-0.093714 -0.226245 0.200000 -0.000000 -0.000000 1.000000 0.320126 0.753476
-0.123501 -0.184832 0.200000 -0.000000 -0.000000 1.000000 0.285756 0.792839
-0.173161 -0.173161 0.200000 -0.000000 -0.000000 1.000000 0.234190 0.799775
-0.157187 -0.157187 0.200000 -0.000000 -0.000000 1.000000 0.248805 0.817725
-0.203616 -0.136051 0.200000 -0.000000 -0.000000 1.000000 0.199573 0.834668
-0.205375 -0.085069 0.200000 0.000000 0.000000 1.000000 0.192691 0.886644
-0.184833 -0.123501 0.200000 0.000000 0.000000 1.000000 0.217381 0.849399
-0.218025 -0.043368 0.200000 0.000000 -0.000000 1.000000 0.175685 0.928028
-0.226245 -0.093714 0.200000 0.000000 -0.000000 1.000000 0.172374 0.875698
-0.244886 0.000000 0.200000 -0.000000 -0.000000 1.000000 0.144089 0.969686
-0.240181 -0.047775 0.200000 -0.000000 -0.000000 1.000000 0.153639 0.921288
-0.218025 0.043368 0.200000 0.000000 -0.000000 1.000000 0.167015 1.016756
-0.222296 0.000000 0.200000 0.000000 -0.000000 1.000000 0.167015 0.971962
-0.226245 0.093714 0.200000 -0.000000 0.000000 1.000000 0.153640 1.067430
-0.240181 0.047775 0.200000 -0.000000 0.000000 1.000000 0.144089 1.019032
-0.184832 0.123501 0.200000 0.000000 -0.000000 1.000000 0.192691 1.102074
-0.205375 0.085069 0.200000 0.000000 -0.000000 1.000000 0.175685 1.060689
-0.157187 0.157187 0.200000 0.000000 -0.000000 1.000000 0.217381 1.139318
-0.203615 0.136052 0.200000 0.000000 -0.000000 1.000000 0.172374 1.113020
-0.136051 0.203616 0.200000 -0.000000 0.000000 1.000000 0.234190 1.188943
-0.173160 0.173161 0.200000 -0.000000 0.000000 1.000000 0.199573 1.154050
-0.123501 0.184833 0.200000 -0.000000 0.000000 1.000000 0.248805 1.170993
-0.093714 0.226245 0.200000 -0.000000 0.000000 1.000000 0.274896 1.216358
-0.043367 0.218025 0.200000 -0.000000 -0.000000 1.000000 0.326814 1.213021
-0.085069 0.205375 0.200000 -0.000000 -0.000000 1.000000 0.285756 1.195879
-0.047775 0.240181 0.200000 -0.000000 0.000000 1.000000 0.320126 1.235242
-0.068380 -0.165085 -0.174321 0.000000 0.000000 1.000000 0.843667 0.743849
0.165085 0.068380 -0.174321 0.000000 0.000000 1.000000 1.039590 1.113311
0.068380 0.165085 -0.174321 0.000000 0.000000 1.000000 0.887762 1.195111
0.123501 0.184832 0.200000 -0.630172 -0.767867 0.115171 0.743743 0.741295
0.126350 0.126350 -0.174321 -0.630172 -0.767867 0.115171 0.775706 0.265981
0.157187 0.157187 0.200000 -0.630172 -0.767867 0.115171 0.779000 0.740916
-0.085069 0.205375 0.200000 0.288353 -0.950573 0.115171 0.567458 0.742692
-0.034860 0.175253 -0.174321 0.288353 -0.950573 0.115171 0.600794 0.267531
-0.043367 0.218025 0.200000 0.288353 -0.950573 0.115171 0.602715 0.742478
-0.043368 -0.218025 0.200000 0.288353 0.950572 0.115171 0.109107 0.742476
-0.068380 -0.165085 -0.174321 0.288353 0.950572 0.115171 0.146013 0.267741
-0.085069 -0.205375 0.200000 0.288353 0.950572 0.115171 0.144364 0.742690
0.157187 0.157187 0.200000 -0.767867 -0.630172 0.115171 0.779000 0.740916
0.148572 0.099273 -0.174321 -0.767867 -0.630172 0.115171 0.810688 0.265573
0.184832 0.123501 0.200000 -0.767867 -0.630172 0.115171 0.814256 0.740505
-0.000000 0.222296 0.200000 0.097364 -0.988563 0.115171 0.637972 0.742232
-0.034860 0.175253 -0.174321 0.097364 -0.988563 0.115171 0.600794 0.267531
-0.000000 0.178686 -0.174321 0.097364 -0.988563 0.115171 0.635777 0.267286
-0.085069 -0.205375 0.200000 0.468261 0.876052 0.115171 0.144364 0.742690
-0.099273 -0.148572 -0.174321 0.468261 0.876052 0.115171 0.180996 0.267921
-0.123501 -0.184832 0.200000 0.468261 0.876052 0.115171 0.179622 0.742872
0.184832 0.123501 0.200000 -0.876052 -0.468260 0.115171 0.814256 0.740505
0.165085 0.068380 -0.174321 -0.876052 -0.468260 0.115171 0.845670 0.265133
0.205375 0.085069 0.200000 -0.876052 -0.468260 0.115171 0.849512 0.740061
-0.123501 -0.184832 0.200000 0.630172 0.767866 0.115171 0.179622 0.742872
-0.126350 -0.126350 -0.174321 0.630172 0.767866 0.115171 0.215979 0.268068
-0.157187 -0.157187 0.200000 0.630172 0.767866 0.115171 0.214880 0.743020
0.205375 0.085069 0.200000 -0.950573 -0.288353 0.115171 0.849512 0.740061
0.175253 0.034860 -0.174321 -0.950573 -0.288353 0.115171 0.880651 0.264659
0.218025 0.043368 0.200000 -0.950573 -0.288353 0.115171 0.884768 0.739584
-0.157187 -0.157187 0.200000 0.767867 0.630171 0.115171 0.214880 0.743020
-0.148572 -0.099273 -0.174321 0.767867 0.630171 0.115171 0.250963 0.268182
-0.184833 -0.123501 0.200000 0.767867 0.630171 0.115171 0.250138 0.743135
0.218025 0.043368 0.200000 -0.988562 -0.097365 0.115171 0.884768 0.739584
0.178686 0.000000 -0.174321 -0.988562 -0.097365 0.115171 0.915632 0.264154
0.222296 -0.000000 0.200000 -0.988562 -0.097365 0.115171 0.920024 0.739075
-0.184833 -0.123501 0.200000 0.876053 0.468259 0.115171 0.250138 0.743135
-0.165085 -0.068380 -0.174321 0.876053 0.468259 0.115171 0.285946 0.268264
-0.205375 -0.085069 0.200000 0.876053 0.468259 0.115171 0.285395 0.743217
0.222296 -0.000000 0.200000 -0.988562 0.097365 0.115171 -0.208202 0.739070
0.175253 -0.034860 -0.174321 -0.988562 0.097365 0.115171 -0.168827 0.264655
0.218025 -0.043368 0.200000 -0.988562 0.097365 0.115171 -0.172947 0.739580
-0.205375 -0.085069 0.200000 0.950573 0.288352 0.115171 0.285395 0.743217
-0.175253 -0.034860 -0.174321 0.950573 0.288352 0.115171 0.320929 0.268313
-0.218025 -0.043368 0.200000 0.950573 0.288352 0.115171 0.320653 0.743267
0.218025 -0.043368 0.200000 -0.950572 0.288353 0.115171 -0.172947 0.739580
0.165085 -0.068380 -0.174321 -0.950572 0.288353 0.115171 -0.133845 0.265128
0.205375 -0.085069 0.200000 -0.950572 0.288353 0.115171 -0.137691 0.740057
-0.218025 -0.043368 0.200000 0.988563 0.097364 0.115171 0.320653 0.743267
-0.178686 0.000000 -0.174321 0.988563 0.097364 0.115171 0.355912 0.268329
-0.222296 0.000000 0.200000 0.988563 0.097364 0.115171 0.355911 0.743283
0.205375 -0.085069 0.200000 -0.876052 0.468260 0.115171 -0.137691 0.740057
0.148572 -0.099273 -0.174321 -0.876052 0.468260 0.115171 -0.098864 0.265569
0.184832 -0.123501 0.200000 -0.876052 0.468260 0.115171 -0.102435 0.740501
-0.222296 0.000000 0.200000 0.988562 -0.097366 0.115171 0.355911 0.743283
-0.175253 0.034860 -0.174321 0.988562 -0.097366 0.115171 0.390896 0.268313
-0.218025 0.043368 0.200000 0.988562 -0.097366 0.115171 0.391169 0.743267
0.184832 -0.123501 0.200000 -0.767867 0.630172 0.115171 -0.102435 0.740501
0.126350 -0.126350 -0.174321 -0.767867 0.630172 0.115171 -0.063882 0.265977
0.157187 -0.157187 0.200000 -0.767867 0.630172 0.115171 -0.067178 0.740913
-0.218025 0.043368 0.200000 0.950572 -0.288355 0.115171 0.391169 0.743267
-0.165084 0.068380 -0.174321 0.950572 -0.288355 0.115171 0.425879 0.268264
-0.205375 0.085069 0.200000 0.950572 -0.288355 0.115171 0.426427 0.743218
0.157187 -0.157187 0.200000 -0.630172 0.767867 0.115171 -0.067178 0.740913
0.099273 -0.148572 -0.174321 -0.630172 0.767867 0.115171 -0.028900 0.266353
0.123501 -0.184832 0.200000 -0.630172 0.767867 0.115171 -0.031922 0.741291
-0.205375 0.085069 0.200000 0.876052 -0.468261 0.115171 0.426427 0.743218
-0.148572 0.099273 -0.174321 0.876052 -0.468261 0.115171 0.460862 0.268183
-0.184832 0.123501 0.200000 0.876052 -0.468261 0.115171 0.461685 0.743136
0.123501 -0.184832 0.200000 -0.468261 0.876052 0.115171 -0.031922 0.741291
0.068380 -0.165085 -0.174321 -0.468261 0.876052 0.115171 0.006082 0.266696
0.085069 -0.205375 0.200000 -0.468261 0.876052 0.115171 0.003335 0.741637
-0.000000 0.222296 0.200000 -0.097364 -0.988562 0.115171 0.637972 0.742232
0.034860 0.175253 -0.174321 -0.097364 -0.988562 0.115171 0.670759 0.267009
0.043368 0.218025 0.200000 -0.097364 -0.988562 0.115171 0.673229 0.741952
-0.157187 0.157187 0.200000 0.767866 -0.630173 0.115171 0.496942 0.743021
-0.148572 0.099273 -0.174321 0.767866 -0.630173 0.115171 0.460862 0.268183
-0.126350 0.126350 -0.174321 0.767866 -0.630173 0.115171 0.495845 0.268069
0.085069 -0.205375 0.200000 -0.288352 0.950573 0.115171 0.003335 0.741637
0.034860 -0.175253 -0.174321 -0.288352 0.950573 0.115171 0.041065 0.267006
0.043368 -0.218025 0.200000 -0.288352 0.950573 0.115171 0.038592 0.741949
0.043368 0.218025 0.200000 -0.288353 -0.950572 0.115171 0.673229 0.741952
0.068380 0.165085 -0.174321 -0.288353 -0.950572 0.115171 0.705742 0.266699
0.085069 0.205375 0.200000 -0.288353 -0.950572 0.115171 0.708486 0.741640
-0.157187 0.157187 0.200000 0.630171 -0.767867 0.115171 0.496942 0.743021
-0.099273 0.148572 -0.174321 0.630171 -0.767867 0.115171 0.530829 0.267922
-0.123501 0.184833 0.200000 0.630171 -0.767867 0.115171 0.532200 0.742873
0.043368 -0.218025 0.200000 -0.097364 0.988563 0.115171 0.038592 0.741949
-0.000000 -0.178686 -0.174321 -0.097364 0.988563 0.115171 0.076047 0.267283
-0.000000 -0.222296 0.200000 -0.097364 0.988563 0.115171 0.073850 0.742229
0.085069 0.205375 0.200000 -0.468260 -0.876052 0.115171 0.708486 0.741640
0.099273 0.148572 -0.174321 -0.468260 -0.876052 0.115171 0.740724 0.266356
0.123501 0.184832 0.200000 -0.468260 -0.876052 0.115171 0.743743 0.741295
-0.085069 0.205375 0.200000 0.468258 -0.876053 0.115171 0.567458 0.742692
-0.099273 0.148572 -0.174321 0.468258 -0.876053 0.115171 0.530829 0.267922
-0.068380 0.165085 -0.174321 0.468258 -0.876053 0.115171 0.565812 0.267743
0.047775 0.240181 0.200000 0.097412 0.989037 -0.110985 0.767841 -0.245530
0.047775 0.240181 0.200000 0.288491 0.951029 -0.110985 0.767841 -0.245530
0.093714 0.226245 0.200000 0.288491 0.951029 -0.110985 0.806681 -0.245899
0.076537 0.184776 -0.200000 0.288491 0.951029 -0.110985 0.809829 0.261623
0.136051 0.203615 0.200000 0.468485 0.876473 -0.110985 0.845521 -0.246307
0.173161 0.173161 0.200000 0.630474 0.768235 -0.110985 0.884360 -0.246754
0.203615 0.136051 0.200000 0.768235 0.630474 -0.110985 0.923199 -0.247241
0.226245 0.093714 0.200000 0.876473 0.468484 -0.110985 0.962037 -0.247766
0.226245 0.093714 0.200000 0.951028 0.288492 -0.110985 0.962037 -0.247766
0.240181 0.047775 0.200000 0.951028 0.288492 -0.110985 1.000876 -0.248329
0.196157 0.039018 -0.200000 0.951028 0.288492 -0.110985 1.005599 0.259172
0.244886 0.000000 0.200000 0.989037 0.097412 -0.110985 1.039714 -0.248932
0.244886 0.000000 0.200000 0.989036 -0.097412 -0.110985 -0.203163 -0.248937
0.240181 -0.047775 0.200000 0.989036 -0.097412 -0.110985 -0.164325 -0.248334
0.196157 -0.039018 -0.200000 0.989036 -0.097412 -0.110985 -0.169049 0.259170
0.240181 -0.047775 0.200000 0.951028 -0.288492 -0.110985 -0.164325 -0.248334
0.226245 -0.093714 0.200000 0.951028 -0.288492 -0.110985 -0.125486 -0.247770
0.184776 -0.076537 -0.200000 0.951028 -0.288492 -0.110985 -0.129896 0.259738
0.203615 -0.136052 0.200000 0.876473 -0.468484 -0.110985 -0.086647 -0.247245
0.173161 -0.173161 0.200000 0.768235 -0.630474 -0.110985 -0.047808 -0.246758
0.136051 -0.203615 0.200000 0.630474 -0.768235 -0.110985 -0.008969 -0.246311
0.093714 -0.226245 0.200000 0.468485 -0.876473 -0.110985 0.029871 -0.245902
0.047775 -0.240181 0.200000 0.288491 -0.951029 -0.110985 0.068711 -0.245533
-0.000000 -0.244886 0.200000 0.097411 -0.989037 -0.110985 0.107551 -0.245202
-0.000000 -0.244886 0.200000 -0.097411 -0.989037 -0.110985 0.107551 -0.245202
-0.047775 -0.240181 0.200000 -0.097411 -0.989037 -0.110985 0.146391 -0.244910
-0.039018 -0.196157 -0.200000 -0.097411 -0.989037 -0.110985 0.144186 0.262621
-0.093714 -0.226245 0.200000 -0.288492 -0.951028 -0.110985 0.185232 -0.244657
-0.136052 -0.203615 0.200000 -0.468485 -0.876473 -0.110985 0.224072 -0.244443
-0.136052 -0.203615 0.200000 -0.630474 -0.768235 -0.110985 0.224072 -0.244443
-0.173161 -0.173161 0.200000 -0.630474 -0.768235 -0.110985 0.262913 -0.244268
-0.141421 -0.141421 -0.200000 -0.630474 -0.768235 -0.110985 0.261652 0.263268
-0.173161 -0.173161 0.200000 -0.768236 -0.630473 -0.110985 0.262913 -0.244268
-0.203616 -0.136051 0.200000 -0.768236 -0.630473 -0.110985 0.301754 -0.244131
-0.166294 -0.111114 -0.200000 -0.768236 -0.630473 -0.110985 0.300808 0.263406
-0.226245 -0.093714 0.200000 -0.876473 -0.468484 -0.110985 0.340595 -0.244034
-0.240181 -0.047775 0.200000 -0.951029 -0.288490 -0.110985 0.379436 -0.243975
-0.244886 0.000000 0.200000 -0.989037 -0.097411 -0.110985 0.418277 -0.243956
-0.244886 0.000000 0.200000 -0.989036 0.097412 -0.110985 0.418277 -0.243956
-0.240181 0.047775 0.200000 -0.989036 0.097412 -0.110985 0.457117 -0.243975
-0.196157 0.039018 -0.200000 -0.989036 0.097412 -0.110985 0.457431 0.263563
-0.240181 0.047775 0.200000 -0.951028 0.288492 -0.110985 0.457117 -0.243975
-0.226245 0.093714 0.200000 -0.951028 0.288492 -0.110985 0.495958 -0.244033
-0.184776 0.076537 -0.200000 -0.951028 0.288492 -0.110985 0.496587 0.263504
-0.226245 0.093714 0.200000 -0.876472 0.468486 -0.110985 0.495958 -0.244033
-0.203615 0.136052 0.200000 -0.876472 0.468486 -0.110985 0.534799 -0.244130
-0.166294 0.111114 -0.200000 -0.876472 0.468486 -0.110985 0.535743 0.263406
-0.173160 0.173161 0.200000 -0.768234 0.630475 -0.110985 0.573640 -0.244266
-0.136051 0.203616 0.200000 -0.630473 0.768236 -0.110985 0.612481 -0.244441
-0.136051 0.203616 0.200000 -0.468483 0.876473 -0.110985 0.612481 -0.244441
-0.093714 0.226245 0.200000 -0.468483 0.876473 -0.110985 0.651321 -0.244655
-0.076536 0.184776 -0.200000 -0.468483 0.876473 -0.110985 0.653210 0.262877
-0.000000 -0.222296 0.200000 0.097364 0.988562 0.115171 0.073850 0.742229
-0.000000 -0.178686 -0.174321 0.097364 0.988562 0.115171 0.076047 0.267283
-0.034860 -0.175253 -0.174321 0.097364 0.988562 0.115171 0.111030 0.267528
-0.047775 0.240181 0.200000 -0.288490 0.951029 -0.110985 0.690162 -0.244908
-0.047775 0.240181 0.200000 -0.097410 0.989037 -0.110985 0.690162 -0.244908
-0.000000 0.244886 0.200000 -0.097410 0.989037 -0.110985 0.729001 -0.245199
0.000000 0.200000 -0.200000 -0.097410 0.989037 -0.110985 0.731520 0.262328
-0.039018 0.196157 -0.200000 -0.000000 0.000000 -1.000000 -0.180257 0.753554
0.000000 0.200000 -0.200000 -0.000000 0.000000 -1.000000 -0.131852 0.743849
0.039018 0.196157 -0.200000 -0.000000 0.000000 -1.000000 -0.082498 0.743849
0.076537 0.184776 -0.200000 0.000000 0.000000 -1.000000 -0.034092 0.753555
0.111114 0.166294 -0.200000 0.000000 0.000000 -1.000000 0.011505 0.772592
0.141421 0.141421 -0.200000 0.000000 0.000000 -1.000000 0.052542 0.800230
0.166294 0.111114 -0.200000 0.000000 0.000000 -1.000000 0.087440 0.835406
0.184776 0.076537 -0.200000 0.000000 0.000000 -1.000000 0.114860 0.876769
0.200000 0.000000 -0.200000 0.000000 0.000000 -1.000000 0.143375 0.971520
0.196157 -0.039018 -0.200000 0.000000 0.000000 -1.000000 0.143375 1.021266
0.184776 -0.076537 -0.200000 0.000000 -0.000000 -1.000000 0.133747 1.070057
0.166294 -0.111114 -0.200000 0.000000 0.000000 -1.000000 0.114860 1.116017
0.141421 -0.141421 -0.200000 0.000000 0.000000 -1.000000 0.087440 1.157380
0.111114 -0.166294 -0.200000 0.000000 0.000000 -1.000000 0.052542 1.192557
0.076537 -0.184776 -0.200000 0.000000 0.000000 -1.000000 0.011505 1.220195
-0.000000 -0.200000 -0.200000 0.000000 0.000000 -1.000000 -0.082498 1.248937
-0.039018 -0.196157 -0.200000 0.000000 0.000000 -1.000000 -0.131853 1.248937
-0.076537 -0.184776 -0.200000 0.000000 0.000000 -1.000000 -0.180259 1.239232
-0.111114 -0.166294 -0.200000 0.000000 0.000000 -1.000000 -0.225856 1.220195
-0.141421 -0.141421 -0.200000 0.000000 0.000000 -1.000000 -0.266892 1.192557
-0.166294 -0.111114 -0.200000 0.000000 0.000000 -1.000000 -0.301791 1.157380
-0.184776 -0.076537 -0.200000 0.000000 0.000000 -1.000000 -0.329210 1.116017
-0.200000 0.000000 -0.200000 0.000000 -0.000000 -1.000000 -0.357725 1.021266
-0.196157 0.039018 -0.200000 0.000000 -0.000000 -1.000000 -0.357725 0.971519
-0.184776 0.076537 -0.200000 0.000000 0.000000 -1.000000 -0.348096 0.922728
-0.166294 0.111114 -0.200000 0.000000 0.000000 -1.000000 -0.329209 0.876768
-0.141421 0.141422 -0.200000 0.000000 0.000000 -1.000000 -0.301789 0.835405
-0.111114 0.166294 -0.200000 0.000000 0.000000 -1.000000 -0.266891 0.800229
-0.076536 0.184776 -0.200000 0.000000 0.000000 -1.000000 -0.225854 0.772591
0.244886 0.000000 0.200000 0.000000 0.000000 1.000000 0.641152 1.019032
0.034860 0.175253 -0.174321 0.000000 0.000000 1.000000 0.843667 1.195111
-0.000000 0.178686 -0.174321 0.000000 0.000000 1.000000 0.800420 1.186440
-0.034860 0.175253 -0.174321 0.000000 0.000000 1.000000 0.759682 1.169432
-0.068380 0.165085 -0.174321 0.000000 0.000000 1.000000 0.723019 1.144739
-0.099273 0.148572 -0.174321 0.000000 0.000000 1.000000 0.691840 1.113312
-0.126350 0.126350 -0.174321 0.000000 0.000000 1.000000 0.667342 1.076357
-0.148572 0.099273 -0.174321 0.000000 -0.000000 1.000000 0.650468 1.035295
-0.165084 0.068380 -0.174321 0.000000 0.000000 1.000000 0.641865 0.991703
-0.175253 0.034860 -0.174321 0.000000 0.000000 1.000000 0.641865 0.947258
-0.178686 0.000000 -0.174321 0.000000 0.000000 1.000000 0.650467 0.903667
-0.175253 -0.034860 -0.174321 0.000000 0.000000 1.000000 0.667341 0.862604
-0.165085 -0.068380 -0.174321 0.000000 0.000000 1.000000 0.691839 0.825649
-0.148572 -0.099273 -0.174321 0.000000 0.000000 1.000000 0.723018 0.794222
-0.126350 -0.126350 -0.174321 0.000000 0.000000 1.000000 0.759681 0.769529
-0.099273 -0.148572 -0.174321 0.000000 0.000000 1.000000 0.800420 0.752520
-0.034860 -0.175253 -0.174321 0.000000 0.000000 1.000000 0.887762 0.743849
-0.000000 -0.178686 -0.174321 0.000000 0.000000 1.000000 0.931009 0.752520
0.034860 -0.175253 -0.174321 0.000000 0.000000 1.000000 0.971747 0.769529
0.068380 -0.165085 -0.174321 0.000000 0.000000 1.000000 1.008410 0.794221
0.099273 -0.148572 -0.174321 0.000000 0.000000 1.000000 1.039590 0.825649
0.165085 -0.068380 -0.174321 0.000000 0.000000 1.000000 1.089564 0.947258
0.126350 -0.126350 -0.174321 0.000000 0.000000 1.000000 1.064087 0.862604
0.148572 -0.099273 -0.174321 0.000000 0.000000 1.000000 1.080962 0.903666
0.175253 -0.034860 -0.174321 0.000000 0.000000 1.000000 1.089564 0.991703
0.178686 0.000000 -0.174321 0.000000 0.000000 1.000000 1.080961 1.035294
0.175253 0.034860 -0.174321 -0.000000 0.000000 1.000000 1.064087 1.076357
0.148572 0.099273 -0.174321 0.000000 0.000000 1.000000 1.008410 1.144739
0.126350 0.126350 -0.174321 0.000000 0.000000 1.000000 0.971747 1.169432
0.099273 0.148572 -0.174321 -0.000000 -0.000000 1.000000 0.931009 1.186440
0.099273 0.148572 -0.174321 -0.630172 -0.767867 0.115171 0.740724 0.266356
-0.085069 0.205375 0.200000 0.288352 -0.950573 0.115171 0.567458 0.742692
-0.068380 0.165085 -0.174321 0.288352 -0.950573 0.115171 0.565812 0.267743
-0.034860 0.175253 -0.174321 0.288352 -0.950573 0.115171 0.600794 0.267531
-0.043368 -0.218025 0.200000 0.288354 0.950572 0.115171 0.109107 0.742476
-0.034860 -0.175253 -0.174321 0.288354 0.950572 0.115171 0.111030 0.267528
-0.068380 -0.165085 -0.174321 0.288354 0.950572 0.115171 0.146013 0.267741
0.126350 0.126350 -0.174321 -0.767867 -0.630172 0.115171 0.775706 0.265981
-0.000000 0.222296 0.200000 0.097363 -0.988563 0.115171 0.637972 0.742232
-0.043367 0.218025 0.200000 0.097363 -0.988563 0.115171 0.602715 0.742478
-0.034860 0.175253 -0.174321 0.097363 -0.988563 0.115171 0.600794 0.267531
-0.085069 -0.205375 0.200000 0.468260 0.876052 0.115171 0.144364 0.742690
-0.068380 -0.165085 -0.174321 0.468260 0.876052 0.115171 0.146013 0.267741
-0.099273 -0.148572 -0.174321 0.468260 0.876052 0.115171 0.180996 0.267921
0.184832 0.123501 0.200000 -0.876053 -0.468260 0.115171 0.814256 0.740505
0.148572 0.099273 -0.174321 -0.876053 -0.468260 0.115171 0.810688 0.265573
0.165085 0.068380 -0.174321 -0.876053 -0.468260 0.115171 0.845670 0.265133
-0.099273 -0.148572 -0.174321 0.630172 0.767866 0.115171 0.180996 0.267921
0.165085 0.068380 -0.174321 -0.950573 -0.288353 0.115171 0.845670 0.265133
-0.126350 -0.126350 -0.174321 0.767867 0.630171 0.115171 0.215979 0.268068
0.175253 0.034860 -0.174321 -0.988562 -0.097365 0.115171 0.880651 0.264659
-0.184833 -0.123501 0.200000 0.876053 0.468260 0.115171 0.250138 0.743135
-0.148572 -0.099273 -0.174321 0.876053 0.468260 0.115171 0.250963 0.268182
-0.165085 -0.068380 -0.174321 0.876053 0.468260 0.115171 0.285946 0.268264
0.222296 -0.000000 0.200000 -0.988563 0.097365 0.115171 -0.208202 0.739070
0.178686 0.000000 -0.174321 -0.988563 0.097365 0.115171 -0.203808 0.264148
0.175253 -0.034860 -0.174321 -0.988563 0.097365 0.115171 -0.168827 0.264655
-0.165085 -0.068380 -0.174321 0.950573 0.288352 0.115171 0.285946 0.268264
0.218025 -0.043368 0.200000 -0.950573 0.288353 0.115171 -0.172947 0.739580
0.175253 -0.034860 -0.174321 -0.950573 0.288353 0.115171 -0.168827 0.264655
0.165085 -0.068380 -0.174321 -0.950573 0.288353 0.115171 -0.133845 0.265128
-0.175253 -0.034860 -0.174321 0.988563 0.097364 0.115171 0.320929 0.268313
0.205375 -0.085069 0.200000 -0.876053 0.468260 0.115171 -0.137691 0.740057
0.165085 -0.068380 -0.174321 -0.876053 0.468260 0.115171 -0.133845 0.265128
0.148572 -0.099273 -0.174321 -0.876053 0.468260 0.115171 -0.098864 0.265569
-0.222296 0.000000 0.200000 0.988562 -0.097365 0.115171 0.355911 0.743283
-0.178686 0.000000 -0.174321 0.988562 -0.097365 0.115171 0.355912 0.268329
-0.175253 0.034860 -0.174321 0.988562 -0.097365 0.115171 0.390896 0.268313
0.148572 -0.099273 -0.174321 -0.767867 0.630172 0.115171 -0.098864 0.265569
-0.218025 0.043368 0.200000 0.950572 -0.288354 0.115171 0.391169 0.743267
-0.175253 0.034860 -0.174321 0.950572 -0.288354 0.115171 0.390896 0.268313
-0.165084 0.068380 -0.174321 0.950572 -0.288354 0.115171 0.425879 0.268264
0.157187 -0.157187 0.200000 -0.630171 0.767867 0.115171 -0.067178 0.740913
0.126350 -0.126350 -0.174321 -0.630171 0.767867 0.115171 -0.063882 0.265977
0.099273 -0.148572 -0.174321 -0.630171 0.767867 0.115171 -0.028900 0.266353
-0.165084 0.068380 -0.174321 0.876052 -0.468261 0.115171 0.425879 0.268264
0.123501 -0.184832 0.200000 -0.468260 0.876052 0.115171 -0.031922 0.741291
0.099273 -0.148572 -0.174321 -0.468260 0.876052 0.115171 -0.028900 0.266353
0.068380 -0.165085 -0.174321 -0.468260 0.876052 0.115171 0.006082 0.266696
-0.000000 0.222296 0.200000 -0.097365 -0.988562 0.115171 0.637972 0.742232
-0.000000 0.178686 -0.174321 -0.097365 -0.988562 0.115171 0.635777 0.267286
0.034860 0.175253 -0.174321 -0.097365 -0.988562 0.115171 0.670759 0.267009
-0.184832 0.123501 0.200000 0.767866 -0.630173 0.115171 0.461685 0.743136
0.085069 -0.205375 0.200000 -0.288353 0.950573 0.115171 0.003335 0.741637
0.068380 -0.165085 -0.174321 -0.288353 0.950573 0.115171 0.006082 0.266696
0.034860 -0.175253 -0.174321 -0.288353 0.950573 0.115171 0.041065 0.267006
0.043368 0.218025 0.200000 -0.288352 -0.950573 0.115171 0.673229 0.741952
0.034860 0.175253 -0.174321 -0.288352 -0.950573 0.115171 0.670759 0.267009
0.068380 0.165085 -0.174321 -0.288352 -0.950573 0.115171 0.705742 0.266699
-0.126350 0.126350 -0.174321 0.630171 -0.767867 0.115171 0.495845 0.268069
0.034860 -0.175253 -0.174321 -0.097364 0.988563 0.115171 0.041065 0.267006
0.085069 0.205375 0.200000 -0.468260 -0.876053 0.115171 0.708486 0.741640
0.068380 0.165085 -0.174321 -0.468260 -0.876053 0.115171 0.705742 0.266699
0.099273 0.148572 -0.174321 -0.468260 -0.876053 0.115171 0.740724 0.266356
-0.085069 0.205375 0.200000 0.468258 -0.876054 0.115171 0.567458 0.742692
-0.123501 0.184833 0.200000 0.468258 -0.876054 0.115171 0.532200 0.742873
-0.099273 0.148572 -0.174321 0.468258 -0.876054 0.115171 0.530829 0.267922
3 0 1 2
3 3 4 5
3 6 7 8
3 9 10 11
3 12 13 14
3 15 16 17
3 18 19 20
3 21 22 23
3 24 25 26
3 27 28 29
3 30 31 32
3 33 34 35
3 36 37 38
3 39 40 41
3 42 43 44
3 45 46 47
3 48 49 50
3 51 52 53
3 54 55 56
3 57 58 59
3 60 61 62
3 63 64 65
3 66 67 68
3 69 70 71
3 72 73 74
3 75 76 77
3 78 79 80
3 81 82 83
3 84 85 86
3 87 88 89
3 90 91 92
3 93 94 95
3 96 97 98
3 99 100 101
3 102 103 104
3 105 106 102
3 105 107 108
3 109 107 110
3 111 112 109
3 113 114 111
3 113 115 116
3 117 115 118
3 119 120 121
3 122 123 120
3 124 123 125
3 124 126 127
3 128 126 129
3 130 131 128
3 130 132 133
3 134 135 132
3 136 135 137
3 138 139 136
3 138 140 141
3 142 143 140
3 144 145 143
3 146 145 147
3 148 149 146
3 148 150 151
3 152 150 153
3 152 154 155
3 156 154 157
3 158 159 156
3 158 160 161
3 162 163 160
3 164 163 165
3 164 103 166
3 167 168 169
3 170 171 172
3 173 174 175
3 176 177 178
3 179 180 181
3 182 183 184
3 185 186 187
3 188 189 190
3 191 192 193
3 194 195 196
3 197 198 199
3 200 201 202
3 203 204 205
3 206 207 208
3 209 210 211
3 212 213 214
3 215 216 217
3 218 219 220
3 221 222 223
3 224 225 226
3 227 228 229
3 230 231 232
3 233 234 235
3 236 237 238
3 239 240 241
3 242 243 244
3 245 246 247
3 248 249 250
3 251 252 253
3 254 255 256
3 257 258 259
3 260 261 262
3 0 263 1
3 264 265 266
3 6 267 7
3 9 268 10
3 12 269 13
3 15 270 16
3 271 272 273
3 21 274 22
3 275 276 277
3 278 279 280
3 30 281 31
3 33 282 34
3 36 283 37
3 39 284 40
3 42 285 43
3 45 286 46
3 287 288 289
3 51 290 52
3 54 291 55
3 292 293 294
3 295 296 297
3 63 298 64
3 66 299 67
3 69 300 70
3 301 302 303
3 304 305 306
3 307 308 309
3 81 310 82
3 84 311 85
3 312 313 314
3 315 316 317
3 93 318 94
3 319 320 321
3 322 323 324
3 324 325 326
3 326 327 328
3 328 329 326
3 101 330 331
3 331 332 101
3 333 334 99
3 335 336 99
3 99 337 338
3 338 339 340
3 340 341 342
3 342 343 100
3 100 344 345
3 345 346 347
3 347 348 322
3 349 350 322
3 322 324 101
3 326 329 101
3 101 332 333
3 334 335 99
3 99 338 100
3 340 342 100
3 100 345 322
3 348 349 322
3 324 326 101
3 101 333 99
3 338 340 100
3 345 347 322
3 322 101 100
3 102 106 103
3 105 108 106
3 105 110 107
3 109 112 107
3 111 114 112
3 113 116 114
3 113 118 115
3 117 351 115
3 119 122 120
3 122 125 123
3 124 127 123
3 124 129 126
3 128 131 126
3 130 133 131
3 130 134 132
3 134 137 135
3 136 139 135
3 138 141 139
3 138 142 140
3 142 144 143
3 144 147 145
3 146 149 145
3 148 151 149
3 148 153 150
3 152 155 150
3 152 157 154
3 156 159 154
3 158 161 159
3 158 162 160
3 162 165 163
3 164 166 163
3 164 104 103
3 169 352 353
3 353 354 355
3 355 356 357
3 357 358 355
3 359 360 361
3 361 362 363
3 363 364 167
3 365 366 167
3 167 367 368
3 368 369 370
3 370 371 372
3 373 374 372
3 372 375 376
3 376 377 372
3 168 378 379
3 379 380 168
3 169 353 359
3 355 358 359
3 359 361 167
3 364 365 167
3 167 368 372
3 371 373 372
3 372 377 168
3 168 380 169
3 353 355 359
3 361 363 167
3 368 370 372
3 372 168 167
3 169 359 167
3 170 381 171
3 382 383 384
3 385 386 387
3 179 388 180
3 389 390 391
3 392 393 394
3 395 396 397
3 191 398 192
3 194 399 195
3 197 400 198
3 200 401 201
3 402 403 404
3 405 406 407
3 209 408 210
3 409 410 411
3 215 412 216
3 413 414 415
3 416 417 418
3 224 419 225
3 420 421 422
3 423 424 425
3 233 426 234
3 427 428 429
3 430 431 432
3 242 433 243
3 434 435 436
3 437 438 439
3 251 440 252
3 254 441 255
3 442 443 444
3 445 446 447
