ply
format ascii 1.0
comment Created by Blender 2.78 (sub 0) - www.blender.org, source file: 'Chair.blend'
element vertex 184
property float x
property float y
property float z
property float nx
property float ny
property float nz
property float s
property float t
element face 108
property list uchar uint vertex_indices
end_header
0.232665 -0.174288 -0.030328 -0.000000 1.000000 0.000000 0.407562 0.973371
0.176292 -0.174288 -0.462717 -0.000000 1.000000 0.000000 0.435319 -0.616703
0.176292 -0.174288 -0.030328 -0.000000 1.000000 0.000000 0.435317 0.973384
-0.232665 -0.232665 0.030328 -1.000000 -0.000000 0.000000 -0.099544 -0.363151
-0.232665 -0.174288 0.599079 -1.000000 -0.000000 0.000000 -0.139051 1.616559
-0.232665 -0.174288 0.030328 -1.000000 -0.000000 0.000000 -0.132482 -0.363687
0.232665 -0.174289 0.030328 1.000000 0.000000 0.000002 0.701689 0.284405
0.232665 -0.232665 -0.030328 1.000000 0.000000 0.000002 0.673521 0.059869
0.232665 -0.174288 -0.030328 1.000000 0.000000 0.000002 0.701689 0.059869
-0.167601 -0.232665 0.030328 0.000000 -1.000000 0.000000 0.704916 0.058877
-0.232665 -0.232665 -0.030328 0.000000 -1.000000 0.000000 0.673521 -0.165660
-0.167601 -0.232665 -0.030328 0.000000 -1.000000 0.000000 0.704916 -0.165660
-0.232665 0.175692 -0.030328 -1.000000 0.000000 -0.000001 -0.311323 -0.616716
-0.232665 0.232665 0.030328 -1.000000 0.000000 -0.000001 -0.338097 -0.362187
-0.232665 0.232665 -0.030328 -1.000000 0.000000 -0.000001 -0.342438 -0.616217
-0.167601 0.232665 -0.030328 0.000000 1.000000 0.000002 0.704916 -0.392180
-0.232665 0.232665 0.030328 0.000000 1.000000 0.000002 0.673521 -0.616716
-0.167601 0.232665 0.030328 0.000000 1.000000 0.000002 0.704916 -0.616716
0.232665 0.232665 -0.030328 0.000000 1.000000 0.000002 0.898057 -0.392180
0.176292 0.232665 0.030328 0.000000 1.000000 0.000002 0.870855 -0.616716
0.232665 0.232665 0.030328 0.000000 1.000000 0.000002 0.898057 -0.616716
0.232665 -0.232665 0.030328 -0.000000 -1.000000 -0.000002 0.898057 0.058877
0.176292 -0.232665 -0.030328 -0.000000 -1.000000 -0.000002 0.870855 -0.165660
0.232665 -0.232665 -0.030328 -0.000000 -1.000000 -0.000002 0.898057 -0.165660
0.176292 -0.174289 0.030328 0.000000 0.000000 1.000000 0.700723 0.481764
0.232665 -0.232665 0.030328 0.000000 0.000000 1.000000 0.673521 0.509933
0.232665 -0.174289 0.030328 0.000000 0.000000 1.000000 0.673521 0.481765
-0.167601 0.232665 -0.030328 -0.000000 1.000000 0.000000 0.347304 0.977819
-0.232665 0.232665 -0.462717 -0.000000 1.000000 0.000000 0.378587 -0.616701
-0.232665 0.232665 -0.030328 -0.000000 1.000000 0.000000 0.378580 0.977819
0.176292 0.232665 -0.030328 0.000000 1.000000 0.000002 0.870855 -0.392180
0.176292 -0.232665 0.030328 -0.000000 -1.000000 -0.000002 0.870855 0.058877
-0.167601 -0.232665 -0.030328 -0.000000 -1.000000 -0.000002 0.704916 -0.165660
-0.167601 -0.232665 0.030328 0.000000 -0.000000 1.000000 0.866661 0.509933
0.176292 -0.232665 0.030328 0.000000 -0.000000 1.000000 0.700723 0.509933
0.176292 -0.232665 -0.030328 -0.000000 -0.000000 -1.000000 0.673521 -0.193853
-0.167601 -0.174288 -0.030328 -0.000000 -0.000000 -1.000000 0.701689 -0.359792
0.176292 -0.174288 -0.030328 -0.000000 -0.000000 -1.000000 0.701689 -0.193853
0.176292 0.175691 -0.030328 0.000000 -0.000000 -1.000000 0.870565 -0.193853
-0.167601 0.175692 -0.030328 0.000000 -0.000000 -1.000000 0.870565 -0.359792
-0.167601 0.175691 0.030328 0.000000 0.000000 1.000000 0.866661 0.312888
0.176292 0.175691 0.030328 0.000000 0.000000 1.000000 0.700722 0.312888
0.232665 0.175691 -0.030328 0.000000 -0.000000 -1.000000 0.870565 -0.166652
0.232665 0.175691 0.030328 0.000000 0.000000 1.000000 0.673521 0.312888
-0.232665 -0.232665 0.030328 -1.000000 0.000000 -0.000001 -0.099544 -0.363151
-0.232665 -0.174288 -0.030328 -1.000000 0.000000 -0.000001 -0.126613 -0.615398
-0.232665 -0.232665 -0.030328 -1.000000 0.000000 -0.000001 -0.095039 -0.614832
0.232665 0.175691 0.030328 1.000000 0.000000 -0.000001 0.870565 0.284405
0.232665 -0.174288 -0.030328 1.000000 0.000000 -0.000001 0.701689 0.059869
0.232665 0.175691 -0.030328 1.000000 0.000000 -0.000001 0.870565 0.059869
-0.232665 0.175691 0.030328 -1.000000 0.000000 0.000000 -0.305425 -0.362532
-0.232665 0.232665 0.599079 -1.000000 0.000000 0.000000 -0.332369 1.616716
-0.232665 0.232665 0.030328 -1.000000 0.000000 0.000000 -0.338097 -0.362187
-0.232665 0.175692 -0.030328 -0.000000 -0.000000 -1.000000 0.870565 -0.391188
-0.232665 0.175692 -0.030328 -0.000000 -1.000000 -0.000000 0.288196 0.977811
-0.167601 0.175692 -0.462717 -0.000000 -1.000000 -0.000000 0.319471 -0.616708
-0.167601 0.175692 -0.030328 -0.000000 -1.000000 -0.000000 0.319471 0.977811
-0.167601 -0.174288 0.030328 1.000000 -0.000000 0.000000 -0.058678 -0.616572
-0.167601 -0.232665 0.599079 1.000000 -0.000000 0.000000 -0.094047 1.409745
-0.167601 -0.232665 0.030328 1.000000 -0.000000 0.000000 -0.094047 -0.616716
0.232665 0.232665 0.030328 1.000000 0.000000 -0.000002 0.898057 0.284405
0.232665 0.175691 -0.030328 1.000000 0.000000 -0.000002 0.870565 0.059869
0.232665 0.232665 -0.030328 1.000000 0.000000 -0.000002 0.898057 0.059869
0.176292 0.232665 0.030328 0.000000 0.000000 1.000000 0.700722 0.285397
0.232665 0.232665 0.030328 0.000000 0.000000 1.000000 0.673521 0.285397
0.232665 -0.232665 -0.030328 1.000000 0.000000 0.000000 0.379579 0.973371
0.232665 -0.174288 -0.462717 1.000000 0.000000 0.000000 0.407565 -0.616716
0.232665 -0.174288 -0.030328 1.000000 0.000000 0.000000 0.407562 0.973371
0.176292 0.232665 -0.030328 0.000000 -0.000000 -1.000000 0.898057 -0.193853
-0.167601 0.232665 -0.030328 0.000000 -0.000000 -1.000000 0.898057 -0.359792
-0.232665 -0.174288 0.030328 -1.000000 0.000000 -0.000001 -0.132482 -0.363687
-0.167601 -0.232665 -0.462717 -0.000000 -0.000000 -1.000000 0.673521 0.574708
-0.232665 -0.174288 -0.462717 -0.000000 -0.000000 -1.000000 0.701689 0.543312
-0.167601 -0.174288 -0.462717 -0.000000 -0.000000 -1.000000 0.701689 0.574708
0.232665 -0.232665 -0.462717 -0.000000 -0.000000 -1.000000 0.731164 0.570514
0.176292 -0.174288 -0.462717 -0.000000 -0.000000 -1.000000 0.759333 0.543312
0.232665 -0.174288 -0.462717 -0.000000 -0.000000 -1.000000 0.759333 0.570514
-0.167601 0.175692 -0.462717 -0.000000 -0.000000 -1.000000 0.702681 0.574708
-0.232665 0.232665 -0.462717 -0.000000 -0.000000 -1.000000 0.730173 0.543312
-0.167601 0.232665 -0.462717 -0.000000 -0.000000 -1.000000 0.730173 0.574708
0.232665 0.232665 -0.462717 0.000000 0.000000 -1.000000 0.787817 0.570524
0.176292 0.175691 -0.462717 0.000000 0.000000 -1.000000 0.760334 0.543312
0.176292 0.232665 -0.462717 0.000000 0.000000 -1.000000 0.787826 0.543322
-0.232665 -0.232665 -0.030328 -0.000000 -1.000000 -0.000000 0.140233 0.983863
-0.167601 -0.232665 -0.462717 -0.000000 -1.000000 -0.000000 0.171630 -0.616716
-0.167601 -0.232665 -0.030328 -0.000000 -1.000000 -0.000000 0.171628 0.983863
0.176292 -0.174288 -0.030328 -1.000000 0.000000 0.000000 0.435317 0.973384
0.176292 -0.232665 -0.462717 -1.000000 0.000000 0.000000 0.463300 -0.616703
0.176292 -0.232665 -0.030328 -1.000000 0.000000 0.000000 0.463300 0.973384
0.232665 0.175691 -0.030328 1.000000 0.000000 0.000000 0.574970 0.966884
0.232665 0.232665 -0.462717 1.000000 0.000000 0.000000 0.602612 -0.616675
0.232665 0.232665 -0.030328 1.000000 0.000000 0.000000 0.602612 0.966891
0.176292 0.175691 -0.030328 -0.000000 -1.000000 -0.000000 0.547329 0.966871
0.232665 0.175691 -0.462717 -0.000000 -1.000000 -0.000000 0.574970 -0.616683
0.232665 0.175691 -0.030328 -0.000000 -1.000000 -0.000000 0.574970 0.966884
0.176292 0.232665 -0.030328 -1.000000 0.000000 0.000000 0.519688 0.966863
0.176292 0.175691 -0.462717 -1.000000 0.000000 0.000000 0.547329 -0.616695
0.176292 0.175691 -0.030328 -1.000000 0.000000 0.000000 0.547329 0.966871
0.232665 0.232665 -0.030328 0.000000 1.000000 0.000000 0.492047 0.966850
0.176292 0.232665 -0.462717 0.000000 1.000000 0.000000 0.519688 -0.616703
0.176292 0.232665 -0.030328 0.000000 1.000000 0.000000 0.519688 0.966863
-0.167601 0.175692 -0.030328 1.000000 -0.000000 0.000000 0.319471 0.977811
-0.167601 0.232665 -0.462717 1.000000 -0.000000 0.000000 0.347304 -0.616701
-0.167601 0.232665 -0.030328 1.000000 -0.000000 0.000000 0.347304 0.977819
-0.232665 0.232665 -0.030328 -1.000000 0.000000 0.000000 0.260363 0.977804
-0.232665 0.175692 -0.462717 -1.000000 0.000000 0.000000 0.288188 -0.616708
-0.232665 0.175692 -0.030328 -1.000000 0.000000 0.000000 0.288196 0.977811
-0.167601 -0.232665 -0.030328 1.000000 -0.000000 0.000000 0.171628 0.983863
-0.167601 -0.174288 -0.462717 1.000000 -0.000000 0.000000 0.199796 -0.616716
-0.167601 -0.174288 -0.030328 1.000000 -0.000000 0.000000 0.199796 0.983863
0.176292 -0.232665 -0.030328 -0.000000 -1.000000 -0.000000 0.463300 0.973384
0.232665 -0.232665 -0.462717 -0.000000 -1.000000 -0.000000 0.491055 -0.616690
0.232665 -0.232665 -0.030328 -0.000000 -1.000000 -0.000000 0.491055 0.973397
-0.167601 -0.174288 -0.030328 -0.000000 1.000000 0.000000 0.199796 0.983863
-0.232665 -0.174288 -0.462717 -0.000000 1.000000 0.000000 0.231198 -0.616716
-0.232665 -0.174288 -0.030328 -0.000000 1.000000 0.000000 0.231190 0.983863
-0.232665 -0.174288 -0.030328 -1.000000 0.000000 0.000000 0.231190 0.983863
-0.232665 -0.232665 -0.462717 -1.000000 0.000000 0.000000 0.259364 -0.616716
-0.232665 -0.232665 -0.030328 -1.000000 0.000000 0.000000 0.259358 0.983863
-0.167601 -0.174288 0.599079 0.000000 -0.000000 1.000000 0.701689 0.510925
-0.232665 -0.232665 0.599079 0.000000 -0.000000 1.000000 0.673521 0.542320
-0.167601 -0.232665 0.599079 0.000000 -0.000000 1.000000 0.673521 0.510925
-0.167601 0.175691 0.599079 0.000000 -0.000000 1.000000 0.870565 0.510925
-0.232665 -0.174288 0.599079 0.000000 -0.000000 1.000000 0.701689 0.542320
-0.232665 0.232665 0.599079 0.000000 0.000000 1.000000 0.898056 0.542320
-0.167601 0.232665 0.599079 0.000000 0.000000 1.000000 0.898056 0.510925
-0.232665 0.232665 0.030328 0.000000 1.000000 -0.000000 0.637570 -0.616629
-0.167601 0.232665 0.599079 0.000000 1.000000 -0.000000 0.603604 1.329316
-0.167601 0.232665 0.030328 0.000000 1.000000 -0.000000 0.603604 -0.616716
-0.167601 0.232665 0.030328 1.000000 -0.000000 0.000000 0.139235 -0.616416
-0.167601 0.175691 0.599079 1.000000 -0.000000 0.000000 0.103867 1.409889
-0.167601 0.175691 0.030328 1.000000 -0.000000 0.000000 0.103866 -0.616572
-0.232665 0.175691 0.599079 -1.000000 0.000000 0.000000 -0.297853 1.616698
-0.167601 -0.174288 0.599079 1.000000 -0.000000 0.000000 -0.058678 1.409889
-0.167601 -0.232665 0.030328 -0.000000 -1.000000 0.000000 0.672529 -0.616630
-0.232665 -0.232665 0.599079 -0.000000 -1.000000 0.000000 0.638562 1.329316
-0.232665 -0.232665 0.030328 -0.000000 -1.000000 0.000000 0.638562 -0.616716
0.232665 -0.174288 -0.462717 0.000000 1.000000 0.000000 0.407565 -0.616716
-0.232665 -0.232665 0.599079 -1.000000 -0.000000 -0.000000 -0.104495 1.616716
0.232665 -0.174289 0.030328 1.000000 -0.000001 0.000002 0.701689 0.284405
0.232665 -0.232665 0.030328 1.000000 -0.000001 0.000002 0.673521 0.284405
0.232665 -0.232665 -0.030328 1.000000 -0.000001 0.000002 0.673521 0.059869
-0.167601 -0.232665 0.030328 -0.000000 -1.000000 0.000001 0.704916 0.058877
-0.232665 -0.232665 0.030328 -0.000000 -1.000000 0.000001 0.673521 0.058877
-0.232665 -0.232665 -0.030328 -0.000000 -1.000000 0.000001 0.673521 -0.165660
-0.232665 0.175691 0.030328 -1.000000 0.000000 -0.000001 -0.305425 -0.362532
-0.167601 0.232665 -0.030328 -0.000000 1.000000 0.000001 0.704916 -0.392180
-0.232665 0.232665 -0.030328 -0.000000 1.000000 0.000001 0.673521 -0.392180
-0.232665 0.232665 0.030328 -0.000000 1.000000 0.000001 0.673521 -0.616716
0.232665 -0.232665 0.030328 -0.000001 -1.000000 -0.000002 0.898057 0.058877
0.176292 -0.232665 0.030328 -0.000001 -1.000000 -0.000002 0.870855 0.058877
0.176292 -0.232665 -0.030328 -0.000001 -1.000000 -0.000002 0.870855 -0.165660
-0.167601 0.232665 -0.462717 0.000000 1.000000 0.000000 0.347304 -0.616701
0.176292 -0.232665 0.030328 -0.000000 -1.000000 0.000000 0.870855 0.058877
-0.167601 -0.174288 0.030328 -0.000000 0.000000 1.000000 0.866661 0.481764
-0.167601 -0.232665 -0.030328 0.000000 -0.000000 -1.000000 0.673521 -0.359792
0.232665 -0.174288 -0.030328 0.000000 0.000000 -1.000000 0.701689 -0.166652
0.232665 0.175691 0.030328 1.000000 -0.000001 0.000002 0.870565 0.284405
0.232665 -0.174288 -0.030328 1.000000 -0.000001 0.000002 0.701689 0.059869
-0.232665 -0.174288 -0.030328 0.000000 -0.000000 -1.000000 0.701689 -0.391188
-0.232665 0.175692 -0.462717 0.000000 -1.000000 0.000000 0.288188 -0.616708
0.232665 0.232665 0.030328 1.000000 -0.000000 -0.000001 0.898057 0.284405
0.232665 -0.232665 -0.462717 1.000000 0.000000 -0.000000 0.379584 -0.616716
-0.167601 0.232665 0.030328 -0.000000 0.000000 1.000000 0.866661 0.285397
-0.232665 -0.232665 -0.462717 0.000000 0.000000 -1.000000 0.673521 0.543312
0.176292 -0.232665 -0.462717 0.000000 0.000000 -1.000000 0.731164 0.543312
-0.232665 0.175692 -0.462717 0.000000 -0.000000 -1.000000 0.702681 0.543312
0.232665 0.175691 -0.462717 0.000000 0.000000 -1.000000 0.760325 0.570514
-0.232665 -0.232665 -0.462717 0.000000 -1.000000 0.000000 0.140228 -0.616716
0.176292 -0.174288 -0.462717 -1.000000 0.000000 0.000000 0.435319 -0.616703
0.232665 0.175691 -0.462717 1.000000 0.000000 -0.000000 0.574970 -0.616683
0.176292 0.175691 -0.462717 -0.000000 -1.000000 0.000000 0.547329 -0.616695
0.176292 0.232665 -0.462717 -1.000000 0.000000 0.000000 0.519688 -0.616703
0.232665 0.232665 -0.462717 0.000000 1.000000 -0.000000 0.492047 -0.616716
-0.167601 0.175692 -0.462717 1.000000 -0.000000 0.000000 0.319471 -0.616708
-0.232665 0.232665 -0.462717 -1.000000 0.000000 0.000000 0.260356 -0.616716
-0.167601 -0.232665 -0.462717 1.000000 -0.000000 0.000000 0.171630 -0.616716
0.176292 -0.232665 -0.462717 0.000000 -1.000000 0.000000 0.463300 -0.616703
-0.167601 -0.174288 -0.462717 0.000000 1.000000 0.000000 0.199796 -0.616716
-0.232665 -0.174288 -0.462717 -1.000000 0.000000 0.000000 0.231198 -0.616716
-0.232665 0.175691 0.599079 -0.000000 0.000000 1.000000 0.870565 0.542320
-0.232665 0.232665 0.599079 0.000000 1.000000 0.000000 0.637570 1.329402
-0.167601 0.232665 0.599079 1.000000 -0.000000 0.000000 0.139236 1.410044
-0.167601 -0.232665 0.599079 -0.000000 -1.000000 -0.000000 0.672529 1.329402
3 0 1 2
3 3 4 5
3 6 7 8
3 9 10 11
3 12 13 14
3 15 16 17
3 18 19 20
3 21 22 23
3 24 25 26
3 27 28 29
3 30 17 19
3 31 32 22
3 24 33 34
3 35 36 37
3 38 36 39
3 40 24 41
3 42 37 38
3 41 26 43
3 44 45 46
3 47 48 49
3 50 51 52
3 36 53 39
3 54 55 56
3 57 58 59
3 60 61 62
3 63 43 64
3 65 66 67
3 63 40 41
3 68 39 69
3 70 12 45
3 71 72 73
3 74 75 76
3 77 78 79
3 80 81 82
3 83 84 85
3 86 87 88
3 89 90 91
3 92 93 94
3 95 96 97
3 98 99 100
3 101 102 103
3 104 105 106
3 107 108 109
3 110 111 112
3 113 114 115
3 116 117 118
3 119 120 121
3 122 123 119
3 124 122 125
3 126 127 128
3 129 130 131
3 5 132 50
3 131 133 57
3 134 135 136
3 0 137 1
3 3 138 4
3 139 140 141
3 142 143 144
3 12 145 13
3 146 147 148
3 18 30 19
3 149 150 151
3 24 34 25
3 27 152 28
3 30 15 17
3 153 9 11
3 24 154 33
3 35 155 36
3 38 37 36
3 40 154 24
3 42 156 37
3 41 24 26
3 44 70 45
3 157 139 158
3 50 132 51
3 36 159 53
3 54 160 55
3 57 133 58
3 161 47 49
3 63 41 43
3 65 162 66
3 63 163 40
3 68 38 39
3 70 145 12
3 71 164 72
3 74 165 75
3 77 166 78
3 80 167 81
3 83 168 84
3 86 169 87
3 89 170 90
3 92 171 93
3 95 172 96
3 98 173 99
3 101 174 102
3 104 175 105
3 107 176 108
3 110 177 111
3 113 178 114
3 116 179 117
3 119 123 120
3 122 180 123
3 124 180 122
3 126 181 127
3 129 182 130
3 5 4 132
3 131 130 133
3 134 183 135
