ply
format ascii 1.0
comment Created by Blender 2.78 (sub 0) - www.blender.org, source file: 'Key.blend'
element vertex 190
property float x
property float y
property float z
property float nx
property float ny
property float nz
property uchar red
property uchar green
property uchar blue
element face 132
property list uchar uint vertex_indices
end_header
0.100000 0.707107 0.707107 0.000000 0.843704 0.536808 246 230 92
-0.100000 0.840555 0.497365 0.000000 0.843704 0.536808 246 230 92
-0.100000 0.707107 0.707107 0.000000 0.843704 0.536808 246 230 92
0.100000 -0.141453 0.202351 1.000000 0.000000 0.000000 246 230 92
0.100000 -0.000000 -1.000000 1.000000 0.000000 0.000000 246 230 92
0.100000 0.707107 -0.707107 1.000000 0.000000 0.000000 246 230 92
0.100000 -0.356154 0.113419 1.000000 -0.000000 0.000000 246 230 92
0.100000 -0.707107 -0.707107 1.000000 -0.000000 0.000000 246 230 92
0.100000 -0.570855 0.202351 1.000000 -0.000000 0.000000 246 230 92
0.100000 -1.000000 0.000000 1.000000 -0.000000 0.000000 246 230 92
0.100000 -0.659787 0.417052 1.000000 -0.000000 0.000000 246 230 92
0.100000 -0.707107 0.707107 1.000000 -0.000000 0.000000 246 230 92
0.100000 -0.356154 0.720684 1.000000 -0.000000 0.000001 246 230 92
0.100000 -0.707107 0.707107 1.000000 -0.000000 0.000001 246 230 92
0.100000 -0.570855 0.631753 1.000000 -0.000000 0.000001 246 230 92
0.100000 -0.141454 0.631752 1.000000 0.000000 0.000000 246 230 92
0.100000 0.000000 1.000000 1.000000 0.000000 0.000000 246 230 92
0.100000 -0.356154 0.720684 1.000000 0.000000 0.000000 246 230 92
0.100000 0.840556 -0.272501 1.000000 0.000000 0.000000 246 230 92
0.100000 0.612651 0.265915 1.000000 0.000000 0.000000 246 230 92
-0.100000 0.707107 0.707107 -1.000000 0.000000 -0.000000 246 230 92
-0.100000 0.612651 0.265915 -1.000000 0.000000 -0.000000 246 230 92
-0.100000 -0.052522 0.417052 -1.000000 0.000000 -0.000000 246 230 92
-0.100000 -0.141453 0.202351 -1.000000 0.000000 -0.000000 246 230 92
-0.100000 -0.000000 -1.000000 -1.000000 0.000000 -0.000000 246 230 92
-0.100000 -0.356154 0.113419 -1.000000 0.000000 -0.000000 246 230 92
-0.100000 -0.707107 -0.707107 -1.000000 -0.000000 -0.000000 246 230 92
-0.100000 -0.570855 0.202351 -1.000000 -0.000000 -0.000000 246 230 92
-0.100000 -1.000000 0.000000 -1.000000 -0.000000 -0.000000 246 230 92
-0.100000 -0.659787 0.417052 -1.000000 -0.000000 -0.000000 246 230 92
-0.100000 -0.707107 0.707107 -1.000000 -0.000000 0.000000 246 230 92
-0.100000 -0.570855 0.631753 -1.000000 -0.000000 0.000000 246 230 92
-0.100000 -0.356154 0.720684 -1.000000 -0.000000 0.000000 246 230 92
-0.100000 0.000000 1.000000 -1.000000 0.000000 0.000000 246 230 92
-0.100000 -0.141454 0.631752 -1.000000 0.000000 0.000000 246 230 92
-0.100000 -0.141453 0.202351 -0.000000 -0.382683 0.923880 246 230 92
0.100000 -0.356154 0.113419 -0.000000 -0.382683 0.923880 246 230 92
0.100000 -0.141453 0.202351 -0.000000 -0.382683 0.923880 246 230 92
-0.100000 -0.052522 0.417052 0.000000 -0.923880 0.382683 246 230 92
0.100000 -0.141453 0.202351 0.000000 -0.923880 0.382683 246 230 92
0.100000 -0.052522 0.417052 0.000000 -0.923880 0.382683 246 230 92
-0.100000 -0.141454 0.631752 0.000000 -0.923880 -0.382683 246 230 92
0.100000 -0.052522 0.417052 0.000000 -0.923880 -0.382683 246 230 92
0.100000 -0.141454 0.631752 0.000000 -0.923880 -0.382683 246 230 92
-0.100000 -0.356154 0.720684 0.000000 -0.382683 -0.923880 246 230 92
0.100000 -0.141454 0.631752 0.000000 -0.382683 -0.923880 246 230 92
0.100000 -0.356154 0.720684 0.000000 -0.382683 -0.923880 246 230 92
-0.100000 -0.570855 0.631753 0.000000 0.382683 -0.923880 246 230 92
0.100000 -0.356154 0.720684 0.000000 0.382683 -0.923880 246 230 92
0.100000 -0.570855 0.631753 0.000000 0.382683 -0.923880 246 230 92
-0.100000 -0.659787 0.417052 0.000000 0.923880 -0.382683 246 230 92
0.100000 -0.570855 0.631753 0.000000 0.923880 -0.382683 246 230 92
0.100000 -0.659787 0.417052 0.000000 0.923880 -0.382683 246 230 92
-0.100000 -0.570855 0.202351 -0.000000 0.923879 0.382684 246 230 92
0.100000 -0.659787 0.417052 -0.000000 0.923879 0.382684 246 230 92
0.100000 -0.570855 0.202351 -0.000000 0.923879 0.382684 246 230 92
-0.100000 -0.356154 0.113419 -0.000000 0.382683 0.923880 246 230 92
0.100000 -0.570855 0.202351 -0.000000 0.382683 0.923880 246 230 92
0.100000 -0.356154 0.113419 -0.000000 0.382683 0.923880 246 230 92
0.100000 0.000000 1.000000 0.000000 -0.382683 0.923880 246 230 92
-0.100000 -0.707107 0.707107 0.000000 -0.382683 0.923880 246 230 92
0.100000 -0.707107 0.707107 0.000000 -0.382683 0.923880 246 230 92
0.100000 -0.707107 0.707107 -0.000000 -0.923880 0.382684 246 230 92
-0.100000 -1.000000 0.000000 -0.000000 -0.923880 0.382684 246 230 92
0.100000 -1.000000 0.000000 -0.000000 -0.923880 0.382684 246 230 92
0.100000 -1.000000 0.000000 -0.000000 -0.923880 -0.382683 246 230 92
-0.100000 -0.707107 -0.707107 -0.000000 -0.923880 -0.382683 246 230 92
0.100000 -0.707107 -0.707107 -0.000000 -0.923880 -0.382683 246 230 92
0.100000 -0.707107 -0.707107 -0.000000 -0.382683 -0.923880 246 230 92
-0.100000 -0.000000 -1.000000 -0.000000 -0.382683 -0.923880 246 230 92
0.100000 -0.000000 -1.000000 -0.000000 -0.382683 -0.923880 246 230 92
0.100000 -0.000000 -1.000000 0.000000 0.382683 -0.923880 246 230 93
-0.100000 0.707107 -0.707107 0.000000 0.382683 -0.923880 246 230 92
0.100000 0.707107 -0.707107 0.000000 0.382683 -0.923880 246 230 92
0.100000 0.840555 0.497365 1.000000 0.000000 0.000000 246 230 92
0.100000 0.707107 0.707107 1.000000 0.000000 0.000000 246 230 92
-0.100000 0.840555 -0.272501 -1.000000 0.000000 -0.000000 246 230 92
-0.100000 0.707107 -0.707107 -1.000000 0.000000 -0.000000 246 230 92
0.100000 0.707107 0.707107 0.000000 0.382683 0.923880 246 230 92
-0.100000 0.000000 1.000000 0.000000 0.382683 0.923880 246 230 92
0.100000 0.000000 1.000000 0.000000 0.382683 0.923880 246 230 92
-0.100000 0.840555 0.497365 -1.000000 0.000000 -0.000000 246 230 92
0.100000 3.061213 -0.168016 0.000001 -0.482456 -0.875920 246 230 92
-0.100000 3.310722 -0.305446 0.000001 -0.482456 -0.875920 246 230 92
0.100000 3.310723 -0.305446 0.000001 -0.482456 -0.875920 246 230 92
0.100000 0.707107 -0.707107 -0.000000 0.955949 -0.293531 246 230 92
-0.100000 0.840555 -0.272501 -0.000000 0.955949 -0.293531 246 230 92
0.100000 0.840556 -0.272501 -0.000000 0.955949 -0.293531 246 230 92
-0.100000 3.431323 0.375466 -0.000000 0.720779 0.693165 246 230 92
0.099999 3.799001 -0.006859 -0.000000 0.720779 0.693165 246 230 92
-0.100001 3.799001 -0.006859 -0.000000 0.720779 0.693165 246 230 92
-0.100000 3.061213 -0.168016 -1.000000 -0.000000 -0.000000 246 230 92
-0.100000 3.431323 0.375466 -1.000000 -0.000000 -0.000000 246 230 92
-0.100000 3.310722 -0.305446 -1.000000 -0.000000 -0.000000 246 230 92
-0.100000 3.061213 0.392880 -0.000000 0.046999 0.998895 246 230 92
0.100000 3.431323 0.375466 -0.000000 0.046999 0.998895 246 230 92
-0.100000 3.431323 0.375466 -0.000000 0.046999 0.998895 246 230 92
0.100000 3.061213 -0.168016 1.000000 0.000000 0.000000 246 230 92
0.100000 3.431323 0.375466 1.000000 0.000000 0.000000 246 230 92
0.100000 3.061213 0.392880 1.000000 0.000000 0.000000 246 230 92
0.100000 1.210665 0.479951 1.000000 0.000000 0.000000 246 230 92
-0.100001 3.799001 -0.006859 -1.000000 -0.000000 -0.000000 246 230 92
0.100000 1.580775 -0.237673 1.000000 0.000000 0.000000 246 230 92
0.100000 1.580775 0.462537 1.000000 0.000000 0.000000 246 230 92
0.100000 3.310723 -0.305446 1.000000 0.000000 0.000000 246 230 92
0.099999 3.799001 -0.006859 1.000000 0.000000 0.000000 246 230 92
0.100000 3.310723 -0.305446 0.000000 0.521698 -0.853131 246 230 92
-0.100001 3.799001 -0.006859 0.000000 0.521698 -0.853131 246 230 92
0.099999 3.799001 -0.006859 0.000000 0.521698 -0.853131 246 230 92
0.100000 1.950884 0.445123 1.000000 0.000000 0.000000 246 230 92
0.100000 2.295953 -0.007274 1.000000 0.000000 0.000000 246 230 92
0.100000 2.320994 0.427708 1.000000 0.000000 0.000000 246 230 92
0.100000 2.691103 0.410294 1.000000 0.000000 0.000000 246 230 92
-0.100000 0.840555 0.497365 -0.000000 0.046999 0.998895 246 230 92
0.100000 1.210665 0.479951 -0.000000 0.046999 0.998895 246 230 92
-0.100000 1.210665 0.479951 -0.000000 0.046999 0.998895 246 230 92
0.100000 1.580775 0.462537 -0.000000 0.046999 0.998895 246 230 92
-0.100000 1.580775 0.462537 -0.000000 0.046999 0.998895 246 230 92
0.100000 1.950884 0.445123 -0.000000 0.046999 0.998895 246 230 92
-0.100000 1.950884 0.445123 -0.000000 0.046999 0.998895 246 230 92
0.100000 2.320994 0.427708 -0.000000 0.046999 0.998895 246 230 92
-0.100000 2.320994 0.427708 -0.000000 0.046999 0.998895 246 230 92
0.100000 2.691103 0.410294 -0.000000 0.046999 0.998895 246 230 92
-0.100000 2.691103 0.410294 -0.000000 0.046999 0.998895 246 230 92
0.100000 3.061213 0.392880 -0.000000 0.046999 0.998895 246 230 92
-0.100000 1.210665 0.479951 -1.000000 -0.000000 -0.000000 246 230 92
-0.100000 1.210665 -0.417022 -1.000000 -0.000000 -0.000000 246 230 92
-0.100000 1.580775 -0.237673 -1.000000 -0.000000 -0.000000 246 230 92
-0.100000 1.950884 0.445123 -1.000000 -0.000000 -0.000000 246 230 92
-0.100000 2.094664 -0.375044 -1.000000 -0.000000 -0.000000 246 230 92
-0.100000 2.295952 -0.007274 -1.000000 -0.000000 -0.000000 246 230 92
-0.100000 2.691103 0.410294 -1.000000 -0.000000 -0.000000 246 230 92
-0.100000 2.691187 -0.284218 -1.000000 -0.000000 -0.000000 246 230 92
0.100000 0.840556 -0.272501 0.000000 -0.363734 -0.931503 246 230 92
-0.100000 1.210665 -0.417022 0.000000 -0.363734 -0.931503 246 230 92
0.100000 1.210665 -0.417022 0.000000 -0.363734 -0.931503 246 230 92
0.100000 1.210665 -0.417022 -0.000000 0.436080 -0.899908 246 230 92
-0.100000 1.580775 -0.237673 -0.000000 0.436080 -0.899908 246 230 92
0.100000 1.580775 -0.237673 -0.000000 0.436080 -0.899908 246 230 92
0.100000 1.580775 -0.237673 0.000000 -0.258249 -0.966078 246 230 92
-0.100000 2.094664 -0.375044 0.000000 -0.258249 -0.966078 246 230 92
0.100000 2.094664 -0.375044 0.000000 -0.258249 -0.966078 246 230 92
0.100000 2.094664 -0.375044 -0.000002 0.877206 -0.480114 246 230 92
-0.100000 2.295952 -0.007274 -0.000002 0.877206 -0.480114 246 230 92
0.100000 2.295953 -0.007274 -0.000002 0.877206 -0.480114 246 230 92
0.100000 2.295953 -0.007274 0.000001 -0.573850 -0.818960 246 230 92
-0.100000 2.691187 -0.284218 0.000001 -0.573850 -0.818960 246 230 92
0.100000 2.691187 -0.284218 0.000001 -0.573850 -0.818960 246 230 92
0.100000 2.691187 -0.284218 -0.000001 0.299610 -0.954062 246 230 92
-0.100000 3.061213 -0.168016 -0.000001 0.299610 -0.954062 246 230 92
0.100000 3.061213 -0.168016 -0.000001 0.299610 -0.954062 246 230 92
0.100000 0.840555 0.497365 -0.000000 0.843704 0.536808 246 230 92
0.100000 -0.570855 0.631753 1.000000 -0.000000 0.000000 246 230 92
0.100000 0.000000 1.000000 1.000000 -0.000000 0.000001 246 230 92
0.100000 -0.052522 0.417052 1.000000 0.000000 0.000000 246 230 92
-0.100000 -0.356154 0.113419 -0.000000 -0.382683 0.923880 246 230 92
-0.100000 -0.141453 0.202351 -0.000000 -0.923880 0.382683 246 230 92
-0.100000 -0.052522 0.417052 -0.000000 -0.923880 -0.382683 246 230 92
-0.100000 -0.141454 0.631752 -0.000000 -0.382683 -0.923880 246 230 92
-0.100000 -0.356154 0.720684 0.000000 0.382683 -0.923880 246 230 92
-0.100000 -0.570855 0.631753 0.000000 0.923880 -0.382683 246 230 92
-0.100000 -0.659787 0.417052 0.000000 0.923879 0.382684 246 230 92
-0.100000 -0.570855 0.202351 -0.000000 0.382683 0.923880 246 230 92
-0.100000 0.000000 1.000000 0.000000 -0.382683 0.923880 246 230 92
-0.100000 -0.707107 0.707107 0.000000 -0.923880 0.382684 246 230 92
-0.100000 -1.000000 0.000000 0.000000 -0.923880 -0.382683 246 230 92
-0.100000 -0.707107 -0.707107 0.000000 -0.382683 -0.923880 246 230 92
-0.100000 -0.000000 -1.000000 0.000000 0.382683 -0.923880 246 230 92
-0.100000 0.707107 0.707107 -0.000000 0.382683 0.923880 246 230 92
-0.100000 3.061213 -0.168016 0.000001 -0.482456 -0.875920 246 230 92
-0.100000 0.707107 -0.707107 0.000000 0.955949 -0.293531 246 230 92
0.100000 3.431323 0.375466 0.000000 0.720779 0.693165 246 230 92
-0.100000 3.061213 0.392880 -1.000000 -0.000000 -0.000000 246 230 92
0.100000 1.210665 -0.417022 1.000000 0.000000 0.000000 246 230 92
0.100000 3.310723 -0.305446 -0.000001 0.521697 -0.853131 246 230 92
-0.100000 3.310722 -0.305446 -0.000001 0.521697 -0.853131 246 230 92
-0.100001 3.799001 -0.006859 -0.000001 0.521697 -0.853131 246 230 92
0.100000 2.094664 -0.375044 1.000000 0.000000 0.000000 246 230 92
0.100000 2.691187 -0.284218 1.000000 0.000000 0.000000 246 230 92
0.100000 0.840555 0.497365 0.000000 0.046999 0.998895 246 230 92
-0.100000 1.580775 0.462537 -1.000000 -0.000000 -0.000000 246 230 92
-0.100000 2.320994 0.427708 -1.000000 -0.000000 -0.000000 246 230 92
-0.100000 0.840555 -0.272501 0.000000 -0.363734 -0.931503 246 230 92
-0.100000 1.210665 -0.417022 -0.000000 0.436080 -0.899908 246 230 92
-0.100000 1.580775 -0.237673 0.000000 -0.258249 -0.966078 246 230 92
0.100000 2.094664 -0.375044 -0.000001 0.877207 -0.480113 246 230 92
-0.100000 2.094664 -0.375044 -0.000001 0.877207 -0.480113 246 230 92
-0.100000 2.295952 -0.007274 -0.000001 0.877207 -0.480113 246 230 92
-0.100000 2.295952 -0.007274 0.000001 -0.573850 -0.818960 246 230 92
-0.100000 2.691187 -0.284218 -0.000001 0.299610 -0.954062 246 230 92
3 0 1 2
3 3 4 5
3 6 7 4
3 8 9 7
3 10 11 9
3 12 13 14
3 15 16 17
3 3 18 19
3 20 21 22
3 23 24 25
3 25 26 27
3 27 28 29
3 29 30 31
3 30 32 31
3 33 34 32
3 35 36 37
3 38 39 40
3 41 42 43
3 44 45 46
3 47 48 49
3 50 51 52
3 53 54 55
3 56 57 58
3 59 60 61
3 62 63 64
3 65 66 67
3 68 69 70
3 71 72 73
3 19 74 75
3 76 77 23
3 78 79 80
3 18 74 19
3 81 76 21
3 82 83 84
3 85 86 87
3 88 89 90
3 91 92 93
3 94 95 96
3 97 98 99
3 18 100 74
3 93 92 101
3 100 102 103
3 98 104 105
3 106 107 108
3 102 109 103
3 109 110 111
3 110 112 111
3 112 97 99
3 113 114 115
3 115 116 117
3 117 118 119
3 119 120 121
3 121 122 123
3 123 124 94
3 76 125 126
3 125 127 126
3 127 128 129
3 128 130 129
3 130 131 132
3 131 91 132
3 133 134 135
3 136 137 138
3 139 140 141
3 142 143 144
3 145 146 147
3 148 149 150
3 0 151 1
3 3 6 4
3 6 8 7
3 8 10 9
3 10 152 11
3 12 153 13
3 15 75 16
3 19 154 3
3 3 5 18
3 22 34 20
3 20 81 21
3 23 77 24
3 25 24 26
3 27 26 28
3 29 28 30
3 30 33 32
3 33 20 34
3 35 155 36
3 38 156 39
3 41 157 42
3 44 158 45
3 47 159 48
3 50 160 51
3 53 161 54
3 56 162 57
3 59 163 60
3 62 164 63
3 65 165 66
3 68 166 69
3 71 167 72
3 75 15 154
3 154 19 75
3 23 22 21
3 21 76 23
3 78 168 79
3 82 169 83
3 85 170 86
3 88 171 89
3 91 172 92
3 94 124 95
3 97 104 98
3 18 173 100
3 100 173 102
3 174 175 176
3 102 177 109
3 109 177 110
3 110 178 112
3 112 178 97
3 113 179 114
3 115 114 116
3 117 116 118
3 119 118 120
3 121 120 122
3 123 122 124
3 76 81 125
3 125 180 127
3 127 180 128
3 128 181 130
3 130 181 131
3 131 172 91
3 133 182 134
3 136 183 137
3 139 184 140
3 185 186 187
3 145 188 146
3 148 189 149
