ply
format ascii 1.0
element vertex 74
property float x
property float y
property float z
property float nx
property float ny
property float nz
property uchar red
property uchar green
property uchar blue
element face 36
property list uchar uint vertex_indices
end_header
1.000000 1.000000 -0.424020 0.000000 1.000000 0.000000 15 27 255
-1.000000 1.000000 1.000000 0.000000 1.000000 0.000000 255 2 10
1.000000 0.999999 1.000000 0.000000 1.000000 0.000000 255 2 10
-0.679799 0.679798 0.794489 0.000000 0.000000 1.000000 255 2 10
0.679798 -0.679799 0.794489 0.000000 0.000000 1.000000 255 2 10
0.679799 0.679798 0.794489 0.000000 0.000000 1.000000 255 26 33
0.999999 -1.000001 1.000000 -0.000000 -1.000000 -0.000000 255 2 10
-1.000000 -1.000000 -0.424020 -0.000000 -1.000000 -0.000000 15 27 255
1.000000 -1.000000 -0.424020 -0.000000 -1.000000 -0.000000 15 27 255
-1.000000 -1.000000 1.000000 -1.000000 0.000000 -0.000000 255 2 10
-1.000000 1.000000 -0.424020 -1.000000 0.000000 -0.000000 15 27 255
-1.000000 -1.000000 -0.424020 -1.000000 0.000000 -0.000000 15 27 255
1.000000 0.999999 1.000000 1.000000 -0.000000 -0.000000 255 2 10
1.000000 -1.000000 -0.424020 1.000000 -0.000000 -0.000000 15 27 255
1.000000 1.000000 -0.424020 1.000000 -0.000000 -0.000000 15 27 255
0.807788 -0.807789 1.377244 0.891010 -0.000001 0.453984 255 2 10
1.000000 0.999999 1.000000 0.891010 -0.000001 0.453984 255 2 10
0.807788 0.807788 1.377244 0.891010 -0.000001 0.453984 255 2 10
0.807788 0.807788 1.377244 0.000000 0.891010 0.453984 255 2 10
-1.000000 1.000000 1.000000 0.000000 0.891010 0.453984 255 2 10
-0.807788 0.807788 1.377244 0.000000 0.891010 0.453984 255 2 10
0.807788 -0.807789 1.377244 -0.000000 -0.891010 0.453984 255 2 10
-1.000000 -1.000000 1.000000 -0.000000 -0.891010 0.453984 255 2 10
0.999999 -1.000001 1.000000 -0.000000 -0.891010 0.453984 255 2 10
-0.807788 0.807788 1.377244 -0.891010 0.000000 0.453984 255 2 10
-1.000000 -1.000000 1.000000 -0.891010 0.000000 0.453984 255 2 10
-0.807788 -0.807788 1.377244 -0.891010 0.000000 0.453984 255 2 10
0.679798 -0.679799 0.794489 -0.976721 0.000001 0.214516 255 2 10
0.807788 0.807788 1.377244 -0.976721 0.000001 0.214516 255 2 10
0.679799 0.679798 0.794489 -0.976721 0.000001 0.214516 255 26 33
0.679799 0.679798 0.794489 -0.000000 -0.976721 0.214516 255 26 33
-0.807788 0.807788 1.377244 -0.000000 -0.976721 0.214516 255 2 10
-0.679799 0.679798 0.794489 -0.000000 -0.976721 0.214516 255 2 10
-0.679799 -0.679798 0.794489 0.000000 0.976721 0.214516 255 2 10
0.807788 -0.807789 1.377244 0.000000 0.976721 0.214516 255 2 10
0.679798 -0.679799 0.794489 0.000000 0.976721 0.214516 255 2 10
-0.679799 0.679798 0.794489 0.976721 -0.000000 0.214516 255 2 10
-0.807788 -0.807788 1.377244 0.976721 -0.000000 0.214516 255 2 10
-0.679799 -0.679798 0.794489 0.976721 -0.000000 0.214516 255 2 10
1.000000 1.000000 -0.424020 0.707107 0.000000 -0.707107 15 27 255
0.424020 -0.424020 -1.000000 0.707107 0.000000 -0.707107 6 227 255
0.424020 0.424020 -1.000000 0.707107 0.000000 -0.707107 6 223 255
-0.424019 0.424020 -1.000000 0.000000 0.707107 -0.707107 7 213 255
1.000000 1.000000 -0.424020 0.000000 0.707107 -0.707107 15 27 255
0.424020 0.424020 -1.000000 0.000000 0.707107 -0.707107 6 223 255
-1.000000 -1.000000 -0.424020 -0.000000 -0.707107 -0.707107 15 27 255
0.424020 -0.424020 -1.000000 -0.000000 -0.707107 -0.707107 6 227 255
1.000000 -1.000000 -0.424020 -0.000000 -0.707107 -0.707107 15 27 255
-1.000000 1.000000 -0.424020 -0.707107 0.000000 -0.707107 15 27 255
-0.424020 -0.424020 -1.000000 -0.707107 0.000000 -0.707107 7 207 255
-1.000000 -1.000000 -0.424020 -0.707107 0.000000 -0.707107 15 27 255
0.424020 -0.424020 -1.000000 -0.000000 -0.000000 -1.000000 6 227 255
-0.424019 0.424020 -1.000000 -0.000000 -0.000000 -1.000000 7 213 255
0.424020 0.424020 -1.000000 -0.000000 -0.000000 -1.000000 6 223 255
-1.000000 1.000000 -0.424020 0.000000 1.000000 0.000000 15 27 255
-0.679799 -0.679798 0.794489 0.000000 -0.000000 1.000000 255 2 10
-1.000000 -1.000000 1.000000 -0.000000 -1.000000 0.000000 255 5 13
-1.000000 1.000000 1.000000 -1.000000 0.000000 -0.000000 255 2 10
1.000000 0.999999 1.000000 1.000000 -0.000001 0.000000 255 2 10
0.999999 -1.000001 1.000000 1.000000 -0.000001 0.000000 255 2 10
1.000000 -1.000000 -0.424020 1.000000 -0.000001 0.000000 15 27 255
0.999999 -1.000001 1.000000 0.891010 -0.000001 0.453984 255 2 10
1.000000 0.999999 1.000000 0.000000 0.891010 0.453984 255 2 10
-0.807788 -0.807788 1.377244 -0.000000 -0.891010 0.453984 255 2 10
-1.000000 1.000000 1.000000 -0.891010 0.000000 0.453984 255 2 10
0.807788 -0.807789 1.377244 -0.976721 0.000001 0.214516 255 2 10
0.807788 0.807788 1.377244 -0.000000 -0.976721 0.214516 255 2 10
-0.807788 -0.807788 1.377244 0.000000 0.976721 0.214516 255 2 10
-0.807788 0.807788 1.377244 0.976721 -0.000000 0.214516 255 2 10
1.000000 -1.000000 -0.424020 0.707107 -0.000000 -0.707107 15 27 255
-1.000000 1.000000 -0.424020 0.000000 0.707107 -0.707107 15 27 255
-0.424020 -0.424020 -1.000000 -0.000000 -0.707107 -0.707107 11 211 255
-0.424019 0.424020 -1.000000 -0.707107 0.000000 -0.707107 7 213 255
-0.424020 -0.424020 -1.000000 0.000000 -0.000000 -1.000000 7 207 255
3 0 1 2
3 3 4 5
3 6 7 8
3 9 10 11
3 12 13 14
3 15 16 17
3 18 19 20
3 21 22 23
3 24 25 26
3 27 28 29
3 30 31 32
3 33 34 35
3 36 37 38
3 39 40 41
3 42 43 44
3 45 46 47
3 48 49 50
3 51 52 53
3 0 54 1
3 3 55 4
3 6 56 7
3 9 57 10
3 58 59 60
3 15 61 16
3 18 62 19
3 21 63 22
3 24 64 25
3 27 65 28
3 30 66 31
3 33 67 34
3 36 68 37
3 39 69 40
3 42 70 43
3 45 71 46
3 48 72 49
3 51 73 52
