ply
format ascii 1.0
comment Created by Blender 2.78 (sub 0) - www.blender.org, source file: 'Monster.blend'
element vertex 306
property float x
property float y
property float z
property float nx
property float ny
property float nz
property float s
property float t
element face 156
property list uchar uint vertex_indices
end_header
0.110821 -0.057433 0.022020 0.999992 0.000000 -0.003988 0.340761 0.705178
0.110644 0.058180 -0.022320 0.999992 0.000000 -0.003988 0.437804 0.198003
0.110821 0.058180 0.022020 0.999992 0.000000 -0.003988 0.340761 0.198003
0.110644 -0.057433 -0.022320 0.922346 0.000000 -0.386365 0.437804 0.705178
0.093512 0.058180 -0.063218 0.922346 0.000000 -0.386365 0.520074 0.198003
0.110644 0.058180 -0.022320 0.922346 0.000000 -0.386365 0.437804 0.198003
0.093512 -0.057433 -0.063218 0.704281 0.000000 -0.709921 0.639411 0.705178
0.062033 0.058180 -0.094447 0.704281 0.000000 -0.709921 0.557141 0.198003
0.093512 0.058180 -0.063218 0.704281 0.000000 -0.709921 0.639411 0.198003
0.062033 -0.057433 -0.094447 0.378996 0.000000 -0.925398 0.557141 0.705178
0.021000 0.058180 -0.111252 0.378996 0.000000 -0.925398 0.460097 0.198003
0.062033 0.058180 -0.094447 0.378996 0.000000 -0.925398 0.557141 0.198003
0.021000 -0.057433 -0.111252 -0.003988 0.000000 -0.999992 0.460097 0.705178
-0.023341 0.058180 -0.111075 -0.003988 0.000000 -0.999992 0.363054 0.198003
0.021000 0.058180 -0.111252 -0.003988 0.000000 -0.999992 0.460097 0.198003
-0.023341 -0.057433 -0.111075 -0.386365 0.000000 -0.922346 0.363054 0.705178
-0.064238 0.058180 -0.093943 -0.386365 0.000000 -0.922346 0.280784 0.198003
-0.023341 0.058180 -0.111075 -0.386365 0.000000 -0.922346 0.363054 0.198003
-0.064238 -0.057433 -0.093943 -0.709921 0.000000 -0.704281 0.520074 0.705178
-0.095467 0.058180 -0.062465 -0.709921 0.000000 -0.704281 0.437804 0.198003
-0.064238 0.058180 -0.093943 -0.709921 0.000000 -0.704281 0.520074 0.198003
-0.095467 -0.057433 -0.062465 -0.925398 0.000000 -0.378996 0.437804 0.705178
-0.112272 0.058180 -0.021431 -0.925398 0.000000 -0.378996 0.340761 0.198003
-0.095467 0.058180 -0.062465 -0.925398 0.000000 -0.378996 0.437804 0.198003
-0.112272 -0.057433 -0.021431 -0.999992 -0.000000 0.003988 0.340761 0.705178
-0.112095 0.058180 0.022909 -0.999992 -0.000000 0.003988 0.243717 0.198003
-0.112272 0.058180 -0.021431 -0.999992 -0.000000 0.003988 0.340761 0.198003
-0.112095 -0.057433 0.022909 -0.922346 -0.000000 0.386365 0.243717 0.705178
-0.094963 0.058180 0.063807 -0.922346 -0.000000 0.386365 0.161447 0.198003
-0.112095 0.058180 0.022909 -0.922346 -0.000000 0.386365 0.243717 0.198003
-0.094963 -0.057433 0.063807 -0.704281 -0.000000 0.709921 0.280784 0.705178
-0.063485 0.058180 0.095036 -0.704281 -0.000000 0.709921 0.363054 0.198003
-0.094963 0.058180 0.063807 -0.704281 -0.000000 0.709921 0.280784 0.198003
-0.063485 -0.057433 0.095036 -0.378996 -0.000000 0.925398 0.363054 0.705178
-0.022452 0.058180 0.111841 -0.378996 -0.000000 0.925398 0.460097 0.198003
-0.063485 0.058180 0.095036 -0.378996 -0.000000 0.925398 0.363054 0.198003
0.019273 0.022770 0.111675 0.999992 0.000000 -0.003988 0.612512 0.353339
0.019932 -0.022024 0.277055 0.999992 0.000000 -0.003988 0.250562 0.549842
0.019273 -0.022024 0.111675 0.999992 0.000000 -0.003988 0.612512 0.549842
0.021889 -0.057433 0.111664 0.386365 -0.000000 0.922346 0.557141 0.705178
0.062787 0.058180 0.094532 0.386365 -0.000000 0.922346 0.639411 0.198003
0.021889 0.058180 0.111664 0.386365 -0.000000 0.922346 0.557141 0.198003
-0.094963 -0.057433 0.063807 0.000000 -1.000000 -0.000000 0.161447 0.139018
-0.064238 -0.057433 -0.093943 0.000000 -1.000000 -0.000000 0.520074 0.139018
0.062787 -0.057433 0.094532 0.000000 -1.000000 -0.000000 0.161447 0.497645
0.062787 -0.057433 0.094532 0.709921 -0.000000 0.704281 0.668622 0.705178
0.094016 0.058180 0.063054 0.709921 -0.000000 0.704281 0.750892 0.198003
0.062787 0.058180 0.094532 0.709921 -0.000000 0.704281 0.668622 0.198003
0.094016 -0.057433 0.063054 0.925399 -0.000000 0.378995 0.243717 0.705178
0.110821 0.058180 0.022020 0.925399 -0.000000 0.378995 0.340761 0.198003
0.094016 0.058180 0.063054 0.925399 -0.000000 0.378995 0.243717 0.198003
-0.095467 0.058180 -0.062465 -0.000000 1.000000 0.000000 0.437804 -0.423127
-0.063485 0.058180 0.095036 -0.000000 1.000000 0.000000 0.106477 -0.285887
0.062033 0.058180 -0.094447 -0.000000 1.000000 0.000000 0.575045 -0.091799
-0.019835 0.022770 0.111831 0.003986 0.000000 0.999992 0.465824 0.353339
-0.022452 -0.057433 0.111841 0.003986 0.000000 0.999992 0.460097 0.705178
-0.019835 -0.022024 0.111831 0.003986 0.000000 0.999992 0.465824 0.549842
0.019273 0.022770 0.111675 0.003988 -0.000000 0.999992 0.551414 0.353339
-0.022452 0.058180 0.111841 0.003988 -0.000000 0.999992 0.460097 0.198003
-0.019835 0.022770 0.111831 0.003988 -0.000000 0.999992 0.465824 0.353339
-0.019835 -0.022024 0.111831 0.003988 -0.000000 0.999992 0.465824 0.549842
0.021889 -0.057433 0.111664 0.003988 -0.000000 0.999992 0.557141 0.705178
0.019273 -0.022024 0.111675 0.003988 -0.000000 0.999992 0.551414 0.549842
0.019273 -0.022024 0.111675 0.003986 0.000000 0.999992 0.551414 0.549842
0.021889 0.058180 0.111664 0.003986 0.000000 0.999992 0.557141 0.198003
0.019273 0.022770 0.111675 0.003986 0.000000 0.999992 0.551414 0.353339
0.029513 0.033744 0.277017 0.999992 0.000000 -0.003988 0.254733 -0.201976
0.029641 -0.032997 0.309010 0.999992 0.000000 -0.003988 0.184714 0.090807
0.029513 -0.032997 0.277017 0.999992 0.000000 -0.003988 0.254733 0.090807
-0.019835 0.022770 0.111831 -0.000000 1.000000 0.000000 0.595487 0.324058
0.019932 0.022770 0.277055 -0.000000 1.000000 0.000000 0.250562 0.481645
0.019273 0.022770 0.111675 -0.000000 1.000000 0.000000 0.612512 0.409649
-0.019835 -0.022024 0.111831 0.000000 -1.000000 -0.000000 0.595487 0.324058
0.019932 -0.022024 0.277055 0.000000 -1.000000 -0.000000 0.250562 0.481645
-0.019175 -0.022024 0.277211 0.000000 -1.000000 -0.000000 0.233537 0.396055
-0.019835 -0.022024 0.111831 -0.999992 0.000000 0.003988 0.595487 0.549842
-0.019175 0.022770 0.277211 -0.999992 0.000000 0.003988 0.233537 0.353339
-0.019835 0.022770 0.111831 -0.999992 0.000000 0.003988 0.595487 0.353339
-0.028756 -0.032997 0.277250 -0.003988 0.000000 -0.999992 0.516852 0.090807
-0.019175 0.022770 0.277211 -0.003988 0.000000 -0.999992 0.537820 -0.153835
-0.019175 -0.022024 0.277211 -0.003988 0.000000 -0.999992 0.537820 0.042667
0.029513 0.033744 0.277017 -0.003988 -0.000000 -0.999992 0.644379 0.305199
-0.019175 0.022770 0.277211 -0.003988 -0.000000 -0.999992 0.537820 0.353339
-0.028756 0.033744 0.277250 -0.003988 -0.000000 -0.999992 0.516852 0.305199
0.019932 -0.022024 0.277055 -0.003988 -0.000000 -0.999992 0.623411 0.042667
0.029513 -0.032997 0.277017 -0.003988 -0.000000 -0.999992 0.644379 0.090807
0.029513 -0.032997 0.277017 -0.003988 -0.000000 -0.999992 0.644379 0.597982
0.019932 0.022770 0.277055 -0.003988 -0.000000 -0.999992 0.623411 0.353339
0.015257 -0.016813 0.309067 0.000000 -1.000000 -0.000000 0.685628 0.485062
-0.013410 -0.016813 0.518594 0.000000 -1.000000 -0.000000 0.214474 0.511657
-0.014245 -0.016813 0.309185 0.000000 -1.000000 -0.000000 0.672784 0.420493
-0.028756 0.033744 0.277250 0.000000 1.000000 -0.000000 0.229366 0.375086
0.029641 0.033744 0.309010 0.000000 1.000000 -0.000000 0.184714 0.516541
0.029513 0.033744 0.277017 0.000000 1.000000 -0.000000 0.254733 0.502614
-0.028756 -0.032997 0.277250 0.000000 -1.000000 -0.000000 0.229366 0.375086
0.029641 -0.032997 0.309010 0.000000 -1.000000 -0.000000 0.184714 0.516541
-0.028629 -0.032997 0.309242 0.000000 -1.000000 -0.000000 0.159348 0.389014
-0.028756 -0.032997 0.277250 -0.999992 0.000000 0.003988 0.229366 0.597982
-0.028629 0.033744 0.309242 -0.999992 0.000000 0.003988 0.159348 0.305199
-0.028756 0.033744 0.277250 -0.999992 0.000000 0.003988 0.229366 0.305199
-0.014245 0.017560 0.309185 0.003989 -0.000000 0.999992 0.562259 0.376195
-0.028629 -0.032997 0.309242 0.003989 -0.000000 0.999992 0.530779 0.597982
-0.014245 -0.016813 0.309185 0.003989 -0.000000 0.999992 0.562259 0.526986
0.015257 0.017560 0.309067 0.003988 -0.000000 0.999992 0.626827 0.376195
-0.028629 0.033744 0.309242 0.003988 -0.000000 0.999992 0.530779 0.305199
-0.014245 0.017560 0.309185 0.003988 -0.000000 0.999992 0.562259 0.376195
-0.014245 -0.016813 0.309185 0.003988 -0.000000 0.999992 0.562259 0.526986
0.029641 -0.032997 0.309010 0.003988 -0.000000 0.999992 0.658307 0.597982
0.015257 -0.016813 0.309067 0.003988 -0.000000 0.999992 0.626827 0.526986
0.015257 -0.016813 0.309067 0.003989 0.000000 0.999992 0.626827 0.526986
0.029641 0.033744 0.309010 0.003989 0.000000 0.999992 0.658307 0.305199
0.015257 0.017560 0.309067 0.003989 0.000000 0.999992 0.626827 0.376195
0.016092 0.017560 0.518476 0.485938 0.000000 -0.873993 0.210816 0.376195
0.057299 -0.016813 0.541387 0.485938 0.000000 -0.873993 0.310843 0.526986
0.016092 -0.016813 0.518476 0.485938 0.000000 -0.873993 0.210816 0.526986
-0.014245 0.017560 0.309185 -0.999992 -0.000000 0.003988 0.672784 0.376195
-0.013410 -0.016813 0.518594 -0.999992 -0.000000 0.003988 0.214474 0.526986
-0.013410 0.017560 0.518594 -0.999992 -0.000000 0.003988 0.214474 0.376195
0.015257 0.017560 0.309067 0.999992 0.000000 -0.003988 0.685628 0.376195
0.016092 -0.016813 0.518476 0.999992 0.000000 -0.003988 0.227317 0.526986
0.015257 -0.016813 0.309067 0.999992 0.000000 -0.003988 0.685628 0.526986
0.015257 0.017560 0.309067 -0.000000 1.000000 0.000000 0.685628 0.485062
-0.013410 0.017560 0.518594 -0.000000 1.000000 0.000000 0.214474 0.511657
0.016092 0.017560 0.518476 -0.000000 1.000000 0.000000 0.227317 0.576225
-0.013292 -0.016813 0.548136 0.003986 0.000000 0.999992 0.666283 0.526986
0.016210 0.017560 0.548018 0.003986 0.000000 0.999992 0.730852 0.376195
-0.013292 0.017560 0.548136 0.003986 0.000000 0.999992 0.666283 0.376195
-0.013410 0.017560 0.518594 -0.000000 1.000000 0.000000 0.214474 0.004482
0.016210 0.017560 0.548018 -0.000000 1.000000 0.000000 0.162662 0.081911
0.016092 0.017560 0.518476 -0.000000 1.000000 0.000000 0.227317 0.069051
0.016210 -0.016813 0.548018 0.000000 -1.000000 -0.000000 0.162662 0.589086
-0.013292 -0.016813 0.548136 0.000000 -1.000000 -0.000000 0.149819 0.524517
-0.013410 0.017560 0.518594 -0.000000 1.000000 0.000000 0.721649 0.511657
-0.029437 0.017560 0.554668 -0.000000 1.000000 0.000000 0.635799 0.491942
-0.013292 0.017560 0.548136 -0.000000 1.000000 0.000000 0.656994 0.524517
0.057299 0.017560 0.541387 0.992090 0.000000 -0.125533 0.701890 0.376195
0.065713 -0.010330 0.607886 0.992090 0.000000 -0.125533 0.559827 0.498545
0.057299 -0.016813 0.541387 0.992090 0.000000 -0.125533 0.701890 0.526986
0.057299 0.017560 0.541387 -0.000000 1.000000 0.000000 0.194715 0.169078
0.016210 -0.016813 0.548018 0.000000 -1.000000 -0.000000 0.669837 0.081911
0.057299 -0.016813 0.541387 0.000000 -1.000000 -0.000000 0.701890 0.169078
0.037935 -0.016813 0.563698 0.000000 -1.000000 -0.000000 0.644762 0.136183
0.016210 0.017560 0.548018 -0.585237 0.000000 0.810863 0.223677 0.376195
0.037935 -0.016813 0.563698 -0.585237 0.000000 0.810863 0.277949 0.526986
0.037935 0.017560 0.563698 -0.585237 0.000000 0.810863 0.277949 0.376195
0.065713 0.011077 0.607886 -0.030320 0.000000 0.999540 0.357642 0.404636
0.047323 -0.010330 0.607328 -0.030320 0.000000 0.999540 0.317125 0.498545
0.065713 -0.010330 0.607886 -0.030320 0.000000 0.999540 0.357642 0.498545
0.037935 -0.016813 0.563698 -0.004487 -0.988989 0.147921 0.644762 0.136183
0.065713 -0.010330 0.607886 -0.004487 -0.988989 0.147921 0.559827 0.215876
0.047323 -0.010330 0.607328 -0.004487 -0.988989 0.147921 0.553204 0.175359
0.037935 0.017560 0.563698 -0.977623 0.000000 0.210363 0.644762 0.376195
0.047323 -0.010330 0.607328 -0.977623 0.000000 0.210363 0.553204 0.498545
0.047323 0.011077 0.607328 -0.977623 0.000000 0.210363 0.553204 0.404636
0.037935 0.017560 0.563698 0.097222 0.991679 0.084378 0.644762 0.136183
0.065713 0.011077 0.607886 0.097222 0.991679 0.084378 0.559827 0.215876
0.057299 0.017560 0.541387 0.097222 0.991679 0.084378 0.701890 0.169078
-0.051195 0.017560 0.534685 -0.087764 0.991547 0.095558 0.670286 0.435761
-0.047331 0.013584 0.579490 -0.087764 0.991547 0.095558 0.573798 0.463338
-0.029437 0.017560 0.554668 -0.087764 0.991547 0.095558 0.635799 0.491942
-0.013292 -0.016813 0.548136 0.375057 0.000000 0.927002 0.666283 0.526986
-0.029437 0.017560 0.554668 0.375057 0.000000 0.927002 0.633708 0.376195
-0.029437 -0.016813 0.554668 0.375057 0.000000 0.927002 0.633708 0.526986
-0.029437 -0.016813 0.554668 0.000000 -1.000000 -0.000000 0.128624 0.491942
-0.051195 -0.016813 0.534685 0.000000 -1.000000 -0.000000 0.163111 0.435761
-0.013410 -0.016813 0.518594 -0.391803 -0.000000 -0.920049 0.653422 0.526986
-0.051195 0.017560 0.534685 -0.391803 -0.000000 -0.920049 0.577527 0.376195
-0.013410 0.017560 0.518594 -0.391803 -0.000000 -0.920049 0.653422 0.376195
-0.047331 -0.012837 0.579490 -0.006470 -0.996916 0.078212 0.573798 0.463338
-0.059009 -0.009944 0.615401 -0.006470 -0.996916 0.078212 0.490161 0.453080
-0.069962 -0.012837 0.577618 -0.006470 -0.996916 0.078212 0.568244 0.412972
-0.051195 -0.016813 0.534685 -0.916287 0.000000 -0.400523 0.670286 0.526986
-0.069962 0.013584 0.577618 -0.916287 0.000000 -0.400523 0.568244 0.393638
-0.051195 0.017560 0.534685 -0.916287 0.000000 -0.400523 0.670286 0.376195
-0.051195 -0.016813 0.534685 -0.007363 -0.996003 0.089020 0.670286 0.435761
-0.047331 -0.012837 0.579490 -0.007363 -0.996003 0.089020 0.573798 0.463338
-0.069962 -0.012837 0.577618 -0.007363 -0.996003 0.089020 0.568244 0.412972
-0.029437 0.017560 0.554668 0.811188 0.000000 0.584785 0.635799 0.376195
-0.047331 -0.012837 0.579490 0.811188 0.000000 0.584785 0.573798 0.509544
-0.029437 -0.016813 0.554668 0.811188 0.000000 0.584785 0.635799 0.526986
-0.059009 -0.009944 0.615401 0.191386 0.000000 0.981515 0.594846 0.496852
-0.041602 0.010691 0.612007 0.191386 0.000000 0.981515 0.631524 0.406329
-0.059009 0.010691 0.615401 0.191386 0.000000 0.981515 0.594846 0.406329
-0.047331 0.013584 0.579490 0.984829 0.000000 -0.173527 0.573798 0.393638
-0.041602 -0.009944 0.612007 0.984829 0.000000 -0.173527 0.505021 0.496852
-0.047331 -0.012837 0.579490 0.984829 0.000000 -0.173527 0.573798 0.509544
-0.047331 0.013584 0.579490 0.016709 0.996182 0.085691 0.573798 0.463338
-0.059009 0.010691 0.615401 0.016709 0.996182 0.085691 0.490161 0.453080
-0.041602 0.010691 0.612007 0.016709 0.996182 0.085691 0.505021 0.489758
-0.069962 -0.012837 0.577618 -0.960457 0.000000 0.278430 0.568244 0.509544
-0.059009 0.010691 0.615401 -0.960457 0.000000 0.278430 0.490161 0.406329
-0.069962 0.013584 0.577618 -0.960457 0.000000 0.278430 0.568244 0.393638
0.110644 -0.057433 -0.022320 0.999992 0.000000 -0.003988 0.437804 0.705178
0.093512 -0.057433 -0.063218 0.922346 0.000000 -0.386365 0.520074 0.705178
0.062033 -0.057433 -0.094447 0.704281 0.000000 -0.709921 0.557141 0.705178
0.021000 -0.057433 -0.111252 0.378996 0.000000 -0.925398 0.460097 0.705178
-0.023341 -0.057433 -0.111075 -0.003988 0.000000 -0.999992 0.363054 0.705178
-0.064238 -0.057433 -0.093943 -0.386365 0.000000 -0.922346 0.280784 0.705178
-0.095467 -0.057433 -0.062465 -0.709921 0.000000 -0.704281 0.437804 0.705178
-0.112272 -0.057433 -0.021431 -0.925398 0.000000 -0.378996 0.340761 0.705178
-0.112095 -0.057433 0.022909 -0.999992 -0.000000 0.003988 0.243717 0.705178
-0.094963 -0.057433 0.063807 -0.922346 -0.000000 0.386365 0.161447 0.705178
-0.063485 -0.057433 0.095036 -0.704281 -0.000000 0.709921 0.363054 0.705178
-0.022452 -0.057433 0.111841 -0.378996 -0.000000 0.925398 0.460097 0.705178
0.019932 0.022770 0.277055 0.999992 0.000000 -0.003988 0.250562 0.353339
0.062787 -0.057433 0.094532 0.386365 -0.000000 0.922346 0.639411 0.705178
0.093512 -0.057433 -0.063218 0.000000 -1.000000 -0.000000 0.520074 0.497645
0.110644 -0.057433 -0.022320 0.000000 -1.000000 -0.000000 0.437804 0.552616
0.110821 -0.057433 0.022020 0.000000 -1.000000 -0.000000 0.340761 0.571919
0.094016 -0.057433 0.063054 0.000000 -1.000000 -0.000000 0.243717 0.552616
0.021889 -0.057433 0.111664 0.000000 -1.000000 0.000000 0.106477 0.415375
-0.022452 -0.057433 0.111841 0.000000 -1.000000 0.000000 0.087173 0.318332
-0.063485 -0.057433 0.095036 0.000000 -1.000000 0.000000 0.106477 0.221288
-0.112095 -0.057433 0.022909 -0.000000 -1.000000 -0.000000 0.243717 0.084047
-0.112272 -0.057433 -0.021431 0.000000 -1.000000 0.000000 0.340761 0.064744
-0.095467 -0.057433 -0.062465 0.000000 -1.000000 0.000000 0.437804 0.084047
-0.023341 -0.057433 -0.111075 -0.000000 -1.000000 -0.000000 0.575045 0.221288
0.021000 -0.057433 -0.111252 -0.000000 -1.000000 -0.000000 0.594348 0.318332
0.062033 -0.057433 -0.094447 0.000000 -1.000000 -0.000000 0.575045 0.415375
0.094016 -0.057433 0.063054 0.709921 -0.000000 0.704281 0.750892 0.705178
0.110821 -0.057433 0.022020 0.925399 -0.000000 0.378995 0.340761 0.705178
0.094016 0.058180 0.063054 -0.000000 1.000000 0.000000 0.243717 0.045441
0.110821 0.058180 0.022020 -0.000000 1.000000 0.000000 0.340761 0.064744
0.110644 0.058180 -0.022320 -0.000000 1.000000 0.000000 0.437804 0.045441
0.093512 0.058180 -0.063218 -0.000000 1.000000 0.000000 0.520074 -0.009530
0.021000 0.058180 -0.111252 -0.000000 1.000000 0.000000 0.594348 -0.188843
-0.023341 0.058180 -0.111075 -0.000000 1.000000 0.000000 0.575045 -0.285887
-0.064238 0.058180 -0.093943 -0.000000 1.000000 0.000000 0.520074 -0.368156
-0.112272 0.058180 -0.021431 0.000000 1.000000 0.000000 0.340761 -0.442430
-0.112095 0.058180 0.022909 -0.000000 1.000000 0.000000 0.243717 -0.423127
-0.094963 0.058180 0.063807 -0.000000 1.000000 0.000000 0.161447 -0.368157
-0.022452 0.058180 0.111841 -0.000000 1.000000 0.000000 0.087173 -0.188843
0.021889 0.058180 0.111664 -0.000000 1.000000 0.000000 0.106477 -0.091799
0.062787 0.058180 0.094532 0.000000 1.000000 0.000000 0.161447 -0.009530
-0.019835 0.022770 0.111831 0.003990 -0.000000 0.999992 0.465824 0.353339
-0.022452 0.058180 0.111841 0.003990 -0.000000 0.999992 0.460097 0.198003
-0.022452 -0.057433 0.111841 0.003990 -0.000000 0.999992 0.460097 0.705178
0.021889 0.058180 0.111664 0.003988 -0.000000 0.999992 0.557141 0.198003
-0.022452 -0.057433 0.111841 0.003988 -0.000000 0.999992 0.460097 0.705178
0.019273 -0.022024 0.111675 0.003990 -0.000000 0.999992 0.551414 0.549842
0.021889 -0.057433 0.111664 0.003990 -0.000000 0.999992 0.557141 0.705178
0.021889 0.058180 0.111664 0.003990 -0.000000 0.999992 0.557141 0.198003
0.029641 0.033744 0.309010 0.999992 0.000000 -0.003988 0.184714 -0.201976
-0.019175 0.022770 0.277211 -0.000000 1.000000 0.000000 0.233537 0.396055
0.019273 -0.022024 0.111675 0.000000 -1.000000 -0.000000 0.612512 0.409649
-0.019175 -0.022024 0.277211 -0.999992 0.000000 0.003988 0.233537 0.549842
-0.028756 0.033744 0.277250 -0.003988 -0.000000 -0.999992 0.516852 -0.201976
0.029513 0.033744 0.277017 -0.003989 0.000001 -0.999992 0.644379 0.305199
0.019932 0.022770 0.277055 -0.003989 0.000001 -0.999992 0.623411 0.353339
-0.019175 0.022770 0.277211 -0.003989 0.000001 -0.999992 0.537820 0.353339
-0.028756 -0.032997 0.277250 -0.003989 0.000001 -0.999992 0.516852 0.090807
-0.019175 -0.022024 0.277211 -0.003989 0.000001 -0.999992 0.537820 0.042667
0.019932 -0.022024 0.277055 -0.003989 0.000001 -0.999992 0.623411 0.042667
0.019932 -0.022024 0.277055 -0.003988 -0.000000 -0.999992 0.623411 0.549842
0.016092 -0.016813 0.518476 0.000000 -1.000000 -0.000000 0.227317 0.576225
-0.028629 0.033744 0.309242 -0.000000 1.000000 0.000000 0.159348 0.389014
0.029513 -0.032997 0.277017 -0.000000 -1.000000 0.000000 0.254733 0.502614
-0.028629 -0.032997 0.309242 -0.999992 0.000000 0.003988 0.159348 0.597982
-0.028629 0.033744 0.309242 0.003989 -0.000000 0.999992 0.530779 0.305199
0.029641 0.033744 0.309010 0.003988 0.000000 0.999992 0.658307 0.305199
-0.028629 -0.032997 0.309242 0.003988 0.000000 0.999992 0.530779 0.597982
0.029641 -0.032997 0.309010 0.003989 0.000000 0.999992 0.658307 0.597982
0.016092 0.017560 0.518476 0.485938 0.000000 -0.873994 0.210816 0.376195
0.057299 0.017560 0.541387 0.485938 0.000000 -0.873994 0.310843 0.376195
0.057299 -0.016813 0.541387 0.485938 0.000000 -0.873994 0.310843 0.526986
-0.014245 -0.016813 0.309185 -0.999992 0.000000 0.003988 0.672784 0.526986
0.016092 0.017560 0.518476 0.999992 0.000000 -0.003988 0.227317 0.376195
-0.014245 0.017560 0.309185 -0.000000 1.000000 0.000000 0.672784 0.420493
0.016210 -0.016813 0.548018 0.003986 0.000000 0.999992 0.730852 0.526986
-0.013292 0.017560 0.548136 -0.000000 1.000000 0.000000 0.149819 0.017342
-0.051195 0.017560 0.534685 -0.000000 1.000000 0.000000 0.670286 0.435761
0.057299 0.017560 0.541387 0.992089 0.000000 -0.125533 0.701890 0.376195
0.065713 0.011077 0.607886 0.992089 0.000000 -0.125533 0.559827 0.404636
0.065713 -0.010330 0.607886 0.992089 0.000000 -0.125533 0.559827 0.498545
0.037935 0.017560 0.563698 -0.000000 1.000000 0.000000 0.137587 0.136183
0.016092 -0.016813 0.518476 0.000000 -1.000000 -0.000000 0.734492 0.069051
0.016210 0.017560 0.548018 -0.585237 -0.000000 0.810862 0.223677 0.376195
0.016210 -0.016813 0.548018 -0.585237 -0.000000 0.810862 0.223677 0.526986
0.037935 -0.016813 0.563698 -0.585237 -0.000000 0.810862 0.277949 0.526986
0.047323 0.011077 0.607328 -0.030320 0.000000 0.999540 0.317125 0.404636
0.037935 -0.016813 0.563698 0.097222 -0.991680 0.084378 0.644762 0.136183
0.057299 -0.016813 0.541387 0.097222 -0.991680 0.084378 0.701890 0.169078
0.065713 -0.010330 0.607886 0.097222 -0.991680 0.084378 0.559827 0.215876
0.037935 -0.016813 0.563698 -0.977623 0.000000 0.210363 0.644762 0.526986
0.037935 0.017560 0.563698 -0.004487 0.988989 0.147921 0.644762 0.136183
0.047323 0.011077 0.607328 -0.004487 0.988989 0.147921 0.553204 0.175359
0.065713 0.011077 0.607886 -0.004487 0.988989 0.147921 0.559827 0.215876
-0.051195 0.017560 0.534685 -0.007364 0.996003 0.089020 0.670286 0.435761
-0.069962 0.013584 0.577618 -0.007364 0.996003 0.089020 0.568244 0.412972
-0.047331 0.013584 0.579490 -0.007364 0.996003 0.089020 0.573798 0.463338
-0.013292 0.017560 0.548136 0.375057 0.000000 0.927002 0.666283 0.376195
-0.051195 -0.016813 0.534685 -0.391803 -0.000000 -0.920049 0.577527 0.526986
-0.047331 -0.012837 0.579490 0.016709 -0.996182 0.085690 0.573798 0.463338
-0.041602 -0.009944 0.612007 0.016709 -0.996182 0.085690 0.505021 0.489758
-0.059009 -0.009944 0.615401 0.016709 -0.996182 0.085690 0.490161 0.453080
-0.069962 -0.012837 0.577618 -0.916287 -0.000000 -0.400523 0.568244 0.509544
-0.051195 -0.016813 0.534685 -0.087763 -0.991547 0.095557 0.670286 0.435761
-0.029437 -0.016813 0.554668 -0.087763 -0.991547 0.095557 0.635799 0.491942
-0.047331 -0.012837 0.579490 -0.087763 -0.991547 0.095557 0.573798 0.463338
-0.047331 0.013584 0.579490 0.811188 -0.000000 0.584785 0.573798 0.393638
-0.041602 -0.009944 0.612007 0.191386 0.000000 0.981515 0.631524 0.496852
-0.041602 0.010691 0.612007 0.984829 0.000000 -0.173527 0.505021 0.406329
-0.047331 0.013584 0.579490 -0.006470 0.996916 0.078213 0.573798 0.463338
-0.069962 0.013584 0.577618 -0.006470 0.996916 0.078213 0.568244 0.412972
-0.059009 0.010691 0.615401 -0.006470 0.996916 0.078213 0.490161 0.453080
-0.059009 -0.009944 0.615401 -0.960457 0.000000 0.278430 0.490161 0.496852
3 0 1 2
3 3 4 5
3 6 7 8
3 9 10 11
3 12 13 14
3 15 16 17
3 18 19 20
3 21 22 23
3 24 25 26
3 27 28 29
3 30 31 32
3 33 34 35
3 36 37 38
3 39 40 41
3 42 43 44
3 45 46 47
3 48 49 50
3 51 52 53
3 54 55 56
3 57 58 59
3 60 61 62
3 63 64 65
3 66 67 68
3 69 70 71
3 72 73 74
3 75 76 77
3 78 79 80
3 81 82 83
3 78 84 85
3 86 87 81
3 88 89 90
3 91 92 93
3 94 95 96
3 97 98 99
3 100 101 102
3 103 104 105
3 106 107 108
3 109 110 111
3 112 113 114
3 115 116 117
3 118 119 120
3 121 122 123
3 124 125 126
3 127 128 129
3 89 130 131
3 132 133 134
3 135 136 137
3 128 138 129
3 139 140 141
3 142 143 144
3 145 146 147
3 148 149 150
3 151 152 153
3 154 155 156
3 157 158 159
3 160 161 162
3 89 163 164
3 165 166 167
3 168 169 170
3 171 172 173
3 174 175 176
3 177 178 179
3 180 181 182
3 183 184 185
3 186 187 188
3 189 190 191
3 0 192 1
3 3 193 4
3 6 194 7
3 9 195 10
3 12 196 13
3 15 197 16
3 18 198 19
3 21 199 22
3 24 200 25
3 27 201 28
3 30 202 31
3 33 203 34
3 36 204 37
3 39 205 40
3 206 207 208
3 208 209 44
3 44 210 211
3 211 212 42
3 42 213 43
3 214 215 43
3 43 216 217
3 217 218 43
3 206 208 44
3 44 211 42
3 213 214 43
3 43 218 206
3 206 44 43
3 45 219 46
3 48 220 49
3 221 222 223
3 223 224 221
3 53 225 226
3 226 227 53
3 51 228 52
3 229 230 52
3 52 231 232
3 232 233 221
3 221 224 53
3 53 227 51
3 228 229 52
3 52 232 221
3 221 53 52
3 234 235 236
3 57 237 58
3 60 238 61
3 239 240 241
3 66 242 67
3 69 243 70
3 72 244 73
3 75 245 76
3 78 246 79
3 247 248 249
3 250 251 252
3 86 253 87
3 88 254 89
3 91 255 92
3 94 256 95
3 97 257 98
3 100 258 101
3 103 259 104
3 106 260 107
3 109 261 110
3 262 263 264
3 115 265 116
3 118 266 119
3 121 267 122
3 124 268 125
3 127 269 128
3 89 254 130
3 132 270 133
3 271 272 273
3 128 274 138
3 139 275 140
3 276 277 278
3 145 279 146
3 280 281 282
3 151 283 152
3 284 285 286
3 287 288 289
3 160 290 161
3 89 131 163
3 165 291 166
3 292 293 294
3 171 295 172
3 296 297 298
3 177 299 178
3 180 300 181
3 183 301 184
3 302 303 304
3 189 305 190
