ply
format ascii 1.0
comment Created by Blender 2.78 (sub 0) - www.blender.org, source file: 'Monster.blend'
element vertex 86
property float x
property float y
property float z
property float nx
property float ny
property float nz
property float s
property float t
element face 40
property list uchar uint vertex_indices
end_header
-0.320573 0.320573 1.000000 0.000000 0.000000 1.000000 -0.100072 0.984264
0.320573 -0.320573 1.000000 0.000000 0.000000 1.000000 1.238852 -0.354660
0.320573 0.320573 1.000000 0.000000 0.000000 1.000000 1.238852 0.984264
-0.500000 -0.587375 0.820573 -0.991028 -0.000000 -0.133652 -0.657241 2.028428
-0.500000 0.500000 0.820573 -0.991028 -0.000000 -0.133652 1.613554 2.028428
-0.421029 -0.347093 0.235001 -0.991028 -0.000000 -0.133652 -0.155454 0.805562
-0.353465 0.353465 0.000000 0.000000 0.000000 -1.000000 -0.168760 1.052953
0.353465 -0.279529 0.000000 0.000000 0.000000 -1.000000 1.307540 -0.268946
-0.353465 -0.279529 0.000000 0.000000 0.000000 -1.000000 -0.168760 -0.268946
-0.500000 0.500000 0.820573 0.000000 0.990473 -0.137704 -0.474773 2.028428
0.421029 0.421029 0.252551 0.000000 0.990473 -0.137704 1.448636 0.842211
-0.421029 0.421029 0.252551 0.000000 0.990473 -0.137704 -0.309855 0.842211
-0.320573 -0.320573 1.000000 -0.707107 0.000000 0.707107 -0.100072 -0.354660
-0.500000 0.500000 0.820573 -0.707107 0.000000 0.707107 -0.474773 1.358966
-0.500000 -0.587375 0.820573 -0.707107 0.000000 0.707107 -0.474773 -0.911829
0.320573 0.320573 1.000000 0.000000 0.707107 0.707107 1.238852 0.984264
-0.500000 0.500000 0.820573 0.000000 0.707107 0.707107 -0.474773 1.358966
-0.320573 0.320573 1.000000 0.000000 0.707107 0.707107 -0.100072 0.984264
0.320573 -0.320573 1.000000 0.707107 0.000000 0.707107 1.238852 -0.354660
0.500000 0.500000 0.820573 0.707107 0.000000 0.707107 1.613554 1.358966
0.320573 0.320573 1.000000 0.707107 0.000000 0.707107 1.238852 0.984264
-0.320573 -0.320573 1.000000 0.000000 -0.558052 0.829806 -0.100072 -0.354660
0.500000 -0.587375 0.820573 0.000000 -0.558052 0.829806 1.613554 -0.911829
0.320573 -0.320573 1.000000 0.000000 -0.558052 0.829806 1.238852 -0.354660
-0.421029 0.421029 0.252551 0.000000 1.000000 -0.000000 -0.309855 0.842211
0.421029 0.421029 0.067564 0.000000 1.000000 -0.000000 1.448636 0.455898
-0.421029 0.421029 0.067564 0.000000 1.000000 -0.000000 -0.309855 0.455898
0.500000 -0.587375 0.820573 0.990068 -0.015205 -0.139762 -0.657241 2.028428
0.423445 -0.510820 0.269933 0.990068 -0.015205 -0.139762 -0.497370 0.878510
0.421029 -0.347093 0.235001 0.990068 -0.015205 -0.139762 -0.155454 0.805562
0.421029 -0.347093 0.235001 0.000000 -1.000000 0.000000 1.448636 0.805562
-0.421029 -0.347093 0.067564 0.000000 -1.000000 0.000000 -0.309855 0.455898
0.421029 -0.347093 0.067564 0.000000 -1.000000 0.000000 1.448636 0.455898
0.421029 0.421029 0.067564 1.000000 -0.000000 0.000000 1.448636 0.455898
0.421029 -0.347093 0.235001 1.000000 -0.000000 0.000000 -0.155454 0.805562
0.421029 -0.347093 0.067564 1.000000 -0.000000 0.000000 -0.155454 0.455898
-0.423445 -0.510820 0.269933 0.000000 -0.208654 -0.977990 -0.314902 -0.751958
0.421029 -0.347093 0.235001 0.000000 -0.208654 -0.977990 1.448636 -0.410041
0.423445 -0.510820 0.269933 0.000000 -0.208654 -0.977990 1.453682 -0.751958
0.500000 -0.587375 0.820573 -0.000000 -0.990473 -0.137704 1.613554 2.028428
-0.423445 -0.510820 0.269933 -0.000000 -0.990473 -0.137704 -0.314902 0.878510
0.423445 -0.510820 0.269933 -0.000000 -0.990473 -0.137704 1.453682 0.878510
-0.353465 -0.279529 0.000000 -0.707107 0.000000 -0.707107 -0.168760 -0.268946
-0.421029 0.421029 0.067564 -0.707107 0.000000 -0.707107 -0.309855 1.194048
-0.353465 0.353465 0.000000 -0.707107 0.000000 -0.707107 -0.168760 1.052953
-0.353465 0.353465 0.000000 0.000000 0.707107 -0.707107 -0.168760 1.052953
0.421029 0.421029 0.067564 0.000000 0.707107 -0.707107 1.448636 1.194048
0.353465 0.353465 0.000000 0.000000 0.707107 -0.707107 1.307540 1.052953
0.353465 0.353465 0.000000 0.707107 0.000000 -0.707107 1.307540 1.052953
0.421029 -0.347093 0.067564 0.707107 0.000000 -0.707107 1.448636 -0.410041
0.353465 -0.279529 0.000000 0.707107 0.000000 -0.707107 1.307540 -0.268946
0.353465 -0.279529 0.000000 0.000000 -0.707107 -0.707107 1.307540 -0.268946
-0.421029 -0.347093 0.067564 0.000000 -0.707107 -0.707107 -0.309855 -0.410041
-0.353465 -0.279529 0.000000 0.000000 -0.707107 -0.707107 -0.168760 -0.268946
-0.421029 -0.347093 0.235001 -1.000000 0.000000 0.000000 -0.155454 0.805562
-0.421029 0.421029 0.067564 -1.000000 0.000000 0.000000 1.448636 0.455898
-0.421029 -0.347093 0.067564 -1.000000 0.000000 0.000000 -0.155454 0.455898
-0.320573 -0.320573 1.000000 0.000000 -0.000000 1.000000 -0.100072 -0.354660
-0.421029 0.421029 0.252551 -0.990409 0.003156 -0.138134 1.448636 0.842211
-0.421029 -0.347093 0.235001 -0.990409 0.003156 -0.138134 -0.155454 0.805562
-0.500000 0.500000 0.820573 -0.990409 0.003156 -0.138134 1.613554 2.028428
-0.423445 -0.510820 0.269933 -0.990068 -0.015205 -0.139762 -0.497370 0.878510
-0.500000 -0.587375 0.820573 -0.990068 -0.015205 -0.139762 -0.657241 2.028428
-0.421029 -0.347093 0.235001 -0.990068 -0.015205 -0.139762 -0.155454 0.805562
0.353465 0.353465 0.000000 0.000000 0.000000 -1.000000 1.307540 1.052953
0.500000 0.500000 0.820573 0.000000 0.990473 -0.137704 1.613554 2.028428
-0.320573 0.320573 1.000000 -0.707107 0.000000 0.707107 -0.100072 0.984264
0.500000 0.500000 0.820573 -0.000000 0.707107 0.707107 1.613554 1.358966
0.500000 -0.587375 0.820573 0.707107 0.000000 0.707107 1.613554 -0.911829
-0.500000 -0.587375 0.820573 0.000000 -0.558052 0.829806 -0.474773 -0.911829
0.421029 0.421029 0.252551 0.000000 1.000000 -0.000000 1.448636 0.842211
0.421029 -0.347093 0.235001 0.990409 0.003156 -0.138134 -0.155454 0.805562
0.421029 0.421029 0.252551 0.990409 0.003156 -0.138134 1.448636 0.842211
0.500000 0.500000 0.820573 0.990409 0.003156 -0.138134 1.613554 2.028428
0.500000 0.500000 0.820573 0.991028 0.000000 -0.133652 1.613554 2.028428
0.500000 -0.587375 0.820573 0.991028 0.000000 -0.133652 -0.657241 2.028428
0.421029 -0.347093 0.235001 0.991028 0.000000 -0.133652 -0.155454 0.805562
-0.421029 -0.347093 0.235001 0.000000 -1.000000 0.000000 -0.309855 0.805562
0.421029 0.421029 0.252551 1.000000 -0.000000 0.000000 1.448636 0.842211
-0.421029 -0.347093 0.235001 -0.000000 -0.208654 -0.977990 -0.309855 -0.410041
-0.500000 -0.587375 0.820573 0.000000 -0.990473 -0.137704 -0.474773 2.028428
-0.421029 -0.347093 0.067564 -0.707107 -0.000000 -0.707107 -0.309855 -0.410041
-0.421029 0.421029 0.067564 0.000000 0.707107 -0.707107 -0.309855 1.194048
0.421029 0.421029 0.067564 0.707107 0.000000 -0.707107 1.448636 1.194048
0.421029 -0.347093 0.067564 0.000000 -0.707107 -0.707107 1.448636 -0.410041
-0.421029 0.421029 0.252551 -1.000000 -0.000000 0.000000 1.448636 0.842211
3 0 1 2
3 3 4 5
3 6 7 8
3 9 10 11
3 12 13 14
3 15 16 17
3 18 19 20
3 21 22 23
3 24 25 26
3 27 28 29
3 30 31 32
3 33 34 35
3 36 37 38
3 39 40 41
3 42 43 44
3 45 46 47
3 48 49 50
3 51 52 53
3 54 55 56
3 0 57 1
3 58 59 60
3 61 62 63
3 6 64 7
3 9 65 10
3 12 66 13
3 15 67 16
3 18 68 19
3 21 69 22
3 24 70 25
3 71 72 73
3 74 75 76
3 30 77 31
3 33 78 34
3 36 79 37
3 39 80 40
3 42 81 43
3 45 82 46
3 48 83 49
3 51 84 52
3 54 85 55
