ply
format ascii 1.0
comment Created by Blender 2.78 (sub 0) - www.blender.org, source file: 'Monster.blend'
element vertex 306
property float x
property float y
property float z
property float nx
property float ny
property float nz
property float s
property float t
element face 120
property list uchar uint vertex_indices
end_header
-0.236805 -0.591542 0.653062 0.195091 -0.140935 0.970606 0.381598 0.267839
-0.190572 -0.560282 0.648308 0.195091 -0.140935 0.970606 0.572939 1.267839
-0.236805 -0.561604 0.657409 0.195091 -0.140935 0.970606 0.381598 1.267839
-0.151378 -0.586458 0.618044 0.555570 -0.119479 0.822841 0.735151 0.267839
-0.190572 -0.560282 0.648308 0.555570 -0.119479 0.822841 0.572939 1.267839
-0.190572 -0.590221 0.643961 0.555570 -0.119479 0.822841 0.572939 0.267839
-0.151378 -0.586458 0.618044 0.831470 -0.079834 0.549804 0.578524 0.267839
-0.125189 -0.550887 0.583604 0.831470 -0.079834 0.549804 0.416313 1.267839
-0.151378 -0.556519 0.622392 0.831470 -0.079834 0.549804 0.578524 1.267839
-0.115993 -0.574182 0.533504 0.980785 -0.028034 0.193066 0.224971 0.267839
-0.125189 -0.550887 0.583604 0.980785 -0.028034 0.193066 0.416313 1.267839
-0.125189 -0.580826 0.579257 0.980785 -0.028034 0.193066 0.416313 0.267839
-0.115993 -0.574182 0.533504 0.980785 0.028034 -0.193066 0.224971 0.267839
-0.125189 -0.537600 0.492098 0.980785 0.028034 -0.193066 0.033629 1.267839
-0.115993 -0.544244 0.537851 0.980785 0.028034 -0.193066 0.224971 1.267839
-0.125189 -0.567539 0.487751 0.831470 0.079834 -0.549804 0.033629 0.267839
-0.151378 -0.531968 0.453311 0.831470 0.079834 -0.549804 -0.128582 1.267839
-0.125189 -0.537600 0.492098 0.831470 0.079834 -0.549804 0.033629 1.267839
-0.190572 -0.558143 0.423047 0.555570 0.119479 -0.822841 0.572939 0.267839
-0.151378 -0.531968 0.453311 0.555570 0.119479 -0.822841 0.735151 1.267839
-0.151378 -0.561907 0.448963 0.555570 0.119479 -0.822841 0.735151 0.267839
-0.236805 -0.556822 0.413946 0.195091 0.140935 -0.970606 0.381598 0.267839
-0.190572 -0.528205 0.427394 0.195091 0.140935 -0.970606 0.572939 1.267839
-0.190572 -0.558143 0.423047 0.195091 0.140935 -0.970606 0.572939 0.267839
-0.236805 -0.556822 0.413946 -0.195090 0.140936 -0.970607 0.381598 0.267839
-0.283037 -0.528205 0.427394 -0.195090 0.140936 -0.970607 0.190256 1.267839
-0.236805 -0.526883 0.418293 -0.195090 0.140936 -0.970607 0.381598 1.267839
-0.322232 -0.561907 0.448963 -0.555571 0.119479 -0.822840 0.028044 0.267839
-0.283037 -0.528205 0.427394 -0.555571 0.119479 -0.822840 0.190256 1.267839
-0.283037 -0.558143 0.423046 -0.555571 0.119479 -0.822840 0.190256 0.267839
-0.348420 -0.567539 0.487751 -0.831470 0.079833 -0.549805 1.033629 0.267839
-0.322232 -0.531968 0.453311 -0.831470 0.079833 -0.549805 0.871418 1.267839
-0.322232 -0.561907 0.448963 -0.831470 0.079833 -0.549805 0.871418 0.267839
-0.357617 -0.574182 0.533504 -0.980785 0.028034 -0.193066 0.224971 0.267839
-0.348420 -0.537600 0.492098 -0.980785 0.028034 -0.193066 0.033629 1.267839
-0.348420 -0.567539 0.487751 -0.980785 0.028034 -0.193066 0.033629 0.267839
-0.357617 -0.574182 0.533504 -0.980785 -0.028034 0.193066 0.224971 0.267839
-0.348420 -0.550887 0.583604 -0.980785 -0.028034 0.193066 0.416313 1.267839
-0.357617 -0.544244 0.537851 -0.980785 -0.028034 0.193066 0.224971 1.267839
-0.322232 -0.586458 0.618044 -0.831469 -0.079833 0.549805 0.578525 0.267839
-0.348420 -0.550887 0.583604 -0.831469 -0.079833 0.549805 0.416313 1.267839
-0.348420 -0.580826 0.579257 -0.831469 -0.079833 0.549805 0.416313 0.267839
-0.236805 -0.526883 0.418293 0.000000 0.989622 0.143697 0.381598 -0.275029
-0.357617 -0.544244 0.537851 0.000000 0.989622 0.143697 -0.118402 0.224971
-0.115993 -0.544244 0.537851 0.000000 0.989622 0.143697 0.881598 0.224971
-0.283037 -0.590221 0.643961 -0.555571 -0.119479 0.822840 0.190256 0.267839
-0.322232 -0.556519 0.622392 -0.555571 -0.119479 0.822840 0.028044 1.267839
-0.322232 -0.586458 0.618044 -0.555571 -0.119479 0.822840 0.028044 0.267839
-0.236805 -0.591542 0.653062 -0.195090 -0.140935 0.970607 0.381598 0.267839
-0.283037 -0.560282 0.648309 -0.195090 -0.140935 0.970607 0.190256 1.267839
-0.283037 -0.590221 0.643961 -0.195090 -0.140935 0.970607 0.190256 0.267839
-0.190572 -0.558143 0.423047 0.000000 -0.989622 -0.143697 0.572939 -0.236969
-0.125189 -0.567539 0.487751 0.000000 -0.989622 -0.143697 0.843537 0.033629
-0.190572 -0.590221 0.643961 0.000000 -0.989622 -0.143697 0.572939 0.686911
0.236805 -0.591542 0.653062 -0.195091 -0.140935 0.970606 0.381598 0.267839
0.190572 -0.560282 0.648308 -0.195091 -0.140935 0.970606 0.572939 1.267839
0.190572 -0.590221 0.643961 -0.195091 -0.140935 0.970606 0.572939 0.267839
0.190572 -0.560282 0.648308 -0.555570 -0.119479 0.822841 0.572939 1.267839
0.151378 -0.586458 0.618044 -0.555570 -0.119479 0.822841 0.735151 0.267839
0.190572 -0.590221 0.643961 -0.555570 -0.119479 0.822841 0.572939 0.267839
0.151378 -0.586458 0.618044 -0.831469 -0.079833 0.549805 0.578524 0.267839
0.125189 -0.550887 0.583604 -0.831469 -0.079833 0.549805 0.416313 1.267839
0.125189 -0.580826 0.579257 -0.831469 -0.079833 0.549805 0.416313 0.267839
0.125189 -0.550887 0.583604 -0.980785 -0.028034 0.193065 0.416313 1.267839
0.115993 -0.574182 0.533504 -0.980785 -0.028034 0.193065 0.224971 0.267839
0.125189 -0.580826 0.579257 -0.980785 -0.028034 0.193065 0.416313 0.267839
0.115993 -0.574182 0.533504 -0.980785 0.028034 -0.193065 0.224971 0.267839
0.125189 -0.537600 0.492098 -0.980785 0.028034 -0.193065 0.033629 1.267839
0.125189 -0.567539 0.487751 -0.980785 0.028034 -0.193065 0.033629 0.267839
0.125189 -0.567539 0.487751 -0.831469 0.079833 -0.549805 0.033629 0.267839
0.151378 -0.531968 0.453311 -0.831469 0.079833 -0.549805 -0.128582 1.267839
0.151378 -0.561907 0.448963 -0.831469 0.079833 -0.549805 -0.128582 0.267839
0.151378 -0.531968 0.453311 -0.555570 0.119479 -0.822840 0.735151 1.267839
0.190572 -0.558143 0.423047 -0.555570 0.119479 -0.822840 0.572939 0.267839
0.151378 -0.561907 0.448963 -0.555570 0.119479 -0.822840 0.735151 0.267839
0.190572 -0.528205 0.427394 -0.195091 0.140936 -0.970606 0.572939 1.267839
0.236805 -0.556822 0.413946 -0.195091 0.140936 -0.970606 0.381598 0.267839
0.190572 -0.558143 0.423047 -0.195091 0.140936 -0.970606 0.572939 0.267839
0.236805 -0.556822 0.413946 0.195090 0.140936 -0.970607 0.381598 0.267839
0.283037 -0.528205 0.427394 0.195090 0.140936 -0.970607 0.190256 1.267839
0.283037 -0.558143 0.423046 0.195090 0.140936 -0.970607 0.190256 0.267839
0.283037 -0.528205 0.427394 0.555571 0.119479 -0.822840 0.190256 1.267839
0.322232 -0.561907 0.448963 0.555571 0.119479 -0.822840 0.028044 0.267839
0.283037 -0.558143 0.423046 0.555571 0.119479 -0.822840 0.190256 0.267839
0.322232 -0.531968 0.453311 0.831469 0.079833 -0.549805 0.871418 1.267839
0.348420 -0.567539 0.487751 0.831469 0.079833 -0.549805 1.033629 0.267839
0.322232 -0.561907 0.448963 0.831469 0.079833 -0.549805 0.871418 0.267839
0.348420 -0.537600 0.492098 0.980785 0.028034 -0.193066 0.033629 1.267839
0.357617 -0.574182 0.533504 0.980785 0.028034 -0.193066 0.224971 0.267839
0.348420 -0.567539 0.487751 0.980785 0.028034 -0.193066 0.033629 0.267839
0.357617 -0.574182 0.533504 0.980785 -0.028034 0.193066 0.224971 0.267839
0.348420 -0.550887 0.583604 0.980785 -0.028034 0.193066 0.416313 1.267839
0.348420 -0.580826 0.579257 0.980785 -0.028034 0.193066 0.416313 0.267839
0.348420 -0.550887 0.583604 0.831469 -0.079833 0.549805 0.416313 1.267839
0.322232 -0.586458 0.618044 0.831469 -0.079833 0.549805 0.578525 0.267839
0.348420 -0.580826 0.579257 0.831469 -0.079833 0.549805 0.416313 0.267839
0.322232 -0.531968 0.453311 -0.000000 0.989622 0.143697 0.028044 -0.128582
0.151378 -0.531968 0.453311 -0.000000 0.989622 0.143697 0.735151 -0.128582
0.151378 -0.556519 0.622392 -0.000000 0.989622 0.143697 0.735151 0.578524
0.322232 -0.556519 0.622392 0.555570 -0.119479 0.822840 0.028044 1.267839
0.283037 -0.590221 0.643961 0.555570 -0.119479 0.822840 0.190256 0.267839
0.322232 -0.586458 0.618044 0.555570 -0.119479 0.822840 0.028044 0.267839
0.283037 -0.560282 0.648309 0.195090 -0.140935 0.970607 0.190256 1.267839
0.236805 -0.591542 0.653062 0.195090 -0.140935 0.970607 0.381598 0.267839
0.283037 -0.590221 0.643961 0.195090 -0.140935 0.970607 0.190256 0.267839
0.190572 -0.558143 0.423047 0.000000 -0.989622 -0.143697 0.572939 -0.236969
0.348420 -0.567539 0.487751 0.000000 -0.989622 -0.143697 -0.080342 0.033629
0.283037 -0.590221 0.643961 0.000000 -0.989622 -0.143697 0.190256 0.686911
-0.190572 -0.590221 0.643961 0.195091 -0.140935 0.970606 0.572939 0.267839
-0.151378 -0.556519 0.622392 0.555570 -0.119479 0.822841 0.735151 1.267839
-0.151378 -0.586458 0.618044 0.831470 -0.079833 0.549804 0.578524 0.267839
-0.125189 -0.580826 0.579257 0.831470 -0.079833 0.549804 0.416313 0.267839
-0.125189 -0.550887 0.583604 0.831470 -0.079833 0.549804 0.416313 1.267839
-0.115993 -0.544244 0.537851 0.980785 -0.028034 0.193066 0.224971 1.267839
-0.125189 -0.567539 0.487751 0.980785 0.028034 -0.193066 0.033629 0.267839
-0.125189 -0.567539 0.487751 0.831470 0.079833 -0.549804 0.033629 0.267839
-0.151378 -0.561907 0.448963 0.831470 0.079833 -0.549804 -0.128582 0.267839
-0.151378 -0.531968 0.453311 0.831470 0.079833 -0.549804 -0.128582 1.267839
-0.190572 -0.528205 0.427394 0.555570 0.119479 -0.822841 0.572939 1.267839
-0.236805 -0.526883 0.418293 0.195091 0.140935 -0.970606 0.381598 1.267839
-0.283037 -0.558143 0.423046 -0.195090 0.140936 -0.970607 0.190256 0.267839
-0.322232 -0.561907 0.448963 -0.555570 0.119479 -0.822840 0.028044 0.267839
-0.322232 -0.531968 0.453311 -0.555570 0.119479 -0.822840 0.028044 1.267839
-0.283037 -0.528205 0.427394 -0.555570 0.119479 -0.822840 0.190256 1.267839
-0.348420 -0.567539 0.487751 -0.831470 0.079834 -0.549804 1.033629 0.267839
-0.348420 -0.537600 0.492098 -0.831470 0.079834 -0.549804 1.033629 1.267839
-0.322232 -0.531968 0.453311 -0.831470 0.079834 -0.549804 0.871418 1.267839
-0.357617 -0.544244 0.537851 -0.980785 0.028034 -0.193066 0.224971 1.267839
-0.348420 -0.580826 0.579257 -0.980785 -0.028034 0.193066 0.416313 0.267839
-0.322232 -0.586458 0.618044 -0.831469 -0.079834 0.549805 0.578525 0.267839
-0.322232 -0.556519 0.622392 -0.831469 -0.079834 0.549805 0.578525 1.267839
-0.348420 -0.550887 0.583604 -0.831469 -0.079834 0.549805 0.416313 1.267839
-0.236805 -0.561604 0.657409 -0.000001 0.989622 0.143696 0.381598 0.724971
-0.190572 -0.560282 0.648308 -0.000001 0.989622 0.143696 0.572939 0.686911
-0.115993 -0.544244 0.537851 -0.000001 0.989622 0.143696 0.881598 0.224971
-0.151378 -0.556519 0.622392 -0.000002 0.989622 0.143696 0.735151 0.578524
-0.125189 -0.550887 0.583604 -0.000002 0.989622 0.143696 0.843537 0.416313
-0.115993 -0.544244 0.537851 -0.000002 0.989622 0.143696 0.881598 0.224971
-0.115993 -0.544244 0.537851 0.000002 0.989622 0.143696 0.881598 0.224971
-0.125189 -0.537600 0.492098 0.000002 0.989622 0.143696 0.843537 0.033629
-0.151378 -0.531968 0.453311 0.000002 0.989622 0.143696 0.735151 -0.128582
-0.151378 -0.531968 0.453311 -0.000001 0.989622 0.143697 0.735151 -0.128582
-0.190572 -0.528205 0.427394 -0.000001 0.989622 0.143697 0.572939 -0.236969
-0.115993 -0.544244 0.537851 -0.000001 0.989622 0.143697 0.881598 0.224971
-0.236805 -0.526883 0.418293 -0.000001 0.989622 0.143693 0.381598 -0.275029
-0.283037 -0.528205 0.427394 -0.000001 0.989622 0.143693 0.190256 -0.236969
-0.322232 -0.531968 0.453311 -0.000001 0.989622 0.143693 0.028044 -0.128582
-0.322232 -0.531968 0.453311 0.000001 0.989622 0.143698 0.028044 -0.128582
-0.348420 -0.537600 0.492098 0.000001 0.989622 0.143698 -0.080342 0.033629
-0.236805 -0.526883 0.418293 0.000001 0.989622 0.143698 0.381598 -0.275029
-0.357617 -0.544244 0.537851 0.000002 0.989622 0.143696 -0.118402 0.224971
-0.348420 -0.550887 0.583604 0.000002 0.989622 0.143696 -0.080342 0.416313
-0.322232 -0.556519 0.622392 0.000002 0.989622 0.143696 0.028044 0.578525
-0.322232 -0.556519 0.622392 0.000001 0.989622 0.143693 0.028044 0.578525
-0.283037 -0.560282 0.648309 0.000001 0.989622 0.143693 0.190256 0.686911
-0.236805 -0.561604 0.657409 0.000001 0.989622 0.143693 0.381598 0.724971
-0.190572 -0.560282 0.648308 0.000001 0.989622 0.143697 0.572939 0.686911
-0.151378 -0.556519 0.622392 0.000001 0.989622 0.143697 0.735151 0.578524
-0.115993 -0.544244 0.537851 0.000001 0.989622 0.143697 0.881598 0.224971
-0.115993 -0.544244 0.537851 0.000001 0.989622 0.143696 0.881598 0.224971
-0.190572 -0.528205 0.427394 0.000001 0.989622 0.143696 0.572939 -0.236969
-0.236805 -0.526883 0.418293 0.000001 0.989622 0.143696 0.381598 -0.275029
-0.236805 -0.526883 0.418293 -0.000000 0.989622 0.143696 0.381598 -0.275029
-0.348420 -0.537600 0.492098 -0.000000 0.989622 0.143696 -0.080342 0.033629
-0.357617 -0.544244 0.537851 -0.000000 0.989622 0.143696 -0.118402 0.224971
-0.322232 -0.556519 0.622392 -0.000000 0.989622 0.143697 0.028044 0.578525
-0.236805 -0.561604 0.657409 -0.000000 0.989622 0.143697 0.381598 0.724971
-0.283037 -0.590221 0.643961 -0.555570 -0.119479 0.822840 0.190256 0.267839
-0.283037 -0.560282 0.648309 -0.555570 -0.119479 0.822840 0.190256 1.267839
-0.322232 -0.556519 0.622392 -0.555570 -0.119479 0.822840 0.028044 1.267839
-0.236805 -0.591542 0.653062 -0.195090 -0.140936 0.970607 0.381598 0.267839
-0.236805 -0.561604 0.657409 -0.195090 -0.140936 0.970607 0.381598 1.267839
-0.283037 -0.560282 0.648309 -0.195090 -0.140936 0.970607 0.190256 1.267839
-0.190572 -0.590221 0.643961 -0.000000 -0.989622 -0.143693 0.572939 0.686911
-0.236805 -0.591542 0.653062 -0.000000 -0.989622 -0.143693 0.381598 0.724971
-0.283037 -0.590221 0.643961 -0.000000 -0.989622 -0.143693 0.190256 0.686911
-0.283037 -0.590221 0.643961 -0.000000 -0.989622 -0.143697 0.190256 0.686911
-0.322232 -0.586458 0.618044 -0.000000 -0.989622 -0.143697 0.028044 0.578525
-0.348420 -0.580826 0.579257 -0.000003 -0.989622 -0.143697 -0.080342 0.416313
-0.357617 -0.574182 0.533504 -0.000003 -0.989622 -0.143697 -0.118402 0.224971
-0.348420 -0.567539 0.487751 -0.000003 -0.989622 -0.143697 -0.080342 0.033629
-0.348420 -0.567539 0.487751 -0.000002 -0.989622 -0.143697 -0.080342 0.033629
-0.322232 -0.561907 0.448963 -0.000002 -0.989622 -0.143697 0.028044 -0.128582
-0.348420 -0.580826 0.579257 -0.000002 -0.989622 -0.143697 -0.080342 0.416313
-0.283037 -0.558143 0.423046 0.000000 -0.989621 -0.143699 0.190256 -0.236969
-0.236805 -0.556822 0.413946 0.000000 -0.989621 -0.143699 0.381598 -0.275029
-0.190572 -0.558143 0.423047 0.000000 -0.989621 -0.143699 0.572939 -0.236969
-0.190572 -0.558143 0.423047 -0.000002 -0.989622 -0.143694 0.572939 -0.236969
-0.151378 -0.561907 0.448963 -0.000002 -0.989622 -0.143694 0.735151 -0.128582
-0.125189 -0.567539 0.487751 -0.000002 -0.989622 -0.143694 0.843537 0.033629
-0.125189 -0.567539 0.487751 0.000001 -0.989622 -0.143696 0.843537 0.033629
-0.115993 -0.574182 0.533504 0.000001 -0.989622 -0.143696 0.881598 0.224971
-0.190572 -0.590221 0.643961 0.000001 -0.989622 -0.143696 0.572939 0.686911
-0.125189 -0.580826 0.579257 0.000002 -0.989622 -0.143694 0.843537 0.416313
-0.151378 -0.586458 0.618044 0.000002 -0.989622 -0.143694 0.735151 0.578524
-0.190572 -0.590221 0.643961 0.000002 -0.989622 -0.143694 0.572939 0.686911
-0.190572 -0.590221 0.643961 -0.000000 -0.989622 -0.143695 0.572939 0.686911
-0.322232 -0.586458 0.618044 -0.000000 -0.989622 -0.143695 0.028044 0.578525
-0.348420 -0.580826 0.579257 -0.000000 -0.989622 -0.143695 -0.080342 0.416313
-0.348420 -0.580826 0.579257 0.000001 -0.989622 -0.143696 -0.080342 0.416313
-0.322232 -0.561907 0.448963 0.000001 -0.989622 -0.143696 0.028044 -0.128582
-0.283037 -0.558143 0.423046 0.000001 -0.989622 -0.143696 0.190256 -0.236969
-0.283037 -0.558143 0.423046 0.000000 -0.989622 -0.143697 0.190256 -0.236969
-0.115993 -0.574182 0.533504 -0.000001 -0.989622 -0.143698 0.881598 0.224971
-0.125189 -0.580826 0.579257 -0.000001 -0.989622 -0.143698 0.843537 0.416313
-0.190572 -0.590221 0.643961 -0.000001 -0.989622 -0.143698 0.572939 0.686911
-0.348420 -0.580826 0.579257 0.000000 -0.989622 -0.143697 -0.080342 0.416313
0.236805 -0.561604 0.657409 -0.195091 -0.140935 0.970606 0.381598 1.267839
0.151378 -0.556519 0.622392 -0.555570 -0.119479 0.822841 0.735151 1.267839
0.151378 -0.586458 0.618044 -0.831469 -0.079834 0.549805 0.578524 0.267839
0.151378 -0.556519 0.622392 -0.831469 -0.079834 0.549805 0.578524 1.267839
0.125189 -0.550887 0.583604 -0.831469 -0.079834 0.549805 0.416313 1.267839
0.115993 -0.544244 0.537851 -0.980785 -0.028034 0.193065 0.224971 1.267839
0.115993 -0.544244 0.537851 -0.980785 0.028034 -0.193065 0.224971 1.267839
0.125189 -0.567539 0.487751 -0.831469 0.079834 -0.549805 0.033629 0.267839
0.125189 -0.537600 0.492098 -0.831469 0.079834 -0.549805 0.033629 1.267839
0.151378 -0.531968 0.453311 -0.831469 0.079834 -0.549805 -0.128582 1.267839
0.151378 -0.531968 0.453311 -0.555570 0.119479 -0.822841 0.735151 1.267839
0.190572 -0.528205 0.427394 -0.555570 0.119479 -0.822841 0.572939 1.267839
0.190572 -0.558143 0.423047 -0.555570 0.119479 -0.822841 0.572939 0.267839
0.190572 -0.528205 0.427394 -0.195091 0.140935 -0.970606 0.572939 1.267839
0.236805 -0.526883 0.418293 -0.195091 0.140935 -0.970606 0.381598 1.267839
0.236805 -0.556822 0.413946 -0.195091 0.140935 -0.970606 0.381598 0.267839
0.236805 -0.526883 0.418293 0.195090 0.140936 -0.970607 0.381598 1.267839
0.322232 -0.531968 0.453311 0.555571 0.119479 -0.822840 0.028044 1.267839
0.322232 -0.531968 0.453311 0.831469 0.079834 -0.549805 0.871418 1.267839
0.348420 -0.537600 0.492098 0.831469 0.079834 -0.549805 1.033629 1.267839
0.348420 -0.567539 0.487751 0.831469 0.079834 -0.549805 1.033629 0.267839
0.357617 -0.544244 0.537851 0.980785 0.028034 -0.193066 0.224971 1.267839
0.357617 -0.544244 0.537851 0.980785 -0.028034 0.193066 0.224971 1.267839
0.348420 -0.550887 0.583604 0.831469 -0.079834 0.549805 0.416313 1.267839
0.322232 -0.556519 0.622392 0.831469 -0.079834 0.549805 0.578525 1.267839
0.322232 -0.586458 0.618044 0.831469 -0.079834 0.549805 0.578525 0.267839
0.151378 -0.556519 0.622392 0.000000 0.989622 0.143695 0.735151 0.578524
0.190572 -0.560282 0.648308 0.000000 0.989622 0.143695 0.572939 0.686911
0.322232 -0.556519 0.622392 0.000000 0.989622 0.143695 0.028044 0.578525
0.236805 -0.561604 0.657409 -0.000001 0.989622 0.143693 0.381598 0.724971
0.283037 -0.560282 0.648309 -0.000001 0.989622 0.143693 0.190256 0.686911
0.322232 -0.556519 0.622392 -0.000001 0.989622 0.143693 0.028044 0.578525
0.322232 -0.556519 0.622392 -0.000002 0.989622 0.143696 0.028044 0.578525
0.348420 -0.550887 0.583604 -0.000002 0.989622 0.143696 -0.080342 0.416313
0.357617 -0.544244 0.537851 -0.000002 0.989622 0.143696 -0.118402 0.224971
0.357617 -0.544244 0.537851 -0.000001 0.989622 0.143696 -0.118402 0.224971
0.348420 -0.537600 0.492098 -0.000001 0.989622 0.143696 -0.080342 0.033629
0.322232 -0.556519 0.622392 -0.000001 0.989622 0.143696 0.028044 0.578525
0.322232 -0.531968 0.453311 0.000001 0.989622 0.143693 0.028044 -0.128582
0.283037 -0.528205 0.427394 0.000001 0.989622 0.143693 0.190256 -0.236969
0.236805 -0.526883 0.418293 0.000001 0.989622 0.143693 0.381598 -0.275029
0.236805 -0.526883 0.418293 -0.000000 0.989622 0.143697 0.381598 -0.275029
0.190572 -0.528205 0.427394 -0.000000 0.989622 0.143697 0.572939 -0.236969
0.151378 -0.531968 0.453311 -0.000002 0.989622 0.143696 0.735151 -0.128582
0.125189 -0.537600 0.492098 -0.000002 0.989622 0.143696 0.843537 0.033629
0.115993 -0.544244 0.537851 -0.000002 0.989622 0.143696 0.881598 0.224971
0.115993 -0.544244 0.537851 0.000002 0.989622 0.143696 0.881598 0.224971
0.125189 -0.550887 0.583604 0.000002 0.989622 0.143696 0.843537 0.416313
0.151378 -0.556519 0.622392 0.000002 0.989622 0.143696 0.735151 0.578524
0.190572 -0.560282 0.648308 0.000000 0.989622 0.143697 0.572939 0.686911
0.236805 -0.561604 0.657409 0.000000 0.989622 0.143697 0.381598 0.724971
0.322232 -0.556519 0.622392 0.000000 0.989622 0.143697 0.028044 0.578525
0.322232 -0.556519 0.622392 0.000001 0.989622 0.143697 0.028044 0.578525
0.348420 -0.537600 0.492098 0.000001 0.989622 0.143697 -0.080342 0.033629
0.322232 -0.531968 0.453311 0.000001 0.989622 0.143697 0.028044 -0.128582
0.322232 -0.531968 0.453311 0.000000 0.989622 0.143695 0.028044 -0.128582
0.190572 -0.528205 0.427394 0.000000 0.989622 0.143695 0.572939 -0.236969
0.151378 -0.531968 0.453311 0.000000 0.989622 0.143695 0.735151 -0.128582
0.115993 -0.544244 0.537851 0.000000 0.989622 0.143697 0.881598 0.224971
0.322232 -0.556519 0.622392 0.555570 -0.119479 0.822841 0.028044 1.267839
0.283037 -0.560282 0.648309 0.555570 -0.119479 0.822841 0.190256 1.267839
0.283037 -0.590221 0.643961 0.555570 -0.119479 0.822841 0.190256 0.267839
0.283037 -0.560282 0.648309 0.195090 -0.140936 0.970607 0.190256 1.267839
0.236805 -0.561604 0.657409 0.195090 -0.140936 0.970607 0.381598 1.267839
0.236805 -0.591542 0.653062 0.195090 -0.140936 0.970607 0.381598 0.267839
0.283037 -0.590221 0.643961 0.000000 -0.989622 -0.143693 0.190256 0.686911
0.236805 -0.591542 0.653062 0.000000 -0.989622 -0.143693 0.381598 0.724971
0.190572 -0.590221 0.643961 0.000000 -0.989622 -0.143693 0.572939 0.686911
0.190572 -0.590221 0.643961 -0.000002 -0.989622 -0.143694 0.572939 0.686911
0.151378 -0.586458 0.618044 -0.000002 -0.989622 -0.143694 0.735151 0.578524
0.125189 -0.580826 0.579257 -0.000002 -0.989622 -0.143694 0.843537 0.416313
0.125189 -0.580826 0.579257 -0.000003 -0.989622 -0.143697 0.843537 0.416313
0.115993 -0.574182 0.533504 -0.000003 -0.989622 -0.143697 0.881598 0.224971
0.125189 -0.567539 0.487751 -0.000003 -0.989622 -0.143697 0.843537 0.033629
0.125189 -0.567539 0.487751 -0.000002 -0.989622 -0.143697 0.843537 0.033629
0.151378 -0.561907 0.448963 -0.000002 -0.989622 -0.143697 0.735151 -0.128582
0.125189 -0.580826 0.579257 -0.000002 -0.989622 -0.143697 0.843537 0.416313
0.190572 -0.558143 0.423047 -0.000000 -0.989621 -0.143699 0.572939 -0.236969
0.236805 -0.556822 0.413946 -0.000000 -0.989621 -0.143699 0.381598 -0.275029
0.283037 -0.558143 0.423046 -0.000000 -0.989621 -0.143699 0.190256 -0.236969
0.283037 -0.558143 0.423046 -0.000000 -0.989622 -0.143697 0.190256 -0.236969
0.322232 -0.561907 0.448963 -0.000000 -0.989622 -0.143697 0.028044 -0.128582
0.348420 -0.567539 0.487751 0.000003 -0.989622 -0.143697 -0.080342 0.033629
0.357617 -0.574182 0.533504 0.000003 -0.989622 -0.143697 -0.118402 0.224971
0.348420 -0.580826 0.579257 0.000003 -0.989622 -0.143697 -0.080342 0.416313
0.348420 -0.580826 0.579257 -0.000002 -0.989622 -0.143697 -0.080342 0.416313
0.322232 -0.586458 0.618044 -0.000002 -0.989622 -0.143697 0.028044 0.578525
0.348420 -0.567539 0.487751 -0.000002 -0.989622 -0.143697 -0.080342 0.033629
0.190572 -0.590221 0.643961 0.000000 -0.989622 -0.143697 0.572939 0.686911
0.125189 -0.580826 0.579257 0.000001 -0.989622 -0.143696 0.843537 0.416313
0.151378 -0.561907 0.448963 0.000001 -0.989622 -0.143696 0.735151 -0.128582
0.190572 -0.558143 0.423047 0.000001 -0.989622 -0.143696 0.572939 -0.236969
0.190572 -0.558143 0.423047 -0.000000 -0.989622 -0.143695 0.572939 -0.236969
0.322232 -0.561907 0.448963 -0.000000 -0.989622 -0.143695 0.028044 -0.128582
0.348420 -0.567539 0.487751 -0.000000 -0.989622 -0.143695 -0.080342 0.033629
0.348420 -0.567539 0.487751 0.000001 -0.989622 -0.143696 -0.080342 0.033629
0.322232 -0.586458 0.618044 0.000001 -0.989622 -0.143696 0.028044 0.578525
0.283037 -0.590221 0.643961 0.000001 -0.989622 -0.143696 0.190256 0.686911
0.125189 -0.580826 0.579257 0.000000 -0.989622 -0.143697 0.843537 0.416313
3 0 1 2
3 3 4 5
3 6 7 8
3 9 10 11
3 12 13 14
3 15 16 17
3 18 19 20
3 21 22 23
3 24 25 26
3 27 28 29
3 30 31 32
3 33 34 35
3 36 37 38
3 39 40 41
3 42 43 44
3 45 46 47
3 48 49 50
3 51 52 53
3 54 55 56
3 57 58 59
3 60 61 62
3 63 64 65
3 66 67 68
3 69 70 71
3 72 73 74
3 75 76 77
3 78 79 80
3 81 82 83
3 84 85 86
3 87 88 89
3 90 91 92
3 93 94 95
3 96 97 98
3 99 100 101
3 102 103 104
3 105 106 107
3 0 108 1
3 3 109 4
3 110 111 112
3 9 113 10
3 12 114 13
3 115 116 117
3 18 118 19
3 21 119 22
3 24 120 25
3 121 122 123
3 124 125 126
3 33 127 34
3 36 128 37
3 129 130 131
3 132 133 134
3 135 136 137
3 138 139 140
3 141 142 143
3 144 145 146
3 147 148 149
3 150 151 152
3 153 154 155
3 156 157 158
3 159 160 161
3 162 163 164
3 43 165 166
3 166 44 43
3 167 168 169
3 170 171 172
3 173 174 175
3 176 177 53
3 178 179 180
3 181 182 183
3 184 185 186
3 187 188 189
3 190 191 192
3 193 194 195
3 196 197 198
3 199 200 201
3 202 51 53
3 203 204 205
3 53 206 202
3 54 207 55
3 57 208 58
3 209 210 211
3 63 212 64
3 66 213 67
3 214 215 216
3 217 218 219
3 220 221 222
3 78 223 79
3 81 224 82
3 225 226 227
3 87 228 88
3 90 229 91
3 230 231 232
3 233 234 235
3 236 237 238
3 239 240 241
3 242 243 244
3 245 246 247
3 248 249 96
3 250 251 252
3 253 254 255
3 256 257 258
3 259 260 261
3 262 263 264
3 97 265 98
3 98 258 96
3 266 267 268
3 269 270 271
3 272 273 274
3 275 276 277
3 278 279 280
3 281 282 283
3 284 285 286
3 287 288 105
3 289 290 291
3 292 293 294
3 107 295 105
3 296 297 298
3 299 300 301
3 302 303 304
3 295 305 105
