ply
format ascii 1.0
comment Created by Blender 2.78 (sub 0) - www.blender.org, source file: 'Monster.blend'
element vertex 70
property float x
property float y
property float z
property float nx
property float ny
property float nz
property float s
property float t
element face 32
property list uchar uint vertex_indices
end_header
-0.320573 0.320573 1.000000 0.000000 0.000000 1.000000 -0.047088 1.056023
0.320573 -0.320573 1.000000 0.000000 0.000000 1.000000 1.118568 -0.109633
0.320573 0.320573 1.000000 0.000000 0.000000 1.000000 1.118568 1.056023
-0.500000 -0.587375 0.820573 -0.991028 -0.000000 -0.133652 -0.532155 1.510543
-0.500000 0.500000 0.820573 -0.991028 -0.000000 -0.133652 1.444780 1.510543
-0.421029 -0.347093 0.235001 -0.991028 -0.000000 -0.133652 -0.095303 0.445926
-0.421029 -0.347093 0.235001 -1.000000 0.000000 0.000000 -0.095303 0.445926
-0.421029 0.421029 0.000000 -1.000000 0.000000 0.000000 1.301204 0.018675
-0.421029 -0.347093 0.000000 -1.000000 0.000000 0.000000 -0.095303 0.018675
-0.500000 0.500000 0.820573 0.000000 0.990473 -0.137704 -0.373300 1.510543
0.421029 0.421029 0.252551 0.000000 0.990473 -0.137704 1.301204 0.477832
-0.421029 0.421029 0.252551 0.000000 0.990473 -0.137704 -0.229724 0.477832
-0.320573 -0.320573 1.000000 -0.707107 0.000000 0.707107 -0.047088 -0.109633
-0.500000 0.500000 0.820573 -0.707107 0.000000 0.707107 -0.373300 1.382235
-0.500000 -0.587375 0.820573 -0.707107 0.000000 0.707107 -0.373300 -0.594700
0.320573 0.320573 1.000000 0.000000 0.707107 0.707107 1.118568 1.056023
-0.500000 0.500000 0.820573 0.000000 0.707107 0.707107 -0.373300 1.382235
-0.320573 0.320573 1.000000 0.000000 0.707107 0.707107 -0.047088 1.056023
0.320573 -0.320573 1.000000 0.707107 0.000000 0.707107 1.118568 -0.109633
0.500000 0.500000 0.820573 0.707107 0.000000 0.707107 1.444780 1.382235
0.320573 0.320573 1.000000 0.707107 0.000000 0.707107 1.118568 1.056023
-0.320573 -0.320573 1.000000 0.000000 -0.558052 0.829806 -0.047088 -0.109633
0.500000 -0.587375 0.820573 0.000000 -0.558052 0.829806 1.444780 -0.594700
0.320573 -0.320573 1.000000 0.000000 -0.558052 0.829806 1.118568 -0.109633
0.421029 0.421029 0.000000 1.000000 -0.000000 0.000000 1.301204 0.018675
0.421029 -0.347093 0.235001 1.000000 -0.000000 0.000000 -0.095303 0.445926
0.421029 -0.347093 0.000000 1.000000 -0.000000 0.000000 -0.095303 0.018675
-0.421029 0.421029 0.000000 0.000000 0.000000 -1.000000 -0.229724 1.238659
0.421029 -0.347093 0.000000 0.000000 0.000000 -1.000000 1.301204 -0.157848
-0.421029 -0.347093 0.000000 0.000000 0.000000 -1.000000 -0.229724 -0.157848
0.500000 -0.587375 0.820573 0.990068 -0.015205 -0.139762 -0.532155 1.510543
0.423445 -0.510820 0.269933 0.990068 -0.015205 -0.139762 -0.392972 0.509434
0.421029 -0.347093 0.235001 0.990068 -0.015205 -0.139762 -0.095303 0.445926
-0.421029 0.421029 0.252551 0.000000 1.000000 -0.000000 -0.229724 0.477832
0.421029 0.421029 0.000000 0.000000 1.000000 -0.000000 1.301204 0.018675
-0.421029 0.421029 0.000000 0.000000 1.000000 -0.000000 -0.229724 0.018675
0.421029 -0.347093 0.235001 0.000000 -1.000000 0.000000 1.301204 0.445926
-0.421029 -0.347093 0.000000 0.000000 -1.000000 0.000000 -0.229724 0.018675
0.421029 -0.347093 0.000000 0.000000 -1.000000 0.000000 1.301204 0.018675
-0.423445 -0.510820 0.269933 0.000000 -0.208654 -0.977990 -0.234117 1.362563
0.421029 -0.347093 0.235001 0.000000 -0.208654 -0.977990 1.301204 1.660232
0.423445 -0.510820 0.269933 0.000000 -0.208654 -0.977990 1.305597 1.362563
0.500000 -0.587375 0.820573 -0.000000 -0.990473 -0.137704 1.444780 1.510543
-0.423445 -0.510820 0.269933 -0.000000 -0.990473 -0.137704 -0.234117 0.509434
0.423445 -0.510820 0.269933 -0.000000 -0.990473 -0.137704 1.305597 0.509434
-0.320573 -0.320573 1.000000 0.000000 -0.000000 1.000000 -0.047088 -0.109633
-0.421029 0.421029 0.252551 -0.990409 0.003156 -0.138134 1.301204 0.477832
-0.421029 -0.347093 0.235001 -0.990409 0.003156 -0.138134 -0.095303 0.445926
-0.500000 0.500000 0.820573 -0.990409 0.003156 -0.138134 1.444780 1.510543
-0.423445 -0.510820 0.269933 -0.990068 -0.015205 -0.139762 -0.392972 0.509434
-0.500000 -0.587375 0.820573 -0.990068 -0.015205 -0.139762 -0.532155 1.510543
-0.421029 -0.347093 0.235001 -0.990068 -0.015205 -0.139762 -0.095303 0.445926
-0.421029 0.421029 0.252551 -1.000000 -0.000000 0.000000 1.301204 0.477832
0.500000 0.500000 0.820573 0.000000 0.990473 -0.137704 1.444780 1.510543
-0.320573 0.320573 1.000000 -0.707107 0.000000 0.707107 -0.047088 1.056023
0.500000 0.500000 0.820573 -0.000000 0.707107 0.707107 1.444780 1.382235
0.500000 -0.587375 0.820573 0.707107 0.000000 0.707107 1.444780 -0.594700
-0.500000 -0.587375 0.820573 0.000000 -0.558052 0.829806 -0.373300 -0.594700
0.421029 0.421029 0.252551 1.000000 -0.000000 0.000000 1.301204 0.477832
0.421029 0.421029 0.000000 0.000000 0.000000 -1.000000 1.301204 1.238659
0.421029 -0.347093 0.235001 0.990409 0.003156 -0.138134 -0.095303 0.445926
0.421029 0.421029 0.252551 0.990409 0.003156 -0.138134 1.301204 0.477832
0.500000 0.500000 0.820573 0.990409 0.003156 -0.138134 1.444780 1.510543
0.500000 0.500000 0.820573 0.991028 0.000000 -0.133652 1.444780 1.510543
0.500000 -0.587375 0.820573 0.991028 0.000000 -0.133652 -0.532155 1.510543
0.421029 -0.347093 0.235001 0.991028 0.000000 -0.133652 -0.095303 0.445926
0.421029 0.421029 0.252551 0.000000 1.000000 -0.000000 1.301204 0.477832
-0.421029 -0.347093 0.235001 0.000000 -1.000000 0.000000 -0.229724 0.445926
-0.421029 -0.347093 0.235001 -0.000000 -0.208654 -0.977990 -0.229724 1.660232
-0.500000 -0.587375 0.820573 0.000000 -0.990473 -0.137704 -0.373300 1.510543
3 0 1 2
3 3 4 5
3 6 7 8
3 9 10 11
3 12 13 14
3 15 16 17
3 18 19 20
3 21 22 23
3 24 25 26
3 27 28 29
3 30 31 32
3 33 34 35
3 36 37 38
3 39 40 41
3 42 43 44
3 0 45 1
3 46 47 48
3 49 50 51
3 6 52 7
3 9 53 10
3 12 54 13
3 15 55 16
3 18 56 19
3 21 57 22
3 24 58 25
3 27 59 28
3 60 61 62
3 63 64 65
3 33 66 34
3 36 67 37
3 39 68 40
3 42 69 43
