ply
format ascii 1.0
comment Created by Blender 2.78 (sub 0) - www.blender.org, source file: 'Pacman.blend'
element vertex 48
property float x
property float y
property float z
property float nx
property float ny
property float nz
property float s
property float t
element face 24
property list uchar uint vertex_indices
end_header
-0.210217 -0.190653 0.966284 -1.000000 0.000000 0.000000 0.078709 0.681838
-0.210217 -0.065279 0.910481 -1.000000 0.000000 0.000000 0.318166 0.999833
-0.210217 -0.190653 0.910481 -1.000000 0.000000 0.000000 0.000169 0.823376
-0.210217 -0.065279 1.035855 0.000000 1.000000 -0.000000 0.494957 0.364176
-0.084842 -0.065279 0.910481 0.000000 1.000000 -0.000000 0.858630 0.727849
-0.210217 -0.065279 0.910481 0.000000 1.000000 -0.000000 0.494957 0.727849
-0.084842 -0.065279 0.910481 1.000000 -0.000000 0.000000 0.318163 0.000167
-0.084842 -0.190653 0.966284 1.000000 -0.000000 0.000000 0.078708 0.318164
-0.084842 -0.190653 0.910481 1.000000 -0.000000 0.000000 0.000167 0.176626
-0.084842 -0.190653 0.966284 0.000000 -1.000000 0.000000 0.858630 0.890053
-0.210217 -0.190653 0.910481 0.000000 -1.000000 0.000000 0.494957 0.728184
-0.084842 -0.190653 0.910481 0.000000 -1.000000 0.000000 0.858630 0.728184
-0.084842 -0.065279 0.910481 0.000000 0.000000 -1.000000 0.494957 0.363841
-0.210217 -0.190653 0.910481 0.000000 0.000000 -1.000000 0.858630 0.000167
-0.210217 -0.065279 0.910481 0.000000 0.000000 -1.000000 0.858630 0.363841
-0.210217 -0.065279 1.035855 0.000000 -0.485208 0.874399 0.494622 0.681836
-0.084842 -0.190653 0.966284 0.000000 -0.485208 0.874399 0.078708 0.318164
-0.084842 -0.065279 1.035855 0.000000 -0.485208 0.874399 0.494621 0.318163
0.210217 -0.065279 0.910481 1.000000 -0.000000 0.000000 0.318166 0.999833
0.210217 -0.190653 0.966284 1.000000 -0.000000 0.000000 0.078709 0.681838
0.210217 -0.190653 0.910481 1.000000 -0.000000 0.000000 0.000169 0.823376
0.084842 -0.065279 0.910481 0.000000 1.000000 -0.000000 0.858630 0.727849
0.210217 -0.065279 1.035855 0.000000 1.000000 -0.000000 0.494957 0.364176
0.210217 -0.065279 0.910481 0.000000 1.000000 -0.000000 0.494957 0.727849
0.084842 -0.065279 0.910481 -1.000000 0.000000 -0.000000 0.318163 0.000167
0.084842 -0.190653 0.966284 -1.000000 0.000000 -0.000000 0.078708 0.318164
0.084842 -0.065279 1.035855 -1.000000 0.000000 -0.000000 0.494621 0.318163
0.210217 -0.190653 0.910481 0.000000 -1.000000 0.000000 0.494957 0.728184
0.084842 -0.190653 0.966284 0.000000 -1.000000 0.000000 0.858630 0.890053
0.084842 -0.190653 0.910481 0.000000 -1.000000 0.000000 0.858630 0.728184
0.210217 -0.190653 0.910481 -0.000000 -0.000000 -1.000000 0.858630 0.000167
0.084842 -0.065279 0.910481 -0.000000 -0.000000 -1.000000 0.494957 0.363841
0.210217 -0.065279 0.910481 -0.000000 -0.000000 -1.000000 0.858630 0.363841
0.084842 -0.190653 0.966284 0.000000 -0.485208 0.874399 0.078708 0.318164
0.210217 -0.065279 1.035855 0.000000 -0.485208 0.874399 0.494622 0.681836
0.084842 -0.065279 1.035855 0.000000 -0.485208 0.874399 0.494621 0.318163
-0.210217 -0.065279 1.035855 -1.000000 -0.000000 0.000000 0.494622 0.681836
-0.084842 -0.065279 1.035855 0.000000 1.000000 -0.000000 0.858630 0.364176
-0.084842 -0.065279 1.035855 1.000000 -0.000000 0.000000 0.494621 0.318163
-0.210217 -0.190653 0.966284 0.000000 -1.000000 0.000000 0.494957 0.890053
-0.084842 -0.190653 0.910481 0.000000 0.000000 -1.000000 0.494957 0.000167
-0.210217 -0.190653 0.966284 0.000000 -0.485208 0.874399 0.078709 0.681838
0.210217 -0.065279 1.035855 1.000000 -0.000000 0.000000 0.494622 0.681836
0.084842 -0.065279 1.035855 0.000000 1.000000 0.000000 0.858630 0.364176
0.084842 -0.190653 0.910481 -1.000000 0.000000 0.000000 0.000167 0.176626
0.210217 -0.190653 0.966284 0.000000 -1.000000 0.000000 0.494957 0.890053
0.084842 -0.190653 0.910481 0.000000 0.000000 -1.000000 0.494957 0.000167
0.210217 -0.190653 0.966284 0.000000 -0.485208 0.874399 0.078709 0.681838
3 0 1 2
3 3 4 5
3 6 7 8
3 9 10 11
3 12 13 14
3 15 16 17
3 18 19 20
3 21 22 23
3 24 25 26
3 27 28 29
3 30 31 32
3 33 34 35
3 0 36 1
3 3 37 4
3 6 38 7
3 9 39 10
3 12 40 13
3 15 41 16
3 18 42 19
3 21 43 22
3 24 44 25
3 27 45 28
3 30 46 31
3 33 47 34
