ply
format ascii 1.0
comment Created by Blender 2.78 (sub 0) - www.blender.org, source file: 'Pacman.blend'
element vertex 72
property float x
property float y
property float z
property float nx
property float ny
property float nz
property float s
property float t
element face 36
property list uchar uint vertex_indices
end_header
-0.308090 0.378470 0.448070 -1.000000 0.000000 0.000000 0.458733 0.293070
-0.308090 0.441241 0.342146 -1.000000 0.000000 0.000000 0.541267 0.375604
-0.308090 0.378470 0.342146 -1.000000 0.000000 0.000000 0.458733 0.375604
-0.308090 0.441241 0.448070 0.000000 1.000000 -0.000000 0.458733 0.375901
-0.202165 0.441241 0.342146 0.000000 1.000000 -0.000000 0.541267 0.458436
-0.308090 0.441241 0.342146 0.000000 1.000000 -0.000000 0.458733 0.458436
-0.202165 0.441241 0.448070 1.000000 0.000000 -0.000000 0.624099 0.624099
-0.202165 0.378470 0.342146 1.000000 0.000000 -0.000000 0.541564 0.541564
-0.202165 0.441241 0.342146 1.000000 0.000000 -0.000000 0.624099 0.541564
-0.202165 0.378470 0.448070 0.000000 -1.000000 0.000000 0.706930 0.375604
-0.308090 0.378470 0.342146 0.000000 -1.000000 0.000000 0.624396 0.293070
-0.202165 0.378470 0.342146 0.000000 -1.000000 0.000000 0.706930 0.293070
-0.202165 0.441241 0.342146 0.000000 0.000000 -1.000000 0.458733 0.624099
-0.308090 0.378470 0.342146 0.000000 0.000000 -1.000000 0.541267 0.541564
-0.308090 0.441241 0.342146 0.000000 0.000000 -1.000000 0.541267 0.624099
-0.308090 0.441241 0.448070 0.000000 0.000000 1.000000 0.375901 0.624099
-0.202165 0.378470 0.448070 0.000000 0.000000 1.000000 0.458436 0.541564
-0.202165 0.441241 0.448070 0.000000 0.000000 1.000000 0.458436 0.624099
-0.129387 0.378470 0.448070 -1.000000 0.000000 0.000000 0.293070 0.541564
-0.129387 0.441241 0.342146 -1.000000 0.000000 0.000000 0.375604 0.624099
-0.129387 0.378470 0.342146 -1.000000 0.000000 0.000000 0.293070 0.624099
-0.129387 0.441241 0.448070 0.000000 1.000000 -0.000000 0.293070 0.375901
-0.023463 0.441241 0.342146 0.000000 1.000000 -0.000000 0.375604 0.458436
-0.129387 0.441241 0.342146 0.000000 1.000000 -0.000000 0.293070 0.458436
-0.023463 0.441241 0.448070 1.000000 0.000000 -0.000000 0.624099 0.541267
-0.023463 0.378470 0.342146 1.000000 0.000000 -0.000000 0.541564 0.458733
-0.023463 0.441241 0.342146 1.000000 0.000000 -0.000000 0.624099 0.458733
-0.023463 0.378470 0.448070 0.000000 -1.000000 0.000000 0.458436 0.458436
-0.129387 0.378470 0.342146 0.000000 -1.000000 0.000000 0.375901 0.375901
-0.023463 0.378470 0.342146 0.000000 -1.000000 0.000000 0.458436 0.375901
-0.023463 0.441241 0.342146 0.000000 0.000000 -1.000000 0.458436 0.293070
-0.129387 0.378470 0.342146 0.000000 0.000000 -1.000000 0.375901 0.375604
-0.129387 0.441241 0.342146 0.000000 0.000000 -1.000000 0.375901 0.293070
-0.129387 0.441241 0.448070 0.000000 0.000000 1.000000 0.293070 0.375604
-0.023463 0.378470 0.448070 0.000000 0.000000 1.000000 0.375604 0.293070
-0.023463 0.441241 0.448070 0.000000 0.000000 1.000000 0.375604 0.375604
0.204651 0.378470 0.448070 -1.000000 0.000000 0.000000 0.293070 0.458733
0.204651 0.441241 0.342146 -1.000000 0.000000 0.000000 0.375604 0.541267
0.204651 0.378470 0.342146 -1.000000 0.000000 0.000000 0.293070 0.541267
0.204651 0.441241 0.448070 0.000000 1.000000 -0.000000 0.458733 0.458733
0.310575 0.441241 0.342146 0.000000 1.000000 -0.000000 0.541267 0.541267
0.204651 0.441241 0.342146 0.000000 1.000000 -0.000000 0.458733 0.541267
0.310575 0.441241 0.448070 1.000000 0.000000 -0.000000 0.375604 0.706930
0.310575 0.378470 0.342146 1.000000 0.000000 -0.000000 0.293070 0.624396
0.310575 0.441241 0.342146 1.000000 0.000000 -0.000000 0.375604 0.624396
0.310575 0.378470 0.448070 0.000000 -1.000000 0.000000 0.458436 0.541267
0.204651 0.378470 0.342146 0.000000 -1.000000 0.000000 0.375901 0.458733
0.310575 0.378470 0.342146 0.000000 -1.000000 0.000000 0.458436 0.458733
0.310575 0.441241 0.342146 0.000000 0.000000 -1.000000 0.541564 0.375604
0.204651 0.378470 0.342146 0.000000 0.000000 -1.000000 0.624099 0.293070
0.204651 0.441241 0.342146 0.000000 0.000000 -1.000000 0.624099 0.375604
0.204651 0.441241 0.448070 0.000000 0.000000 1.000000 0.541564 0.458436
0.310575 0.378470 0.448070 0.000000 0.000000 1.000000 0.624099 0.375901
0.310575 0.441241 0.448070 0.000000 0.000000 1.000000 0.624099 0.458436
-0.308090 0.441241 0.448070 -1.000000 0.000000 0.000000 0.541267 0.293070
-0.202165 0.441241 0.448070 0.000000 1.000000 -0.000000 0.541267 0.375901
-0.202165 0.378470 0.448070 1.000000 0.000000 0.000000 0.541564 0.624099
-0.308090 0.378470 0.448070 0.000000 -1.000000 0.000000 0.624396 0.375604
-0.202165 0.378470 0.342146 0.000000 0.000000 -1.000000 0.458733 0.541564
-0.308090 0.378470 0.448070 0.000000 -0.000000 1.000000 0.375901 0.541564
-0.129387 0.441241 0.448070 -1.000000 0.000000 0.000000 0.375604 0.541564
-0.023463 0.441241 0.448070 0.000000 1.000000 -0.000000 0.375604 0.375901
-0.023463 0.378470 0.448070 1.000000 0.000000 0.000000 0.541564 0.541267
-0.129387 0.378470 0.448070 0.000000 -1.000000 0.000000 0.375901 0.458436
-0.023463 0.378470 0.342146 0.000000 0.000000 -1.000000 0.458436 0.375604
-0.129387 0.378470 0.448070 0.000000 -0.000000 1.000000 0.293070 0.293070
0.204651 0.441241 0.448070 -1.000000 0.000000 0.000000 0.375604 0.458733
0.310575 0.441241 0.448070 0.000000 1.000000 -0.000000 0.541267 0.458733
0.310575 0.378470 0.448070 1.000000 0.000000 0.000000 0.293070 0.706930
0.204651 0.378470 0.448070 0.000000 -1.000000 0.000000 0.375901 0.541267
0.310575 0.378470 0.342146 0.000000 0.000000 -1.000000 0.541564 0.293070
0.204651 0.378470 0.448070 0.000000 -0.000000 1.000000 0.541564 0.375901
3 0 1 2
3 3 4 5
3 6 7 8
3 9 10 11
3 12 13 14
3 15 16 17
3 18 19 20
3 21 22 23
3 24 25 26
3 27 28 29
3 30 31 32
3 33 34 35
3 36 37 38
3 39 40 41
3 42 43 44
3 45 46 47
3 48 49 50
3 51 52 53
3 0 54 1
3 3 55 4
3 6 56 7
3 9 57 10
3 12 58 13
3 15 59 16
3 18 60 19
3 21 61 22
3 24 62 25
3 27 63 28
3 30 64 31
3 33 65 34
3 36 66 37
3 39 67 40
3 42 68 43
3 45 69 46
3 48 70 49
3 51 71 52
