ply
format ascii 1.0
comment Created by Blender 2.78 (sub 0) - www.blender.org, source file: 'Pacman.blend'
element vertex 24
property float x
property float y
property float z
property float nx
property float ny
property float nz
property float s
property float t
element face 12
property list uchar uint vertex_indices
end_header
0.068827 0.378470 0.463925 -1.000000 0.000000 0.000000 0.293070 0.458733
0.068827 0.441241 0.358001 -1.000000 0.000000 0.000000 0.375604 0.541267
0.068827 0.378470 0.358001 -1.000000 0.000000 0.000000 0.293070 0.541267
0.068827 0.441241 0.463925 0.000000 1.000000 -0.000000 0.458733 0.458733
0.174752 0.441241 0.358001 0.000000 1.000000 -0.000000 0.541267 0.541267
0.068827 0.441241 0.358001 0.000000 1.000000 -0.000000 0.458733 0.541267
0.174752 0.441241 0.463925 1.000000 0.000000 -0.000000 0.375604 0.706930
0.174752 0.378470 0.358001 1.000000 0.000000 -0.000000 0.293070 0.624396
0.174752 0.441241 0.358001 1.000000 0.000000 -0.000000 0.375604 0.624396
0.174752 0.378470 0.463925 0.000000 -1.000000 0.000000 0.458436 0.541267
0.068827 0.378470 0.358001 0.000000 -1.000000 0.000000 0.375901 0.458733
0.174752 0.378470 0.358001 0.000000 -1.000000 0.000000 0.458436 0.458733
0.174752 0.441241 0.358001 0.000000 0.000000 -1.000000 0.541564 0.375604
0.068827 0.378470 0.358001 0.000000 0.000000 -1.000000 0.624099 0.293070
0.068827 0.441241 0.358001 0.000000 0.000000 -1.000000 0.624099 0.375604
0.068827 0.441241 0.463925 0.000000 0.000000 1.000000 0.541564 0.458436
0.174752 0.378470 0.463925 0.000000 0.000000 1.000000 0.624099 0.375901
0.174752 0.441241 0.463925 0.000000 0.000000 1.000000 0.624099 0.458436
0.068827 0.441241 0.463925 -1.000000 0.000000 0.000000 0.375604 0.458733
0.174752 0.441241 0.463925 0.000000 1.000000 -0.000000 0.541267 0.458733
0.174752 0.378470 0.463925 1.000000 0.000000 0.000000 0.293070 0.706930
0.068827 0.378470 0.463925 0.000000 -1.000000 0.000000 0.375901 0.541267
0.174752 0.378470 0.358001 0.000000 0.000000 -1.000000 0.541564 0.293070
0.068827 0.378470 0.463925 0.000000 -0.000000 1.000000 0.541564 0.375901
3 0 1 2
3 3 4 5
3 6 7 8
3 9 10 11
3 12 13 14
3 15 16 17
3 0 18 1
3 3 19 4
3 6 20 7
3 9 21 10
3 12 22 13
3 15 23 16
