ply
format ascii 1.0
comment Created by Blender 2.78 (sub 0) - www.blender.org, source file: 'Pacman.blend'
element vertex 86
property float x
property float y
property float z
property float nx
property float ny
property float nz
property float s
property float t
element face 44
property list uchar uint vertex_indices
end_header
0.444928 0.444928 0.073802 0.000000 1.000000 0.000000 0.354151 0.756780
-0.444928 0.444928 0.347187 0.000000 1.000000 0.000000 0.000306 0.648071
0.444928 0.444928 0.347187 0.000000 1.000000 0.000000 0.354151 0.648071
0.371596 0.371596 0.347187 -1.000000 0.000001 0.000000 0.893546 0.291392
0.371596 -0.238616 0.108471 -1.000000 0.000001 0.000000 0.650900 0.386316
0.371596 -0.238616 0.347187 -1.000000 0.000001 0.000000 0.650900 0.291392
0.444928 -0.444928 0.347187 -0.000000 -1.000000 -0.000001 0.354151 0.505130
-0.444928 -0.444928 0.073802 -0.000000 -1.000000 -0.000001 0.000306 0.396420
0.444928 -0.444928 0.073802 -0.000000 -1.000000 -0.000001 0.354151 0.396421
-0.444928 -0.444928 0.073802 -1.000000 0.000000 -0.000000 0.000306 0.907755
-0.444928 0.444928 0.347187 -1.000000 0.000000 -0.000000 0.354151 0.799045
-0.444928 0.444928 0.073802 -1.000000 0.000000 -0.000000 0.354151 0.907755
0.444928 0.444928 0.347187 1.000000 -0.000000 -0.000001 0.708608 0.922877
0.444928 -0.444928 0.073802 1.000000 -0.000000 -0.000001 0.354763 0.814168
0.444928 0.444928 0.073802 1.000000 -0.000000 -0.000001 0.708608 0.814168
0.371596 -0.238616 0.347187 -0.000000 0.000000 1.000000 0.324989 0.082349
0.444928 0.444928 0.347187 -0.000000 0.000000 1.000000 0.354152 0.354152
0.371596 0.371596 0.347187 -0.000000 0.000000 1.000000 0.324992 0.324992
-0.444928 0.444928 0.347187 -0.000000 -0.000000 1.000000 0.000309 0.354156
-0.371596 0.371596 0.347187 -0.000000 -0.000000 1.000000 0.029469 0.324995
-0.371596 -0.238615 0.347187 0.000000 1.000000 -0.000000 0.354763 0.676979
0.371596 -0.238616 0.705119 0.000000 1.000000 -0.000000 0.650288 0.534650
0.371596 -0.238616 0.347187 0.000000 1.000000 -0.000000 0.650289 0.676979
-0.371596 -0.238615 0.347187 -0.000000 0.000000 1.000000 0.029467 0.082345
-0.444928 -0.444928 0.347187 -0.000000 0.000000 1.000000 0.000306 0.000306
-0.371596 0.371596 0.108471 0.000000 0.000000 1.000000 0.354763 0.534039
0.371596 -0.238616 0.108471 0.000000 0.000000 1.000000 0.650288 0.291392
0.371596 0.371596 0.108471 0.000000 0.000000 1.000000 0.650289 0.534039
-0.371596 -0.238615 0.347187 1.000000 -0.000000 0.000000 0.645849 0.273628
-0.371596 0.371596 0.108471 1.000000 -0.000000 0.000000 0.888496 0.178704
-0.371596 0.371596 0.347187 1.000000 -0.000000 0.000000 0.888496 0.273628
-0.371596 0.371596 0.347187 -0.000000 -1.000000 -0.000000 0.645849 0.177991
0.371596 0.371596 0.108471 -0.000000 -1.000000 -0.000000 0.941408 0.083169
0.371596 0.371596 0.347187 -0.000000 -1.000000 -0.000000 0.941375 0.178093
-0.371596 -0.238615 0.108471 0.000000 1.000000 0.000000 0.354763 0.771903
0.371596 -0.238616 0.705119 0.000000 -0.000000 1.000000 0.970506 0.082456
-0.444928 -0.444928 0.705119 0.000000 -0.000000 1.000000 0.645849 0.000306
0.444928 -0.444928 0.705119 0.000000 -0.000000 1.000000 0.999695 0.000428
0.444928 -0.444928 0.347187 -0.000000 -1.000000 0.000000 0.354151 0.505130
-0.444928 -0.444928 0.705119 -0.000000 -1.000000 0.000000 0.000306 0.647460
-0.444928 -0.444928 0.347187 -0.000000 -1.000000 0.000000 0.000306 0.505130
-0.444928 -0.444928 0.347187 -0.942249 0.334913 0.000000 0.737967 0.529897
-0.371596 -0.238615 0.705119 -0.942249 0.334913 0.000000 0.650900 0.672227
-0.371596 -0.238615 0.347187 -0.942249 0.334913 0.000000 0.650900 0.529897
0.371596 -0.238616 0.347187 0.942249 0.334913 -0.000000 0.738016 0.386957
0.444928 -0.444928 0.705119 0.942249 0.334913 -0.000000 0.650900 0.529256
0.444928 -0.444928 0.347187 0.942249 0.334913 -0.000000 0.650949 0.386927
0.444928 0.444928 0.073802 0.649138 0.000000 -0.760671 0.708608 0.814168
0.365246 -0.365246 0.005804 0.649138 0.000000 -0.760671 0.386448 0.772514
0.365246 0.365246 0.005804 0.649138 0.000000 -0.760671 0.676924 0.772514
-0.365246 0.365246 0.005804 0.000000 0.649138 -0.760670 0.031990 0.798434
0.444928 0.444928 0.073802 0.000000 0.649138 -0.760670 0.354151 0.756780
0.365246 0.365246 0.005804 0.000000 0.649138 -0.760670 0.322466 0.798434
-0.444928 -0.444928 0.073802 -0.000000 -0.649138 -0.760671 0.000306 0.396420
0.365246 -0.365246 0.005804 -0.000000 -0.649138 -0.760671 0.322466 0.354767
0.444928 -0.444928 0.073802 -0.000000 -0.649138 -0.760671 0.354151 0.396421
-0.444928 0.444928 0.073802 -0.649138 0.000000 -0.760671 0.354151 0.907755
-0.365246 -0.365246 0.005804 -0.649138 0.000000 -0.760671 0.031990 0.949408
-0.444928 -0.444928 0.073802 -0.649138 0.000000 -0.760671 0.000306 0.907755
0.365246 0.365246 0.005804 0.000000 -0.000000 -1.000000 0.645238 0.290781
-0.365246 -0.365246 0.005804 0.000000 -0.000000 -1.000000 0.354763 0.000306
-0.365246 0.365246 0.005804 0.000000 -0.000000 -1.000000 0.645238 0.000306
-0.444928 0.444928 0.073802 0.000000 1.000000 0.000000 0.000306 0.756780
0.371596 0.371596 0.108471 -1.000000 0.000001 0.000000 0.893546 0.386316
-0.444928 -0.444928 0.073802 -0.000000 -1.000000 -0.000000 0.000306 0.396420
-0.444928 -0.444928 0.347187 -1.000000 0.000000 -0.000000 0.000306 0.799045
0.444928 0.444928 0.347187 1.000000 -0.000001 0.000001 0.708608 0.922877
0.444928 -0.444928 0.347187 1.000000 -0.000001 0.000001 0.354763 0.922878
0.444928 -0.444928 0.073802 1.000000 -0.000001 0.000001 0.354763 0.814168
0.444928 -0.444928 0.347187 0.000000 0.000000 1.000000 0.354148 0.000310
-0.371596 -0.238615 0.705119 0.000000 1.000000 0.000000 0.354763 0.534650
-0.371596 -0.238615 0.108471 0.000000 -0.000000 1.000000 0.354763 0.291392
-0.371596 -0.238615 0.108471 1.000000 -0.000000 0.000000 0.645849 0.178704
-0.371596 0.371596 0.108471 -0.000000 -1.000000 0.000000 0.645882 0.083067
0.371596 -0.238616 0.108471 0.000000 1.000000 -0.000000 0.650289 0.771903
-0.371596 -0.238615 0.705119 -0.000000 0.000000 1.000000 0.674981 0.082354
0.444928 -0.444928 0.705119 -0.000000 -1.000000 -0.000000 0.354151 0.647460
-0.444928 -0.444928 0.705119 -0.942249 0.334913 0.000000 0.737967 0.672227
0.371596 -0.238616 0.705119 0.942249 0.334913 0.000000 0.737967 0.529286
0.444928 -0.444928 0.073802 0.649138 -0.000000 -0.760671 0.354763 0.814168
-0.365246 0.365246 0.005804 0.000000 0.649138 -0.760671 0.031990 0.798434
-0.444928 0.444928 0.073802 0.000000 0.649138 -0.760671 0.000306 0.756780
0.444928 0.444928 0.073802 0.000000 0.649138 -0.760671 0.354151 0.756780
-0.365246 -0.365246 0.005804 -0.000000 -0.649138 -0.760671 0.031991 0.354767
-0.365246 0.365246 0.005804 -0.649138 0.000000 -0.760671 0.322466 0.949409
0.365246 -0.365246 0.005804 0.000000 0.000000 -1.000000 0.354763 0.290781
3 0 1 2
3 3 4 5
3 6 7 8
3 9 10 11
3 12 13 14
3 15 16 17
3 17 18 19
3 20 21 22
3 23 18 24
3 25 26 27
3 28 29 30
3 31 32 33
3 22 34 20
3 35 36 37
3 38 39 40
3 41 42 43
3 44 45 46
3 47 48 49
3 50 51 52
3 53 54 55
3 56 57 58
3 59 60 61
3 0 62 1
3 3 63 4
3 38 40 64
3 9 65 10
3 66 67 68
3 15 69 16
3 17 16 18
3 20 70 21
3 23 19 18
3 25 71 26
3 28 72 29
3 31 73 32
3 22 74 34
3 35 75 36
3 38 76 39
3 41 77 42
3 44 78 45
3 47 79 48
3 80 81 82
3 53 83 54
3 56 84 57
3 59 85 60
