ply
format ascii 1.0
comment Created by Blender 2.78 (sub 0) - www.blender.org, source file: 'Pacman.blend'
element vertex 84
property float x
property float y
property float z
property float nx
property float ny
property float nz
property float s
property float t
element face 40
property list uchar uint vertex_indices
end_header
0.446793 -0.446716 0.816470 0.000000 -1.000000 -0.000001 0.496423 0.384389
-0.446793 -0.446716 0.464025 0.000000 -1.000000 -0.000001 0.647931 0.000259
0.446793 -0.446716 0.464025 0.000000 -1.000000 -0.000001 0.647931 0.384389
0.408599 -0.230944 0.449004 -1.000000 -0.000001 -0.000000 0.908154 0.260482
0.408598 0.373197 0.596939 -1.000000 -0.000001 -0.000000 0.648448 0.324075
0.408598 0.373197 0.449004 -1.000000 -0.000001 -0.000000 0.648448 0.260482
-0.446793 0.275656 0.773714 -1.000000 -0.000000 0.000000 0.537262 0.889304
-0.446793 -0.446716 0.464025 -1.000000 -0.000000 0.000000 0.762424 0.637403
-0.446793 -0.030124 0.916319 -1.000000 -0.000000 0.000000 0.682301 0.889304
0.408599 -0.230944 0.449004 0.365988 0.000001 -0.930619 0.392592 0.676743
0.446793 0.446871 0.464025 0.365988 0.000001 -0.930619 0.399070 0.384907
0.446793 -0.446716 0.464025 0.365988 0.000001 -0.930619 0.413773 0.768757
-0.408599 -0.230945 0.449004 0.000000 -0.069446 -0.997586 0.016678 0.769274
0.446793 -0.446716 0.464025 0.000000 -0.069446 -0.997586 0.384389 0.862254
-0.446793 -0.446716 0.464025 0.000000 -0.069446 -0.997586 0.000259 0.862254
0.408598 0.373197 0.449004 -0.000000 0.199772 -0.979842 0.382652 0.417230
-0.446793 0.446871 0.464025 -0.000000 0.199772 -0.979842 0.014936 0.384919
0.446793 0.446871 0.464025 -0.000000 0.199772 -0.979842 0.399070 0.384907
-0.408599 -0.230945 0.449004 -0.365985 0.000000 -0.930621 0.021433 0.676746
-0.446793 0.446871 0.464025 -0.365985 0.000000 -0.930621 0.014936 0.384919
-0.408599 0.373197 0.449004 -0.365985 0.000000 -0.930621 0.031356 0.417241
-0.408599 -0.230945 0.596938 -0.000000 0.000000 -1.000000 0.648448 0.259964
0.408598 0.373197 0.596939 -0.000000 0.000000 -1.000000 0.999741 0.000259
0.408599 -0.230944 0.596938 -0.000000 0.000000 -1.000000 0.999741 0.259964
-0.408599 -0.230945 0.449004 1.000000 0.000000 0.000000 0.259964 0.990476
-0.408599 0.373197 0.596939 1.000000 0.000000 0.000000 0.000259 0.926883
-0.408599 -0.230945 0.596938 1.000000 0.000000 0.000000 0.259964 0.926883
-0.408599 -0.230945 0.449004 -0.000000 1.000000 0.000001 0.414291 0.953415
0.408599 -0.230944 0.596938 -0.000000 1.000000 0.000001 0.765583 0.889822
0.408599 -0.230944 0.449004 -0.000000 1.000000 0.000001 0.765583 0.953415
0.408598 0.373197 0.449004 0.000001 -1.000000 -0.000001 0.351551 0.862771
-0.408599 0.373197 0.596939 0.000001 -1.000000 -0.000001 0.000259 0.926365
-0.408599 0.373197 0.449004 0.000001 -1.000000 -0.000001 0.000259 0.862772
-0.446793 -0.263739 0.916318 0.000000 -0.479009 0.877810 0.406817 0.000259
0.446793 -0.446716 0.816470 0.000000 -0.479009 0.877810 0.496423 0.384389
0.446793 -0.263738 0.916318 0.000000 -0.479009 0.877810 0.406817 0.384389
0.446793 0.446871 0.464025 -0.000000 1.000000 0.000001 0.000259 0.384389
-0.446793 0.446871 0.580942 -0.000000 1.000000 0.000001 0.050519 0.000259
0.446793 0.446871 0.580942 -0.000000 1.000000 0.000001 0.050519 0.384389
0.446793 -0.263738 0.916318 0.000000 -0.000001 1.000000 0.406817 0.384389
-0.446793 -0.030124 0.916319 0.000000 -0.000001 1.000000 0.306391 0.000259
-0.446793 -0.263739 0.916318 0.000000 -0.000001 1.000000 0.406817 0.000259
0.446793 -0.446716 0.464025 1.000000 0.000001 -0.000000 0.762367 0.636886
0.446793 0.446871 0.464025 1.000000 0.000001 -0.000000 0.414291 0.474408
0.446793 0.275656 0.773714 1.000000 0.000001 -0.000000 0.537293 0.384907
-0.446793 -0.030124 0.916319 -0.000000 0.422661 0.906288 0.306391 0.000259
0.446793 0.275656 0.773714 -0.000000 0.422661 0.906288 0.161353 0.384389
-0.446793 0.275656 0.773714 -0.000000 0.422661 0.906288 0.161353 0.000259
0.446793 0.446871 0.580942 -0.000000 0.747675 0.664065 0.050519 0.384389
-0.446793 0.275656 0.773714 -0.000000 0.747675 0.664065 0.161353 0.000259
0.446793 0.275656 0.773714 -0.000000 0.747675 0.664065 0.161353 0.384389
-0.446793 -0.446716 0.816470 0.000000 -1.000000 -0.000001 0.496423 0.000259
0.408599 -0.230944 0.596938 -1.000000 -0.000001 -0.000000 0.908154 0.324075
-0.446793 -0.263739 0.916318 -1.000000 -0.000000 0.000000 0.773315 0.846858
-0.446793 0.446871 0.580942 -1.000000 -0.000000 0.000000 0.435534 0.845310
-0.446793 0.446871 0.464025 -1.000000 -0.000000 0.000000 0.414291 0.799760
-0.446793 -0.446716 0.816470 -1.000000 -0.000000 0.000000 0.826460 0.774713
0.408599 -0.230944 0.449004 0.365985 0.000001 -0.930621 0.392592 0.676743
0.408598 0.373197 0.449004 0.365985 0.000001 -0.930621 0.382652 0.417230
0.446793 0.446871 0.464025 0.365985 0.000001 -0.930621 0.399070 0.384907
0.408599 -0.230944 0.449004 0.000000 -0.069446 -0.997586 0.367970 0.769274
-0.408599 0.373197 0.449004 -0.000000 0.199772 -0.979842 0.031356 0.417241
-0.408599 -0.230945 0.449004 -0.365987 0.000000 -0.930620 0.021433 0.676746
-0.446793 -0.446716 0.464025 -0.365987 0.000000 -0.930620 0.000259 0.768757
-0.446793 0.446871 0.464025 -0.365987 0.000000 -0.930620 0.014936 0.384919
-0.408599 0.373197 0.596939 -0.000000 0.000000 -1.000000 0.648448 0.000259
-0.408599 0.373197 0.449004 1.000000 0.000000 0.000000 0.000259 0.990476
-0.408599 -0.230945 0.596938 -0.000000 1.000000 0.000001 0.414291 0.889822
0.408598 0.373197 0.596939 0.000001 -1.000000 -0.000001 0.351552 0.926365
-0.446793 -0.446716 0.816470 0.000000 -0.479009 0.877810 0.496423 0.000259
0.446793 0.446871 0.464025 -0.000000 1.000000 0.000000 0.000259 0.384389
-0.446793 0.446871 0.464025 -0.000000 1.000000 0.000000 0.000259 0.000259
-0.446793 0.446871 0.580942 -0.000000 1.000000 0.000000 0.050519 0.000259
0.446793 -0.030124 0.916319 0.000000 -0.000001 1.000000 0.306391 0.384389
0.446793 -0.030124 0.916319 1.000000 -0.000000 0.000000 0.682332 0.384957
0.446793 -0.263738 0.916318 1.000000 -0.000000 0.000000 0.773331 0.427435
0.446793 -0.446716 0.464025 1.000000 -0.000000 0.000000 0.762367 0.636886
0.446793 -0.446716 0.816470 1.000000 0.000000 0.000000 0.826451 0.499599
0.446793 0.446871 0.464025 1.000000 0.000000 -0.000001 0.414291 0.474408
0.446793 0.446871 0.580942 1.000000 0.000000 -0.000001 0.435549 0.428866
0.446793 0.275656 0.773714 1.000000 0.000000 -0.000001 0.537293 0.384907
0.446793 0.275656 0.773714 1.000000 0.000000 0.000000 0.537293 0.384907
0.446793 -0.030124 0.916319 -0.000000 0.422661 0.906288 0.306391 0.384389
-0.446793 0.446871 0.580942 -0.000000 0.747675 0.664065 0.050519 0.000259
3 0 1 2
3 3 4 5
3 6 7 8
3 9 10 11
3 12 13 14
3 15 16 17
3 18 19 20
3 21 22 23
3 24 25 26
3 27 28 29
3 30 31 32
3 33 34 35
3 36 37 38
3 39 40 41
3 42 43 44
3 45 46 47
3 48 49 50
3 0 51 1
3 3 52 4
3 53 8 7
3 6 54 55
3 55 7 6
3 56 53 7
3 57 58 59
3 12 60 13
3 15 61 16
3 62 63 64
3 21 65 22
3 24 66 25
3 27 67 28
3 30 68 31
3 33 69 34
3 70 71 72
3 39 73 40
3 74 75 76
3 77 76 75
3 78 79 80
3 81 74 76
3 45 82 46
3 48 83 49
