ply
format ascii 1.0
comment Created by Blender 2.78 (sub 0) - www.blender.org, source file: 'Room.blend'
element vertex 340
property float x
property float y
property float z
property float nx
property float ny
property float nz
property float s
property float t
element face 284
property list uchar uint vertex_indices
end_header
6.999995 -10.000006 0.000000 -1.000000 0.000000 -0.000001 -3.577817 0.351454
6.999993 -8.658701 3.000000 -1.000000 0.000000 -0.000001 -3.072439 -1.084602
6.999996 -8.658693 0.000000 -1.000000 0.000000 -0.000001 -3.072439 0.351456
-7.000001 0.888630 0.272074 1.000000 -0.000000 0.000001 1.144853 -2.392791
-7.000002 9.999993 3.000000 1.000000 -0.000000 0.000001 4.577817 -1.086981
-7.000004 0.888623 3.000000 1.000000 -0.000000 0.000001 1.144853 -1.086971
5.730325 9.999995 0.000000 -0.000001 -1.000000 -0.000002 1.218692 0.353837
7.000000 9.999988 3.000000 -0.000001 -1.000000 -0.000002 1.697078 1.789894
5.730322 9.999989 3.000000 -0.000001 -1.000000 -0.000002 1.218691 1.789894
-3.005883 9.999991 3.000000 0.000000 -0.000000 -1.000000 4.116081 -0.937564
-7.000004 0.888623 3.000000 0.000000 -0.000000 -1.000000 0.799657 -2.774371
-7.000002 9.999993 3.000000 0.000000 -0.000000 -1.000000 4.113758 -2.783722
-7.000004 -0.121419 3.000000 1.000000 -0.000000 0.000001 0.764291 -1.086970
-7.000001 -0.121412 0.000000 1.000000 -0.000000 0.000001 0.764291 -2.523028
7.000000 0.888622 0.000000 -1.000000 0.000000 -0.000001 0.524780 0.351467
7.000000 9.999988 3.000000 -1.000000 0.000000 -0.000001 3.957745 -1.084579
7.000003 9.999994 0.000000 -1.000000 0.000000 -0.000001 3.957745 0.351478
-3.005880 9.999998 0.272074 0.000000 -0.000000 1.000000 1.519487 -4.746112
-7.000001 0.888630 0.272074 0.000000 -0.000000 1.000000 3.173963 0.085118
-3.005883 0.888627 0.272074 0.000000 -0.000000 1.000000 1.520752 0.044074
-7.000002 -5.976061 0.000000 1.000000 -0.000000 0.000001 -1.441613 -2.523022
-7.000005 -5.976068 3.000000 1.000000 -0.000000 0.000001 -1.441613 -1.086964
-3.005885 0.888621 3.000000 0.000000 0.000000 -1.000000 0.809885 -0.928728
-7.000004 -0.121419 3.000000 0.000000 0.000000 -1.000000 0.431850 -2.771168
6.999999 -0.121419 0.000000 -1.000000 0.000000 -0.000001 0.144218 0.351466
6.999997 0.888615 3.000000 -1.000000 0.000000 -0.000001 0.524780 -1.084590
-3.005883 0.888627 0.272074 -0.000000 -0.260098 0.965582 1.520752 0.044074
-7.000001 -0.121412 0.000000 -0.000000 -0.260098 0.965582 3.165573 0.635200
-3.005883 -0.121414 0.000000 -0.000000 -0.260098 0.965582 1.506945 0.593571
2.445211 0.132896 1.872149 -0.000000 -1.000000 -0.000001 0.008229 0.090386
2.940001 0.132895 3.000000 -0.000000 -1.000000 -0.000001 0.260776 0.821755
2.445211 0.132895 3.000000 -0.000000 -1.000000 -0.000001 0.008229 0.821755
2.194256 9.999996 0.000000 0.000000 0.000000 1.000000 -0.648698 -4.741515
2.940003 0.634306 0.000000 0.000000 0.000000 1.000000 -0.959605 0.184408
3.190968 9.999996 0.000000 0.000000 0.000000 1.000000 -1.061352 -4.741578
-1.965853 9.999998 0.000000 -0.000000 -1.000000 -0.000002 -1.681060 0.353837
2.194253 9.999990 3.000000 -0.000000 -1.000000 -0.000002 -0.113623 1.789894
-1.965856 9.999991 3.000000 -0.000000 -1.000000 -0.000002 -1.681061 1.789894
2.194249 -10.000003 0.000000 0.000000 1.000000 0.000003 -1.618519 3.228311
3.190958 -10.000010 3.000000 0.000000 1.000000 0.000003 -1.242981 1.792254
3.190960 -10.000003 0.000000 0.000000 1.000000 0.000003 -1.242980 3.228311
2.194249 -8.658691 0.000000 0.000000 0.000000 1.000000 -0.669289 5.042607
3.190960 -10.000003 0.000000 0.000000 0.000000 1.000000 -1.072196 5.734813
3.190961 -8.658691 0.000000 0.000000 0.000000 1.000000 -1.074237 5.042543
4.460639 -8.658691 0.000000 0.000000 -0.000000 1.000000 -1.592206 5.043643
4.460639 -10.000004 0.000000 0.000000 -0.000000 1.000000 -1.589990 5.738874
3.190960 -10.000003 0.000000 0.000001 1.000000 0.000003 -1.242980 3.228311
4.460636 -10.000011 3.000000 0.000001 1.000000 0.000003 -0.764594 1.792254
4.460639 -10.000004 0.000000 0.000001 1.000000 0.000003 -0.764593 3.228311
4.293335 0.719078 0.000000 0.000000 0.000000 1.000000 -1.519116 0.139139
4.460646 9.999996 0.000000 0.000000 0.000000 1.000000 -1.586970 -4.741583
2.940003 0.132898 0.000000 0.000000 -0.000000 1.000000 -0.959888 0.447732
4.293335 0.048125 0.000000 0.000000 -0.000000 1.000000 -1.519332 0.491490
2.194256 9.999996 0.000000 0.000000 -1.000000 -0.000002 -0.113622 0.353837
3.190965 9.999990 3.000000 0.000000 -1.000000 -0.000002 0.261916 1.789894
3.190962 -5.976067 0.000000 0.000000 -0.000000 1.000000 -1.071756 3.650577
4.460640 -5.976068 0.000000 0.000000 -0.000000 1.000000 -1.592740 3.648863
2.445212 0.132898 0.000000 0.000000 0.000000 1.000000 -0.755400 0.448214
-3.005887 -7.317382 3.000000 0.000000 0.000000 -1.000000 -2.220379 -0.868658
-3.005887 -8.658693 3.000000 0.000000 0.000000 -1.000000 -2.655015 -0.838161
-7.000005 -5.976068 3.000000 0.000000 0.000000 -1.000000 -1.713757 -2.728464
-3.005885 -0.121421 3.000000 0.000000 -0.000000 -1.000000 0.443329 -0.926433
6.999997 -5.976069 0.000000 -1.000000 0.000000 -0.000001 -2.061686 0.351459
6.999996 -0.121426 3.000000 -1.000000 0.000000 -0.000001 0.144218 -1.084592
-3.005883 -0.121414 0.000000 0.000000 -0.000000 1.000000 1.506945 0.593571
-7.000002 -5.976061 0.000000 0.000000 -0.000000 1.000000 3.104416 3.746391
-3.005884 -5.976064 0.000000 0.000000 -0.000000 1.000000 1.482872 3.672496
-1.965857 -5.976065 0.000000 0.000000 0.000000 1.000000 1.037052 3.673801
-1.915664 -0.070552 0.000000 0.000000 0.000000 1.000000 1.053713 0.560679
-7.000000 10.000000 0.272074 -0.000000 -1.000000 -0.000002 -3.577816 0.484076
-3.005883 9.999991 3.000000 -0.000000 -1.000000 -0.000002 -2.072920 1.789895
-7.000002 9.999993 3.000000 -0.000000 -1.000000 -0.000002 -3.577817 1.789895
-1.915664 0.837763 0.000000 0.000000 -0.000000 1.000000 1.055925 0.081004
-1.965853 9.999998 0.000000 0.242191 0.001327 0.970228 1.069827 -4.745401
-3.005883 0.888627 0.272074 0.242191 0.001327 0.970228 1.520752 0.044074
-1.915664 0.837763 0.000000 0.242191 0.001327 0.970228 1.055925 0.081004
-3.005884 -10.000000 0.000000 0.000001 1.000000 0.000002 -3.577816 3.228311
-1.965861 -10.000007 3.000000 0.000001 1.000000 0.000002 -3.185957 1.792253
-1.965858 -10.000001 0.000000 0.000001 1.000000 0.000002 -3.185956 3.228311
-1.965858 -8.658689 0.000000 0.000000 -0.000000 1.000000 1.003638 5.070397
-3.005884 -10.000000 0.000000 0.000000 -0.000000 1.000000 1.387985 5.702607
-1.965858 -10.000001 0.000000 0.000000 -0.000000 1.000000 1.003843 5.714950
-7.000005 -5.976068 3.000000 0.709732 0.704472 0.000002 -1.441613 -1.086964
-3.005884 -10.000000 0.000000 0.709732 0.704472 0.000002 -3.577816 -2.523019
-7.000002 -5.976061 0.000000 0.709732 0.704472 0.000002 -1.441613 -2.523022
-3.005884 -8.658688 0.000000 0.000000 0.000000 1.000000 1.401930 5.086684
-3.005884 -7.317376 0.000000 0.000000 0.000000 1.000000 1.433167 4.464408
-1.915666 -0.070558 3.000000 -0.000000 -0.000000 -1.000000 0.463675 -0.424284
-1.915666 0.837757 3.000000 -0.000000 -0.000000 -1.000000 0.792782 -0.425722
-1.965860 -5.976070 3.000000 0.000000 -0.000000 -1.000000 -1.678924 -0.422290
-1.965860 -8.658694 3.000000 0.000000 -0.000000 -1.000000 -2.645234 -0.390880
-3.005887 -10.000006 3.000000 0.000000 -0.000000 -1.000000 -3.085182 -0.827096
-1.965856 9.999991 3.000000 0.000000 -0.000000 -1.000000 4.116724 -0.457860
2.940001 0.634302 3.000000 1.000000 -0.000000 0.000001 0.516699 0.821754
2.940002 0.132896 1.872149 1.000000 -0.000000 0.000001 0.260776 0.090386
2.940002 0.634304 1.872149 1.000000 -0.000000 0.000001 0.516699 0.090385
2.940001 0.132895 3.000000 0.000000 -0.000000 -1.000000 0.538844 1.809045
2.194248 -5.976073 3.000000 0.000000 -0.000000 -1.000000 -1.669855 1.472368
2.445211 0.132895 3.000000 0.000000 -0.000000 -1.000000 0.538673 1.581551
3.190958 -8.658698 3.000000 0.000000 -0.000000 -1.000000 -2.629360 1.928085
2.194246 -10.000010 3.000000 0.000000 -0.000000 -1.000000 -3.104157 1.474281
2.194247 -8.658697 3.000000 0.000000 -0.000000 -1.000000 -2.628809 1.476838
2.940001 0.634302 3.000000 -0.000000 -0.000000 -1.000000 0.720377 1.808967
2.194253 9.999990 3.000000 -0.000000 -0.000000 -1.000000 4.116586 1.462182
3.190965 9.999990 3.000000 -0.000000 -0.000000 -1.000000 4.116678 1.921530
4.293333 0.719073 3.000000 0.000000 -0.000000 -1.000000 0.751128 2.431449
4.293333 0.048121 3.000000 0.000000 0.000000 -1.000000 0.508227 2.431398
3.190959 -5.976074 3.000000 0.000000 0.000000 -1.000000 -1.668801 1.927773
4.460637 -8.658699 3.000000 0.000000 -0.000000 -1.000000 -2.630877 2.505058
3.190958 -10.000010 3.000000 0.000000 -0.000000 -1.000000 -3.107172 1.924953
4.460643 9.999989 3.000000 -0.000000 -0.000000 -1.000000 4.116711 2.506672
2.445212 0.634304 1.872149 0.000000 1.000000 0.000001 -0.247695 0.090386
2.940001 0.634302 3.000000 0.000000 1.000000 0.000001 -0.500241 0.821755
2.940002 0.634304 1.872149 0.000000 1.000000 0.000001 -0.500242 0.090386
2.445211 0.132896 1.872149 -1.000000 0.000000 -0.000001 0.008229 0.090386
2.445211 0.634302 3.000000 -1.000000 0.000000 -0.000001 -0.247695 0.821755
2.445212 0.634304 1.872149 -1.000000 0.000000 -0.000001 -0.247695 0.090386
2.940002 0.634304 1.698666 0.000000 0.000000 -1.000000 0.910356 0.002815
3.031642 0.040030 1.698666 0.000000 0.000000 -1.000000 0.607032 0.062241
2.940002 0.132896 1.698666 0.000000 0.000000 -1.000000 0.654432 0.002815
2.445211 0.132896 1.872149 -0.000000 0.000000 1.000000 0.906354 -0.438577
2.353571 0.727170 1.872149 -0.000000 0.000000 1.000000 0.953128 -0.823940
2.353571 0.040030 1.872149 -0.000000 0.000000 1.000000 0.953128 -0.378357
2.445212 0.634304 1.698666 0.000000 -0.000000 -1.000000 0.910356 -0.318039
2.353571 0.040030 1.698666 0.000000 -0.000000 -1.000000 0.607032 -0.377464
2.353571 0.727170 1.698666 0.000000 -0.000000 -1.000000 0.957755 -0.377464
2.940002 0.132896 1.872149 -0.000000 0.000000 1.000000 0.653807 -0.438577
3.031643 0.727170 1.872149 -0.000000 0.000000 1.000000 0.607033 -0.823941
2.940002 0.634304 1.872149 -0.000000 0.000000 1.000000 0.653807 -0.763721
2.940002 0.132896 1.565942 -0.000001 -1.000000 -0.000001 1.107586 1.029983
2.445211 0.132897 1.698666 -0.000001 -1.000000 -0.000001 1.039842 0.709130
2.445211 0.132897 1.565942 -0.000001 -1.000000 -0.000001 1.107586 0.709130
2.940002 0.634304 1.698666 1.000000 -0.000000 -0.000000 1.039843 1.355126
2.940002 0.132896 1.565942 1.000000 -0.000000 -0.000000 1.107586 1.029983
2.940002 0.634304 1.565942 1.000000 -0.000000 -0.000000 1.107587 1.355127
2.445212 0.634304 1.698666 0.000000 1.000000 0.000001 1.039843 0.383986
2.940002 0.634304 1.565942 0.000000 1.000000 0.000001 1.107587 0.063133
2.445212 0.634304 1.565942 0.000000 1.000000 0.000001 1.107587 0.383986
2.445211 0.132897 1.565942 -1.000000 0.000000 0.000000 1.107586 0.709130
2.445212 0.634304 1.698666 -1.000000 0.000000 0.000000 1.039843 0.383986
2.445212 0.634304 1.565942 -1.000000 0.000000 0.000000 1.107587 0.383986
2.353571 0.040030 1.698666 -1.000000 0.000000 0.000000 0.606139 0.061348
2.353571 0.727170 1.872149 -1.000000 0.000000 0.000000 0.517592 -0.384237
2.353571 0.727170 1.698666 -1.000000 0.000000 0.000000 0.606140 -0.384237
2.353571 0.727170 1.872149 0.000000 1.000000 0.000001 0.517592 -0.384237
3.031643 0.727170 1.698666 0.000000 1.000000 0.000001 0.606140 -0.823941
2.353571 0.727170 1.698666 0.000000 1.000000 0.000001 0.606140 -0.384237
3.031643 0.727170 1.872149 1.000000 -0.000001 -0.000000 0.517592 0.946636
3.031642 0.040030 1.698666 1.000000 -0.000001 -0.000000 0.606139 0.501051
3.031643 0.727170 1.698666 1.000000 -0.000001 -0.000000 0.606140 0.946636
3.031642 0.040030 1.698666 -0.000000 -1.000000 -0.000001 0.606139 0.501051
2.353571 0.040030 1.872149 -0.000000 -1.000000 -0.000001 0.517592 0.061347
2.353571 0.040030 1.698666 -0.000000 -1.000000 -0.000001 0.606139 0.061348
3.031642 0.040030 1.872149 0.000000 -0.000000 1.000000 0.607033 -0.378356
2.940002 0.634304 1.872149 -0.000000 -0.000000 1.000000 0.653806 -0.763720
2.445212 0.634304 1.872149 -0.000000 -0.000000 1.000000 0.906353 -0.763720
3.031643 0.727170 1.698666 -0.000000 -0.000000 -1.000000 0.957755 0.062240
2.445211 0.132897 1.698666 0.000000 -0.000000 -1.000000 0.654432 -0.318039
2.940002 0.132897 1.408615 0.000000 -0.000000 -1.000000 0.653465 0.886218
2.355442 0.041927 1.408615 0.000000 -0.000000 -1.000000 0.607032 0.507152
2.445211 0.132897 1.408615 0.000000 -0.000000 -1.000000 0.653464 0.565365
2.940002 0.634304 1.408615 -0.000000 -0.000000 -1.000000 0.909389 0.886216
2.355442 0.725275 1.408615 -0.000000 -0.000000 -1.000000 0.955821 0.507152
3.029772 0.725275 1.408615 -0.000000 -0.000000 -1.000000 0.955822 0.944428
2.940002 0.634304 1.565942 -0.000000 -0.000000 1.000000 0.652852 0.122126
2.355442 0.725275 1.565942 -0.000000 -0.000000 1.000000 0.951217 0.063135
2.445212 0.634304 1.565942 -0.000000 -0.000000 1.000000 0.905398 0.122126
2.940002 0.132896 1.565942 0.000000 -0.000000 1.000000 0.652852 0.447269
2.355442 0.041926 1.565942 0.000000 -0.000000 1.000000 0.951217 0.506260
3.029772 0.041926 1.565942 0.000000 -0.000000 1.000000 0.607033 0.506260
2.445212 0.132898 0.000000 -0.000001 -1.000000 -0.000001 0.008229 -0.823940
2.940002 0.132897 1.408615 -0.000001 -1.000000 -0.000001 0.260776 0.089493
2.445211 0.132897 1.408615 -0.000001 -1.000000 -0.000001 0.008229 0.089493
2.940002 0.634304 1.408615 1.000000 0.000000 0.000001 0.516700 0.089493
2.940003 0.132898 0.000000 1.000000 0.000000 0.000001 0.260776 -0.823941
2.940003 0.634306 0.000000 1.000000 0.000000 0.000001 0.516700 -0.823941
2.445212 0.634306 0.000000 0.000000 1.000000 0.000001 -0.247695 -0.823941
2.940002 0.634304 1.408615 0.000000 1.000000 0.000001 -0.500242 0.089493
2.940003 0.634306 0.000000 0.000000 1.000000 0.000001 -0.500241 -0.823941
2.445212 0.132898 0.000000 -1.000000 0.000000 -0.000001 0.008229 -0.823940
2.445212 0.634304 1.408615 -1.000000 0.000000 -0.000001 -0.247695 0.089493
2.445212 0.634306 0.000000 -1.000000 0.000000 -0.000001 -0.247695 -0.823941
2.355442 0.041927 1.408615 -1.000000 0.000001 0.000000 1.038950 0.943537
2.355442 0.725275 1.565942 -1.000000 0.000001 0.000000 0.958649 0.500411
2.355442 0.725275 1.408615 -1.000000 0.000001 0.000000 1.038950 0.500411
2.355442 0.725275 1.565942 0.000000 1.000000 0.000002 0.958649 0.500411
3.029772 0.725275 1.408615 0.000000 1.000000 0.000002 1.038950 0.063133
2.355442 0.725275 1.408615 0.000000 1.000000 0.000002 1.038950 0.500411
3.029772 0.725274 1.565942 1.000000 -0.000000 -0.000000 0.958649 1.823941
3.029772 0.041926 1.408615 1.000000 -0.000000 -0.000000 1.038950 1.380815
3.029772 0.725275 1.408615 1.000000 -0.000000 -0.000000 1.038950 1.823941
3.029772 0.041926 1.408615 -0.000001 -1.000000 -0.000001 1.038950 1.380815
2.355442 0.041926 1.565942 -0.000001 -1.000000 -0.000001 0.958648 0.943537
2.355442 0.041927 1.408615 -0.000001 -1.000000 -0.000001 1.038950 0.943537
3.029772 0.725274 1.565942 -0.000000 0.000000 1.000000 0.607033 0.063133
2.940002 0.634304 1.565942 -0.000000 0.000000 1.000000 0.652852 0.122124
2.445212 0.634304 1.408615 0.000000 -0.000000 -1.000000 0.909389 0.565364
2.445211 0.132897 1.565942 -0.000000 0.000000 1.000000 0.905398 0.447269
2.940002 0.634304 1.408615 0.000000 0.000000 -1.000000 0.909389 0.886218
3.029772 0.041926 1.408615 0.000000 0.000000 -1.000000 0.607032 0.944431
-1.965861 -10.000007 3.000000 0.000000 -0.000000 -1.000000 -3.093275 -0.388769
2.445211 0.634302 3.000000 -0.000000 -0.000000 -1.000000 0.720263 1.581273
2.194249 -10.000003 0.000000 0.000000 -0.000000 1.000000 -0.667603 5.731006
-1.965858 -10.000001 0.000000 0.000000 1.000000 0.000002 -3.185956 3.228311
2.194246 -10.000010 3.000000 0.000000 1.000000 0.000002 -1.618520 1.792254
2.194249 -10.000003 0.000000 0.000000 1.000000 0.000002 -1.618519 3.228311
2.445212 0.634306 0.000000 0.000000 -0.000000 1.000000 -0.754960 0.184825
2.194250 -5.976067 0.000000 0.000000 0.000000 1.000000 -0.662717 3.653353
-3.005880 9.999998 0.272074 0.000000 -1.000000 -0.000002 -2.072919 0.484075
6.999997 0.888615 3.000000 -0.000000 -0.000000 -1.000000 0.811891 3.676902
5.730322 9.999989 3.000000 -0.000000 -0.000000 -1.000000 4.116721 3.091776
7.000000 9.999988 3.000000 -0.000000 -0.000000 -1.000000 4.116724 3.676869
5.646665 0.803844 3.000000 -0.000000 -0.000000 -1.000000 0.781640 3.054039
6.999993 -8.658701 3.000000 0.000000 -0.000000 -1.000000 -2.635699 3.662360
5.730314 -10.000011 3.000000 0.000000 -0.000000 -1.000000 -3.113763 3.079750
5.730315 -8.658699 3.000000 0.000000 -0.000000 -1.000000 -2.632995 3.083406
6.999996 -0.121426 3.000000 0.000000 0.000000 -1.000000 0.445983 3.676093
5.730316 -5.976075 3.000000 0.000000 0.000000 -1.000000 -1.669315 3.088435
5.646665 -0.036653 3.000000 0.000000 0.000000 -1.000000 0.477300 3.053711
4.460638 -5.976074 3.000000 0.000000 0.000000 -1.000000 -1.668553 2.507833
6.999999 -0.121419 0.000000 0.000000 -0.000000 1.000000 -2.637757 0.580276
5.730318 -5.976068 0.000000 0.000000 -0.000000 1.000000 -2.114295 3.648737
6.999997 -5.976069 0.000000 0.000000 -0.000000 1.000000 -2.636421 3.650088
5.646667 -0.036647 0.000000 0.000000 -0.000000 1.000000 -2.078609 0.535640
5.646667 0.803850 0.000000 0.000000 0.000000 1.000000 -2.078575 0.094299
7.000000 0.888622 0.000000 0.000000 0.000000 1.000000 -2.638093 0.049907
5.730325 9.999995 0.000000 0.000000 0.000000 1.000000 -2.112541 -4.741582
7.000003 9.999994 0.000000 0.000000 0.000000 1.000000 -2.638094 -4.741581
5.730317 -10.000005 0.000000 0.000001 1.000000 0.000002 -0.286206 3.228311
6.999992 -10.000012 3.000000 0.000001 1.000000 0.000002 0.192179 1.792254
6.999995 -10.000006 0.000000 0.000001 1.000000 0.000002 0.192181 3.228311
4.460639 -10.000004 0.000000 0.000001 1.000000 0.000002 -0.764593 3.228311
5.730314 -10.000011 3.000000 0.000001 1.000000 0.000002 -0.286207 1.792254
6.999996 -8.658693 0.000000 0.000000 -0.000000 1.000000 -2.631512 5.048658
5.730317 -10.000005 0.000000 0.000000 -0.000000 1.000000 -2.108846 5.742617
6.999995 -10.000006 0.000000 0.000000 -0.000000 1.000000 -2.628666 5.746112
5.730317 -8.658693 0.000000 0.000000 -0.000000 1.000000 -2.111494 5.045804
3.190968 9.999996 0.000000 -0.000001 -1.000000 -0.000002 0.261918 0.353837
4.460643 9.999989 3.000000 -0.000001 -1.000000 -0.000002 0.740303 1.789894
3.190965 9.999990 3.000000 -0.000001 -1.000000 -0.000002 0.261916 1.789894
4.460646 9.999996 0.000000 0.000000 -1.000000 -0.000003 0.740304 0.353837
5.730322 9.999989 3.000000 0.000000 -1.000000 -0.000003 1.218691 1.789894
4.460643 9.999989 3.000000 0.000000 -1.000000 -0.000003 0.740303 1.789894
4.460639 -7.317380 0.000000 0.000000 -0.000000 1.000000 -1.592922 4.347422
5.730318 -7.317381 0.000000 0.000000 -0.000000 1.000000 -2.113292 4.348046
5.730318 -7.317381 0.000000 1.000000 -0.000000 0.000000 -0.103348 0.149886
5.730317 -8.658693 0.546299 1.000000 -0.000000 0.000000 0.121132 0.850115
5.730317 -8.658693 0.000000 1.000000 -0.000000 0.000000 -0.103348 0.850115
6.999996 -7.317382 0.000000 0.000000 -0.000000 1.000000 -2.634178 4.350238
4.460637 -7.317387 3.000000 0.000000 -0.000000 -1.000000 -2.150442 2.506925
5.730315 -7.317387 3.000000 -0.000000 -0.000000 -1.000000 -2.151733 3.086249
6.999994 -5.976076 3.000000 0.000000 -0.000000 -1.000000 -1.670988 3.669707
6.999993 -7.317389 3.000000 0.000000 -0.000000 -1.000000 -2.153869 3.666297
-1.965857 -7.317377 0.000000 0.000000 -0.000000 1.000000 1.016012 4.408750
2.194250 -7.317379 0.000000 0.000000 -0.000000 1.000000 -0.667045 4.351529
-1.965860 -7.317382 3.000000 0.000000 -0.000000 -1.000000 -2.187081 -0.405665
2.194247 -7.317385 3.000000 0.000000 -0.000000 -1.000000 -2.151641 1.475536
3.190958 -7.317386 3.000000 0.000000 -0.000000 -1.000000 -2.150355 1.928559
-3.005887 -5.976070 3.000000 0.000000 -0.000000 -1.000000 -1.674459 -0.917964
3.190961 -7.317379 0.000000 0.000000 -0.000000 1.000000 -1.073656 4.348533
6.999996 -7.317382 0.000000 -1.000000 0.000000 -0.000001 -2.567063 0.351458
6.999994 -5.976076 3.000000 -1.000000 0.000000 -0.000001 -2.061686 -1.084598
6.999993 -7.317389 3.000000 -1.000000 0.000000 -0.000001 -2.567062 -1.084600
5.730318 -7.317381 0.546299 0.000000 -0.000000 1.000000 0.121132 0.149886
4.460639 -8.658691 0.546299 0.000000 -0.000000 1.000000 0.642853 0.850114
5.730317 -8.658693 0.546299 0.000000 -0.000000 1.000000 0.121132 0.850115
4.460639 -7.317380 0.000000 0.000001 1.000000 -0.000000 0.642853 -0.135309
5.730318 -7.317381 0.546299 0.000001 1.000000 -0.000000 0.121132 0.149886
5.730318 -7.317381 0.000000 0.000001 1.000000 -0.000000 0.121132 -0.135309
5.730317 -8.658693 0.000000 -0.000002 -1.000000 0.000000 0.121132 1.135309
4.460639 -8.658691 0.546299 -0.000002 -1.000000 0.000000 0.642853 0.850114
4.460639 -8.658691 0.000000 -0.000002 -1.000000 0.000000 0.642853 1.135308
4.460639 -8.658691 0.000000 -1.000000 0.000000 0.000000 0.867332 0.850114
4.460639 -7.317380 0.546299 -1.000000 0.000000 0.000000 0.642853 0.149886
4.460639 -7.317380 0.000000 -1.000000 0.000000 0.000000 0.867332 0.149886
6.999992 -10.000012 3.000000 -1.000000 0.000000 -0.000001 -3.577816 -1.084604
-7.000000 10.000000 0.272074 1.000000 -0.000000 0.000001 4.577817 -2.392801
7.000003 9.999994 0.000000 -0.000001 -1.000000 -0.000002 1.697079 0.353837
-7.000000 10.000000 0.272074 -0.000000 0.000000 1.000000 3.194010 -4.740912
-7.000001 0.888630 0.272074 -0.000000 -0.260098 0.965582 3.173963 0.085118
2.445211 0.132896 1.872149 -0.000001 -1.000000 -0.000001 0.008229 0.090386
2.940002 0.132896 1.872149 -0.000001 -1.000000 -0.000001 0.260776 0.090386
2.940001 0.132895 3.000000 -0.000001 -1.000000 -0.000001 0.260776 0.821755
2.194249 -10.000003 0.000000 0.000001 1.000000 0.000002 -1.618519 3.228311
2.194246 -10.000010 3.000000 0.000001 1.000000 0.000002 -1.618520 1.792254
3.190958 -10.000010 3.000000 0.000001 1.000000 0.000002 -1.242981 1.792254
3.190958 -10.000010 3.000000 0.000001 1.000000 0.000003 -1.242981 1.792254
3.190968 9.999996 0.000000 -0.000000 -1.000000 -0.000002 0.261918 0.353837
-7.000001 -0.121412 0.000000 -0.000000 0.000000 1.000000 3.165573 0.635200
-1.915664 0.837763 0.000000 0.223069 -0.253544 0.941252 1.055925 0.081004
-3.005883 0.888627 0.272074 0.223069 -0.253544 0.941252 1.520752 0.044074
-3.005883 -0.121414 0.000000 0.223069 -0.253544 0.941252 1.506945 0.593571
-1.965853 9.999998 0.000000 0.253086 -0.000000 0.967444 1.069827 -4.745401
-3.005880 9.999998 0.272074 0.253086 -0.000000 0.967444 1.519487 -4.746112
-3.005883 0.888627 0.272074 0.253086 -0.000000 0.967444 1.520752 0.044074
-3.005887 -10.000006 3.000000 0.000001 1.000000 0.000002 -3.577817 1.792253
-3.005887 -10.000006 3.000000 0.709732 0.704472 0.000002 -3.577817 -1.086962
2.940001 0.132895 3.000000 1.000000 -0.000000 0.000001 0.260776 0.821755
4.460636 -10.000011 3.000000 0.000000 0.000000 -1.000000 -3.110645 2.501626
2.445211 0.634302 3.000000 0.000000 1.000000 0.000001 -0.247695 0.821755
2.445211 0.132895 3.000000 -1.000000 0.000000 -0.000001 0.008229 0.821755
3.031643 0.727170 1.698666 -0.000000 0.000000 -1.000000 0.957756 0.062241
2.940002 0.132896 1.698666 -0.000001 -1.000000 -0.000001 1.039842 1.029983
2.940002 0.132896 1.698666 1.000000 -0.000000 -0.000000 1.039842 1.029983
2.940002 0.634304 1.698666 0.000000 1.000000 0.000001 1.039843 0.063133
2.445211 0.132897 1.698666 -1.000000 0.000000 0.000000 1.039842 0.709130
2.353571 0.040030 1.872149 -1.000000 0.000000 0.000000 0.517592 0.061347
3.031643 0.727170 1.872149 0.000000 1.000000 0.000001 0.517592 -0.823941
3.031642 0.040030 1.872149 1.000000 -0.000001 -0.000000 0.517592 0.501051
3.031642 0.040030 1.698666 -0.000001 -1.000000 -0.000002 0.606139 0.501051
3.031642 0.040030 1.872149 -0.000001 -1.000000 -0.000002 0.517592 0.501051
2.353571 0.040030 1.872149 -0.000001 -1.000000 -0.000002 0.517592 0.061347
3.031643 0.727170 1.872149 0.000000 0.000000 1.000000 0.607032 -0.823940
3.029772 0.725274 1.565942 0.000000 0.000000 1.000000 0.607032 0.063135
2.940003 0.132898 0.000000 -0.000001 -1.000000 -0.000001 0.260776 -0.823941
2.940002 0.132897 1.408615 1.000000 -0.000000 0.000001 0.260776 0.089493
2.445212 0.634304 1.408615 0.000000 1.000000 0.000001 -0.247695 0.089493
2.445211 0.132897 1.408615 -1.000000 0.000000 -0.000001 0.008229 0.089493
2.355442 0.041926 1.565942 -1.000000 0.000001 0.000000 0.958648 0.943537
3.029772 0.725274 1.565942 0.000000 1.000000 0.000002 0.958649 0.063133
3.029772 0.041926 1.565942 1.000000 -0.000000 -0.000000 0.958648 1.380815
3.029772 0.041926 1.408615 -0.000001 -1.000000 -0.000002 1.038950 1.380815
3.029772 0.041926 1.565942 -0.000001 -1.000000 -0.000002 0.958648 1.380815
2.355442 0.041926 1.565942 -0.000001 -1.000000 -0.000002 0.958648 0.943537
3.029772 0.725275 1.408615 -0.000000 0.000000 -1.000000 0.955821 0.944431
-1.965853 9.999998 0.000000 -0.000000 -0.000000 1.000000 1.069827 -4.745401
-3.005880 9.999998 0.272074 -0.000001 -1.000000 -0.000002 -2.072919 0.484075
-1.965853 9.999998 0.000000 -0.000001 -1.000000 -0.000002 -1.681060 0.353837
-1.965856 9.999991 3.000000 -0.000001 -1.000000 -0.000002 -1.681061 1.789894
6.999992 -10.000012 3.000000 0.000000 0.000000 -1.000000 -3.116724 3.658395
4.460639 -10.000004 0.000000 0.000000 1.000000 0.000003 -0.764593 3.228311
4.460636 -10.000011 3.000000 0.000000 1.000000 0.000003 -0.764594 1.792254
5.730314 -10.000011 3.000000 0.000000 1.000000 0.000003 -0.286207 1.792254
3.190968 9.999996 0.000000 -0.000000 -1.000000 -0.000003 0.261918 0.353837
4.460646 9.999996 0.000000 -0.000001 -1.000000 -0.000002 0.740304 0.353837
5.730318 -7.317381 0.546299 1.000000 -0.000000 0.000000 0.121132 0.149886
4.460639 -7.317380 0.546299 -0.000000 0.000000 1.000000 0.642853 0.149886
4.460639 -7.317380 0.546299 0.000001 1.000000 0.000000 0.642853 0.149886
5.730317 -8.658693 0.546299 -0.000002 -1.000000 -0.000000 0.121132 0.850115
4.460639 -8.658691 0.546299 -1.000000 0.000000 0.000000 0.642853 0.850114
3 0 1 2
3 3 4 5
3 6 7 8
3 9 10 11
3 3 12 13
3 14 15 16
3 17 18 19
3 20 12 21
3 22 23 10
3 24 25 14
3 26 27 28
3 29 30 31
3 32 33 34
3 35 36 37
3 38 39 40
3 41 42 43
3 44 42 45
3 46 47 48
3 34 49 50
3 49 51 52
3 53 54 36
3 52 55 56
3 57 55 51
3 58 59 60
3 61 60 23
3 62 63 24
3 64 65 66
3 64 67 68
3 69 70 71
3 72 64 68
3 73 74 75
3 76 77 78
3 79 80 81
3 82 83 84
3 65 85 86
3 87 22 88
3 89 61 87
3 90 91 59
3 92 22 9
3 93 94 95
3 96 97 98
3 99 100 101
3 102 103 104
3 105 96 102
3 106 107 96
3 108 109 99
3 105 104 110
3 111 112 113
3 114 115 116
3 117 118 119
3 120 121 122
3 123 124 125
3 126 127 128
3 129 130 131
3 132 133 134
3 135 136 137
3 138 139 140
3 141 142 143
3 144 145 146
3 147 148 149
3 150 151 152
3 126 122 153
3 154 121 155
3 117 125 156
3 119 124 157
3 158 159 160
3 161 162 163
3 164 165 166
3 167 168 169
3 170 171 172
3 173 174 175
3 176 177 178
3 179 180 181
3 182 183 184
3 185 186 187
3 188 189 190
3 191 192 193
3 167 194 195
3 196 159 162
3 197 165 168
3 198 199 158
3 103 88 92
3 101 200 90
3 97 87 98
3 98 88 201
3 41 81 202
3 203 204 205
3 32 72 206
3 206 68 57
3 68 207 57
3 208 37 70
3 209 210 211
3 212 110 210
3 213 214 215
3 214 108 215
3 216 217 218
3 218 219 106
3 209 218 212
3 212 106 105
3 220 221 222
3 223 56 221
3 224 220 225
3 49 223 224
3 226 225 227
3 50 224 226
3 228 229 230
3 231 232 228
3 233 234 235
3 236 45 234
3 237 238 239
3 240 241 242
3 221 243 244
3 245 246 247
3 222 244 248
3 244 233 248
3 217 249 219
3 215 249 250
3 251 250 217
3 252 215 250
3 207 253 254
3 254 79 41
3 97 255 89
3 256 90 255
3 219 257 107
3 249 99 257
3 107 256 97
3 257 101 256
3 89 58 258
3 255 59 58
3 67 86 253
3 253 85 79
3 56 259 243
3 243 43 44
3 207 259 55
3 254 43 259
3 260 261 62
3 2 262 260
3 263 264 265
3 266 267 268
3 269 270 271
3 272 273 274
3 0 275 1
3 3 276 4
3 6 277 7
3 9 22 10
3 3 5 12
3 14 25 15
3 17 278 18
3 20 13 12
3 22 61 23
3 24 63 25
3 26 279 27
3 280 281 282
3 32 206 33
3 35 53 36
3 283 284 285
3 41 202 42
3 44 43 42
3 46 286 47
3 34 33 49
3 49 33 51
3 53 287 54
3 52 51 55
3 57 207 55
3 60 258 58
3 59 91 60
3 61 258 60
3 62 261 63
3 64 288 65
3 64 66 67
3 69 208 70
3 289 290 291
3 292 293 294
3 76 295 77
3 79 85 80
3 82 296 83
3 86 66 65
3 65 80 85
3 87 61 22
3 89 258 61
3 90 200 91
3 92 88 22
3 93 297 94
3 96 107 97
3 99 109 100
3 102 201 103
3 105 106 96
3 106 219 107
3 108 298 109
3 105 102 104
3 111 299 112
3 114 300 115
3 117 301 118
3 120 155 121
3 123 157 124
3 126 153 127
3 129 302 130
3 132 303 133
3 135 304 136
3 138 305 139
3 141 306 142
3 144 307 145
3 147 308 148
3 309 310 311
3 126 120 122
3 154 312 121
3 117 123 125
3 119 118 124
3 158 199 159
3 161 196 162
3 164 313 165
3 167 197 168
3 170 314 171
3 173 315 174
3 176 316 177
3 179 317 180
3 182 318 183
3 185 319 186
3 188 320 189
3 321 322 323
3 167 169 194
3 196 160 159
3 197 166 165
3 198 324 199
3 103 201 88
3 101 100 200
3 97 89 87
3 98 87 88
3 41 79 81
3 78 77 284
3 32 325 72
3 206 72 68
3 68 67 207
3 326 327 328
3 209 212 210
3 212 105 110
3 213 329 214
3 214 298 108
3 216 251 217
3 218 217 219
3 209 216 218
3 212 218 106
3 220 223 221
3 223 52 56
3 224 223 220
3 49 52 223
3 226 224 225
3 50 49 224
3 228 232 229
3 330 331 332
3 233 236 234
3 236 44 45
3 333 240 242
3 334 6 8
3 221 56 243
3 245 335 246
3 222 221 244
3 244 236 233
3 217 250 249
3 215 108 249
3 251 252 250
3 252 213 215
3 207 67 253
3 254 253 79
3 97 256 255
3 256 101 90
3 219 249 257
3 249 108 99
3 107 257 256
3 257 99 101
3 89 255 58
3 255 90 59
3 67 66 86
3 253 86 85
3 56 55 259
3 243 259 43
3 207 254 259
3 254 41 43
3 260 262 261
3 2 1 262
3 263 336 264
3 266 337 267
3 269 338 270
3 272 339 273
