ply
format ascii 1.0
comment Created by Blender 2.78 (sub 0) - www.blender.org, source file: 'Spikes.blend'
element vertex 444
property float x
property float y
property float z
property float nx
property float ny
property float nz
property float s
property float t
element face 288
property list uchar uint vertex_indices
end_header
0.500000 0.416667 0.000000 -0.000000 0.000000 1.000000 0.999900 0.916583
0.416667 0.500000 0.000000 -0.000000 0.000000 1.000000 0.916583 0.999900
0.416667 0.416667 0.000000 -0.000000 0.000000 1.000000 0.916583 0.916583
0.416667 -0.500000 0.000000 -0.000000 0.000000 1.000000 0.916583 0.000100
0.500000 -0.416667 0.000000 -0.000000 0.000000 1.000000 0.999900 0.083417
0.416667 -0.416667 0.000000 -0.000000 0.000000 1.000000 0.916583 0.083417
0.416667 -0.333333 0.000000 -0.000000 0.000000 1.000000 0.916583 0.166733
0.500000 -0.333333 0.000000 -0.000000 0.000000 1.000000 0.999900 0.166733
0.416667 -0.250000 0.000000 -0.000000 0.000000 1.000000 0.916583 0.250050
0.500000 -0.250000 0.000000 -0.000000 0.000000 1.000000 0.999900 0.250050
0.416667 -0.166667 0.000000 -0.000000 0.000000 1.000000 0.916583 0.333367
0.500000 -0.166667 0.000000 -0.000000 0.000000 1.000000 0.999900 0.333367
0.416667 -0.083333 0.000000 -0.000000 0.000000 1.000000 0.916583 0.416683
0.500000 -0.083333 0.000000 -0.000000 0.000000 1.000000 0.999900 0.416684
0.416667 0.000000 0.000000 -0.000000 0.000000 1.000000 0.916583 0.500000
0.500000 0.000000 0.000000 -0.000000 0.000000 1.000000 0.999900 0.500000
0.416667 0.083333 0.000000 -0.000000 0.000000 1.000000 0.916583 0.583317
0.500000 0.083333 0.000000 -0.000000 0.000000 1.000000 0.999900 0.583317
0.416667 0.166667 0.000000 -0.000000 0.000000 1.000000 0.916583 0.666634
0.500000 0.166667 0.000000 -0.000000 0.000000 1.000000 0.999900 0.666634
0.416667 0.250000 0.000000 -0.000000 0.000000 1.000000 0.916583 0.749950
0.500000 0.250000 0.000000 -0.000000 0.000000 1.000000 0.999900 0.749950
0.416667 0.333333 0.000000 -0.000000 0.000000 1.000000 0.916583 0.833267
0.500000 0.333333 0.000000 -0.000000 0.000000 1.000000 0.999900 0.833267
-0.416667 0.333333 0.000000 -0.000000 0.000000 1.000000 0.083417 0.833267
-0.500000 0.416667 0.000000 -0.000000 0.000000 1.000000 0.000100 0.916583
-0.500000 0.333333 0.000000 -0.000000 0.000000 1.000000 0.000100 0.833267
-0.333333 0.250000 0.000000 -0.000000 0.000000 1.000000 0.166733 0.749950
-0.416667 0.250000 0.000000 -0.000000 0.000000 1.000000 0.083417 0.749950
-0.250000 0.333333 0.000000 -0.000000 0.000000 1.000000 0.250050 0.833267
-0.166667 0.416667 0.000000 -0.000000 0.000000 1.000000 0.333367 0.916583
-0.250000 0.416667 0.000000 -0.000000 0.000000 1.000000 0.250050 0.916583
-0.083333 0.333333 0.000000 0.641524 0.641524 0.420587 0.416683 0.833267
-0.166667 0.416667 0.000000 0.641524 0.641524 0.420587 0.333367 0.916583
-0.166667 0.333333 0.127109 0.641524 0.641524 0.420587 0.333367 0.833267
-0.083333 0.333333 0.000000 -0.000000 0.000000 1.000000 0.416683 0.833267
-0.000000 0.416667 0.000000 -0.000000 0.000000 1.000000 0.500000 0.916583
-0.083333 0.416667 0.000000 -0.000000 0.000000 1.000000 0.416683 0.916583
0.083333 0.333333 0.000000 0.641524 0.641524 0.420587 0.583317 0.833267
-0.000000 0.416667 0.000000 0.641524 0.641524 0.420587 0.500000 0.916583
-0.000000 0.333333 0.127109 0.641524 0.641524 0.420587 0.500000 0.833267
0.083333 0.333333 0.000000 -0.000000 0.000000 1.000000 0.583317 0.833267
0.166667 0.416667 0.000000 -0.000000 0.000000 1.000000 0.666633 0.916583
0.083333 0.416667 0.000000 -0.000000 0.000000 1.000000 0.583317 0.916583
0.250000 0.333333 0.000000 0.641524 0.641524 0.420587 0.749950 0.833267
0.166667 0.416667 0.000000 0.641524 0.641524 0.420587 0.666633 0.916583
0.166667 0.333333 0.127109 0.641524 0.641524 0.420587 0.666633 0.833267
0.250000 0.333333 0.000000 -0.000000 0.000000 1.000000 0.749950 0.833267
0.333333 0.416667 0.000000 -0.000000 0.000000 1.000000 0.833266 0.916583
0.250000 0.416667 0.000000 -0.000000 0.000000 1.000000 0.749950 0.916583
0.416667 0.333333 0.000000 0.641524 0.641524 0.420587 0.916583 0.833267
0.333333 0.416667 0.000000 0.641524 0.641524 0.420587 0.833266 0.916583
0.333333 0.333333 0.127109 0.641524 0.641524 0.420587 0.833266 0.833267
-0.500000 0.250000 0.000000 -0.000000 0.000000 1.000000 0.000100 0.749950
-0.333333 0.250000 0.000000 0.641524 -0.641524 0.420587 0.166733 0.749950
-0.250000 0.333333 0.000000 0.641524 -0.641524 0.420587 0.250050 0.833267
-0.333333 0.333333 0.127109 0.641524 -0.641524 0.420587 0.166733 0.833267
-0.250000 0.333333 0.000000 0.641524 0.641524 0.420587 0.250050 0.833267
-0.333333 0.416667 0.000000 0.641524 0.641524 0.420587 0.166733 0.916583
-0.333333 0.333333 0.127109 0.641524 0.641524 0.420587 0.166733 0.833267
-0.166667 0.250000 0.000000 -0.000000 0.000000 1.000000 0.333367 0.749950
-0.250000 0.250000 0.000000 -0.000000 0.000000 1.000000 0.250050 0.749950
-0.166667 0.250000 0.000000 0.641524 -0.641524 0.420587 0.333367 0.749950
-0.083333 0.333333 0.000000 0.641524 -0.641524 0.420587 0.416683 0.833267
-0.166667 0.333333 0.127109 0.641524 -0.641524 0.420587 0.333367 0.833267
-0.000000 0.250000 0.000000 -0.000000 0.000000 1.000000 0.500000 0.749950
-0.083333 0.250000 0.000000 -0.000000 0.000000 1.000000 0.416683 0.749950
-0.000000 0.250000 0.000000 0.641524 -0.641524 0.420587 0.500000 0.749950
0.083333 0.333333 0.000000 0.641524 -0.641524 0.420587 0.583317 0.833267
-0.000000 0.333333 0.127109 0.641524 -0.641524 0.420587 0.500000 0.833267
0.166667 0.250000 0.000000 -0.000000 0.000000 1.000000 0.666633 0.749950
0.083333 0.250000 0.000000 -0.000000 0.000000 1.000000 0.583317 0.749950
0.166667 0.250000 0.000000 0.641524 -0.641524 0.420587 0.666633 0.749950
0.250000 0.333333 0.000000 0.641524 -0.641524 0.420587 0.749950 0.833267
0.166667 0.333333 0.127109 0.641524 -0.641524 0.420587 0.666633 0.833267
0.333333 0.250000 0.000000 -0.000000 0.000000 1.000000 0.833266 0.749950
0.250000 0.250000 0.000000 -0.000000 0.000000 1.000000 0.749950 0.749950
0.333333 0.250000 0.000000 0.641524 -0.641524 0.420587 0.833266 0.749950
0.416667 0.333333 0.000000 0.641524 -0.641524 0.420587 0.916583 0.833267
0.333333 0.333333 0.127109 0.641524 -0.641524 0.420587 0.833266 0.833267
-0.416667 0.166667 0.000000 -0.000000 0.000000 1.000000 0.083417 0.666633
-0.500000 0.166667 0.000000 -0.000000 0.000000 1.000000 0.000100 0.666633
-0.250000 0.166667 0.000000 0.641524 0.641524 0.420587 0.250050 0.666633
-0.333333 0.250000 0.000000 0.641524 0.641524 0.420587 0.166733 0.749950
-0.333333 0.166667 0.127109 0.641524 0.641524 0.420587 0.166733 0.666633
-0.250000 0.166667 0.000000 -0.000000 0.000000 1.000000 0.250050 0.666633
-0.083333 0.166667 0.000000 0.641524 0.641524 0.420587 0.416683 0.666633
-0.166667 0.250000 0.000000 0.641524 0.641524 0.420587 0.333367 0.749950
-0.166667 0.166667 0.127109 0.641524 0.641524 0.420587 0.333367 0.666633
-0.083333 0.166667 0.000000 -0.000000 0.000000 1.000000 0.416683 0.666633
0.083333 0.166667 0.000000 0.641524 0.641524 0.420587 0.583317 0.666633
-0.000000 0.250000 0.000000 0.641524 0.641524 0.420587 0.500000 0.749950
-0.000000 0.166667 0.127109 0.641524 0.641524 0.420587 0.500000 0.666633
0.083333 0.166667 0.000000 -0.000000 0.000000 1.000000 0.583317 0.666633
0.250000 0.166667 0.000000 0.641524 0.641524 0.420587 0.749950 0.666633
0.166667 0.250000 0.000000 0.641524 0.641524 0.420587 0.666633 0.749950
0.166667 0.166667 0.127109 0.641524 0.641524 0.420587 0.666633 0.666633
0.250000 0.166667 0.000000 -0.000000 0.000000 1.000000 0.749950 0.666633
0.416667 0.166667 0.000000 0.641524 0.641524 0.420587 0.916583 0.666634
0.333333 0.250000 0.000000 0.641524 0.641524 0.420587 0.833266 0.749950
0.333333 0.166667 0.127109 0.641524 0.641524 0.420587 0.833266 0.666633
-0.416667 0.083333 0.000000 -0.000000 0.000000 1.000000 0.083417 0.583317
-0.500000 0.083333 0.000000 -0.000000 0.000000 1.000000 0.000100 0.583317
-0.333333 0.083333 0.000000 -0.000000 0.000000 1.000000 0.166733 0.583317
-0.333333 0.083333 0.000000 0.641524 -0.641524 0.420587 0.166733 0.583317
-0.250000 0.166667 0.000000 0.641524 -0.641524 0.420587 0.250050 0.666633
-0.333333 0.166667 0.127109 0.641524 -0.641524 0.420587 0.166733 0.666633
-0.166667 0.083333 0.000000 -0.000000 0.000000 1.000000 0.333367 0.583317
-0.250000 0.083333 0.000000 -0.000000 0.000000 1.000000 0.250050 0.583317
-0.166667 0.083333 0.000000 0.641524 -0.641524 0.420587 0.333367 0.583317
-0.083333 0.166667 0.000000 0.641524 -0.641524 0.420587 0.416683 0.666633
-0.166667 0.166667 0.127109 0.641524 -0.641524 0.420587 0.333367 0.666633
-0.000000 0.083333 0.000000 -0.000000 0.000000 1.000000 0.500000 0.583317
-0.083333 0.083333 0.000000 -0.000000 0.000000 1.000000 0.416683 0.583317
-0.000000 0.083333 0.000000 0.641524 -0.641524 0.420587 0.500000 0.583317
0.083333 0.166667 0.000000 0.641524 -0.641524 0.420587 0.583317 0.666633
-0.000000 0.166667 0.127109 0.641524 -0.641524 0.420587 0.500000 0.666633
0.166667 0.083333 0.000000 -0.000000 0.000000 1.000000 0.666633 0.583317
0.083333 0.083333 0.000000 -0.000000 0.000000 1.000000 0.583317 0.583317
0.166667 0.083333 0.000000 0.641524 -0.641524 0.420587 0.666633 0.583317
0.250000 0.166667 0.000000 0.641524 -0.641524 0.420587 0.749950 0.666633
0.166667 0.166667 0.127109 0.641524 -0.641524 0.420587 0.666633 0.666633
0.333333 0.083333 0.000000 -0.000000 0.000000 1.000000 0.833266 0.583317
0.250000 0.083333 0.000000 -0.000000 0.000000 1.000000 0.749950 0.583317
0.333333 0.083333 0.000000 0.641524 -0.641524 0.420587 0.833266 0.583317
0.416667 0.166667 0.000000 0.641524 -0.641524 0.420587 0.916583 0.666634
0.333333 0.166667 0.127109 0.641524 -0.641524 0.420587 0.833266 0.666633
-0.416667 -0.000000 0.000000 -0.000000 0.000000 1.000000 0.083417 0.500000
-0.500000 -0.000000 0.000000 -0.000000 0.000000 1.000000 0.000100 0.500000
-0.250000 -0.000000 0.000000 0.641524 0.641524 0.420587 0.250050 0.500000
-0.333333 0.083333 0.000000 0.641524 0.641524 0.420587 0.166733 0.583317
-0.333333 -0.000000 0.127109 0.641524 0.641524 0.420587 0.166733 0.500000
-0.250000 -0.000000 0.000000 -0.000000 0.000000 1.000000 0.250050 0.500000
-0.083333 -0.000000 0.000000 0.641524 0.641524 0.420587 0.416683 0.500000
-0.166667 0.083333 0.000000 0.641524 0.641524 0.420587 0.333367 0.583317
-0.166667 -0.000000 0.127109 0.641524 0.641524 0.420587 0.333367 0.500000
-0.083333 -0.000000 0.000000 -0.000000 0.000000 1.000000 0.416683 0.500000
0.083333 0.000000 0.000000 0.641524 0.641524 0.420587 0.583317 0.500000
-0.000000 0.083333 0.000000 0.641524 0.641524 0.420587 0.500000 0.583317
-0.000000 0.000000 0.127109 0.641524 0.641524 0.420587 0.500000 0.500000
0.083333 0.000000 0.000000 -0.000000 0.000000 1.000000 0.583317 0.500000
0.250000 0.000000 0.000000 0.641524 0.641524 0.420587 0.749950 0.500000
0.166667 0.083333 0.000000 0.641524 0.641524 0.420587 0.666633 0.583317
0.166667 0.000000 0.127109 0.641524 0.641524 0.420587 0.666633 0.500000
0.250000 0.000000 0.000000 -0.000000 0.000000 1.000000 0.749950 0.500000
0.416667 0.000000 0.000000 0.641524 0.641524 0.420587 0.916583 0.500000
0.333333 0.083333 0.000000 0.641524 0.641524 0.420587 0.833266 0.583317
0.333333 0.000000 0.127109 0.641524 0.641524 0.420587 0.833266 0.500000
-0.416667 -0.083333 0.000000 -0.000000 0.000000 1.000000 0.083417 0.416684
-0.500000 -0.083333 0.000000 -0.000000 0.000000 1.000000 0.000100 0.416684
-0.333333 -0.083333 0.000000 -0.000000 0.000000 1.000000 0.166733 0.416684
-0.333333 -0.083333 0.000000 0.641524 -0.641524 0.420587 0.166733 0.416684
-0.250000 -0.000000 0.000000 0.641524 -0.641524 0.420587 0.250050 0.500000
-0.333333 -0.000000 0.127109 0.641524 -0.641524 0.420587 0.166733 0.500000
-0.166667 -0.083333 0.000000 -0.000000 0.000000 1.000000 0.333367 0.416684
-0.250000 -0.083333 0.000000 -0.000000 0.000000 1.000000 0.250050 0.416684
-0.166667 -0.083333 0.000000 0.641524 -0.641524 0.420587 0.333367 0.416684
-0.083333 -0.000000 0.000000 0.641524 -0.641524 0.420587 0.416683 0.500000
-0.166667 -0.000000 0.127109 0.641524 -0.641524 0.420587 0.333367 0.500000
-0.000000 -0.083333 0.000000 -0.000000 0.000000 1.000000 0.500000 0.416683
-0.083333 -0.083333 0.000000 -0.000000 0.000000 1.000000 0.416683 0.416684
-0.000000 -0.083333 0.000000 0.641524 -0.641524 0.420587 0.500000 0.416683
0.083333 0.000000 0.000000 0.641524 -0.641524 0.420587 0.583317 0.500000
-0.000000 0.000000 0.127109 0.641524 -0.641524 0.420587 0.500000 0.500000
0.166667 -0.083333 0.000000 -0.000000 0.000000 1.000000 0.666633 0.416683
0.083333 -0.083333 0.000000 -0.000000 0.000000 1.000000 0.583317 0.416683
0.166667 -0.083333 0.000000 0.641524 -0.641524 0.420587 0.666633 0.416683
0.250000 0.000000 0.000000 0.641524 -0.641524 0.420587 0.749950 0.500000
0.166667 0.000000 0.127109 0.641524 -0.641524 0.420587 0.666633 0.500000
0.333333 -0.083333 0.000000 -0.000000 0.000000 1.000000 0.833266 0.416683
0.250000 -0.083333 0.000000 -0.000000 0.000000 1.000000 0.749950 0.416683
0.333333 -0.083333 0.000000 0.641524 -0.641524 0.420587 0.833266 0.416683
0.416667 0.000000 0.000000 0.641524 -0.641524 0.420587 0.916583 0.500000
0.333333 0.000000 0.127109 0.641524 -0.641524 0.420587 0.833266 0.500000
-0.416667 -0.166667 0.000000 -0.000000 0.000000 1.000000 0.083417 0.333367
-0.500000 -0.166667 0.000000 -0.000000 0.000000 1.000000 0.000100 0.333367
-0.250000 -0.166667 0.000000 0.641524 0.641524 0.420587 0.250050 0.333367
-0.333333 -0.083333 0.000000 0.641524 0.641524 0.420587 0.166733 0.416684
-0.333333 -0.166667 0.127109 0.641524 0.641524 0.420587 0.166733 0.333367
-0.250000 -0.166667 0.000000 -0.000000 0.000000 1.000000 0.250050 0.333367
-0.083333 -0.166667 0.000000 0.641524 0.641524 0.420587 0.416683 0.333367
-0.166667 -0.083333 0.000000 0.641524 0.641524 0.420587 0.333367 0.416684
-0.166667 -0.166667 0.127109 0.641524 0.641524 0.420587 0.333367 0.333367
-0.083333 -0.166667 0.000000 -0.000000 0.000000 1.000000 0.416683 0.333367
0.083333 -0.166667 0.000000 0.641524 0.641524 0.420587 0.583317 0.333367
-0.000000 -0.083333 0.000000 0.641524 0.641524 0.420587 0.500000 0.416683
-0.000000 -0.166667 0.127109 0.641524 0.641524 0.420587 0.500000 0.333367
0.083333 -0.166667 0.000000 -0.000000 0.000000 1.000000 0.583317 0.333367
0.250000 -0.166667 0.000000 0.641524 0.641524 0.420587 0.749950 0.333367
0.166667 -0.083333 0.000000 0.641524 0.641524 0.420587 0.666633 0.416683
0.166667 -0.166667 0.127109 0.641524 0.641524 0.420587 0.666633 0.333367
0.250000 -0.166667 0.000000 -0.000000 0.000000 1.000000 0.749950 0.333367
0.416667 -0.166667 0.000000 0.641524 0.641524 0.420587 0.916583 0.333367
0.333333 -0.083333 0.000000 0.641524 0.641524 0.420587 0.833266 0.416683
0.333333 -0.166667 0.127109 0.641524 0.641524 0.420587 0.833266 0.333367
-0.416667 -0.250000 0.000000 -0.000000 0.000000 1.000000 0.083417 0.250050
-0.500000 -0.250000 0.000000 -0.000000 0.000000 1.000000 0.000100 0.250050
-0.333333 -0.250000 0.000000 -0.000000 0.000000 1.000000 0.166733 0.250050
-0.333333 -0.250000 0.000000 0.641524 -0.641524 0.420587 0.166733 0.250050
-0.250000 -0.166667 0.000000 0.641524 -0.641524 0.420587 0.250050 0.333367
-0.333333 -0.166667 0.127109 0.641524 -0.641524 0.420587 0.166733 0.333367
-0.166667 -0.250000 0.000000 -0.000000 0.000000 1.000000 0.333367 0.250050
-0.250000 -0.250000 0.000000 -0.000000 0.000000 1.000000 0.250050 0.250050
-0.166667 -0.250000 0.000000 0.641524 -0.641524 0.420587 0.333367 0.250050
-0.083333 -0.166667 0.000000 0.641524 -0.641524 0.420587 0.416683 0.333367
-0.166667 -0.166667 0.127109 0.641524 -0.641524 0.420587 0.333367 0.333367
-0.000000 -0.250000 0.000000 -0.000000 0.000000 1.000000 0.500000 0.250050
-0.083333 -0.250000 0.000000 -0.000000 0.000000 1.000000 0.416683 0.250050
-0.000000 -0.250000 0.000000 0.641524 -0.641524 0.420587 0.500000 0.250050
0.083333 -0.166667 0.000000 0.641524 -0.641524 0.420587 0.583317 0.333367
-0.000000 -0.166667 0.127109 0.641524 -0.641524 0.420587 0.500000 0.333367
0.166667 -0.250000 0.000000 -0.000000 0.000000 1.000000 0.666633 0.250050
0.083333 -0.250000 0.000000 -0.000000 0.000000 1.000000 0.583316 0.250050
0.166667 -0.250000 0.000000 0.641524 -0.641524 0.420587 0.666633 0.250050
0.250000 -0.166667 0.000000 0.641524 -0.641524 0.420587 0.749950 0.333367
0.166667 -0.166667 0.127109 0.641524 -0.641524 0.420587 0.666633 0.333367
0.333333 -0.250000 0.000000 -0.000000 0.000000 1.000000 0.833266 0.250050
0.250000 -0.250000 0.000000 -0.000000 0.000000 1.000000 0.749950 0.250050
0.333333 -0.250000 0.000000 0.641524 -0.641524 0.420587 0.833266 0.250050
0.416667 -0.166667 0.000000 0.641524 -0.641524 0.420587 0.916583 0.333367
0.333333 -0.166667 0.127109 0.641524 -0.641524 0.420587 0.833266 0.333367
-0.416667 -0.333333 0.000000 -0.000000 0.000000 1.000000 0.083417 0.166734
-0.500000 -0.333333 0.000000 -0.000000 0.000000 1.000000 0.000100 0.166734
-0.250000 -0.333333 0.000000 0.641524 0.641524 0.420587 0.250050 0.166734
-0.333333 -0.250000 0.000000 0.641524 0.641524 0.420587 0.166733 0.250050
-0.333333 -0.333333 0.127109 0.641524 0.641524 0.420587 0.166733 0.166734
-0.250000 -0.333333 0.000000 -0.000000 0.000000 1.000000 0.250050 0.166734
-0.083333 -0.333333 0.000000 0.641524 0.641524 0.420587 0.416683 0.166734
-0.166667 -0.250000 0.000000 0.641524 0.641524 0.420587 0.333367 0.250050
-0.166667 -0.333333 0.127109 0.641524 0.641524 0.420587 0.333366 0.166734
-0.083333 -0.333333 0.000000 -0.000000 0.000000 1.000000 0.416683 0.166734
0.083333 -0.333333 0.000000 0.641524 0.641524 0.420587 0.583316 0.166734
-0.000000 -0.250000 0.000000 0.641524 0.641524 0.420587 0.500000 0.250050
-0.000000 -0.333333 0.127109 0.641524 0.641524 0.420587 0.500000 0.166734
0.083333 -0.333333 0.000000 -0.000000 0.000000 1.000000 0.583316 0.166734
0.250000 -0.333333 0.000000 0.641524 0.641524 0.420587 0.749950 0.166734
0.166667 -0.250000 0.000000 0.641524 0.641524 0.420587 0.666633 0.250050
0.166667 -0.333333 0.127109 0.641524 0.641524 0.420587 0.666633 0.166734
0.250000 -0.333333 0.000000 -0.000000 0.000000 1.000000 0.749950 0.166734
0.416667 -0.333333 0.000000 0.641524 0.641524 0.420587 0.916583 0.166733
0.333333 -0.250000 0.000000 0.641524 0.641524 0.420587 0.833266 0.250050
0.333333 -0.333333 0.127109 0.641524 0.641524 0.420587 0.833266 0.166734
-0.416667 -0.416667 0.000000 -0.000000 0.000000 1.000000 0.083417 0.083417
-0.500000 -0.416667 0.000000 -0.000000 0.000000 1.000000 0.000100 0.083417
-0.333333 -0.416667 0.000000 -0.000000 0.000000 1.000000 0.166733 0.083417
-0.333333 -0.416667 0.000000 0.641524 -0.641524 0.420587 0.166733 0.083417
-0.250000 -0.333333 0.000000 0.641524 -0.641524 0.420587 0.250050 0.166734
-0.333333 -0.333333 0.127109 0.641524 -0.641524 0.420587 0.166733 0.166734
-0.166667 -0.416667 0.000000 -0.000000 0.000000 1.000000 0.333366 0.083417
-0.250000 -0.416667 0.000000 -0.000000 0.000000 1.000000 0.250050 0.083417
-0.166667 -0.416667 0.000000 0.641524 -0.641524 0.420587 0.333366 0.083417
-0.083333 -0.333333 0.000000 0.641524 -0.641524 0.420587 0.416683 0.166734
-0.166667 -0.333333 0.127109 0.641524 -0.641524 0.420587 0.333366 0.166734
-0.000000 -0.416667 0.000000 -0.000000 0.000000 1.000000 0.500000 0.083417
-0.083333 -0.416667 0.000000 -0.000000 0.000000 1.000000 0.416683 0.083417
-0.000000 -0.416667 0.000000 0.641524 -0.641524 0.420587 0.500000 0.083417
0.083333 -0.333333 0.000000 0.641524 -0.641524 0.420587 0.583316 0.166734
-0.000000 -0.333333 0.127109 0.641524 -0.641524 0.420587 0.500000 0.166734
0.166667 -0.416667 0.000000 -0.000000 0.000000 1.000000 0.666633 0.083417
0.083333 -0.416667 0.000000 -0.000000 0.000000 1.000000 0.583316 0.083417
0.166667 -0.416667 0.000000 0.641524 -0.641524 0.420587 0.666633 0.083417
0.250000 -0.333333 0.000000 0.641524 -0.641524 0.420587 0.749950 0.166734
0.166667 -0.333333 0.127109 0.641524 -0.641524 0.420587 0.666633 0.166734
0.333333 -0.416667 0.000000 -0.000000 0.000000 1.000000 0.833266 0.083417
0.250000 -0.416667 0.000000 -0.000000 0.000000 1.000000 0.749950 0.083417
0.333333 -0.416667 0.000000 0.641524 -0.641524 0.420587 0.833266 0.083417
0.416667 -0.333333 0.000000 0.641524 -0.641524 0.420587 0.916583 0.166733
0.333333 -0.333333 0.127109 0.641524 -0.641524 0.420587 0.833266 0.166734
-0.500000 -0.500000 0.000000 -0.000000 0.000000 1.000000 0.000100 0.000101
-0.416667 -0.500000 0.000000 -0.000000 0.000000 1.000000 0.083417 0.000101
-0.333333 -0.500000 0.000000 -0.000000 0.000000 1.000000 0.166733 0.000101
-0.250000 -0.500000 0.000000 -0.000000 0.000000 1.000000 0.250050 0.000100
-0.166667 -0.500000 0.000000 -0.000000 0.000000 1.000000 0.333366 0.000100
-0.083333 -0.500000 0.000000 -0.000000 0.000000 1.000000 0.416683 0.000100
0.000000 -0.500000 0.000000 -0.000000 0.000000 1.000000 0.500000 0.000100
0.083333 -0.500000 0.000000 -0.000000 0.000000 1.000000 0.583316 0.000100
0.166667 -0.500000 0.000000 -0.000000 0.000000 1.000000 0.666633 0.000100
0.250000 -0.500000 0.000000 -0.000000 0.000000 1.000000 0.749950 0.000100
0.333333 -0.500000 0.000000 -0.000000 0.000000 1.000000 0.833266 0.000100
-0.416667 0.416667 0.000000 -0.000000 0.000000 1.000000 0.083417 0.916583
-0.500000 0.500000 0.000000 -0.000000 0.000000 1.000000 0.000100 0.999900
-0.333333 0.416667 0.000000 -0.000000 0.000000 1.000000 0.166733 0.916583
-0.416667 0.500000 0.000000 -0.000000 0.000000 1.000000 0.083417 0.999900
-0.333333 0.500000 0.000000 -0.000000 0.000000 1.000000 0.166733 0.999900
-0.250000 0.500000 0.000000 -0.000000 0.000000 1.000000 0.250050 0.999900
-0.166667 0.500000 0.000000 -0.000000 0.000000 1.000000 0.333367 0.999900
-0.083333 0.500000 0.000000 -0.000000 0.000000 1.000000 0.416683 0.999900
-0.000000 0.500000 0.000000 -0.000000 0.000000 1.000000 0.500000 0.999900
0.083333 0.500000 0.000000 -0.000000 0.000000 1.000000 0.583317 0.999900
0.166667 0.500000 0.000000 -0.000000 0.000000 1.000000 0.666633 0.999900
0.250000 0.500000 0.000000 -0.000000 0.000000 1.000000 0.749950 0.999900
0.333333 0.500000 0.000000 -0.000000 0.000000 1.000000 0.833266 0.999900
0.500000 0.500000 0.000000 -0.000000 0.000000 1.000000 0.999900 0.999900
0.500000 -0.500000 0.000000 0.000000 0.000000 1.000000 0.999900 0.000100
-0.333333 0.250000 0.000000 -0.641524 -0.641524 0.420587 0.166733 0.749950
-0.333333 0.333333 0.127109 -0.641524 -0.641524 0.420587 0.166733 0.833267
-0.416667 0.333333 0.000000 -0.641524 -0.641524 0.420587 0.083417 0.833267
-0.250000 0.333333 0.000000 -0.641524 0.641524 0.420587 0.250050 0.833267
-0.166667 0.333333 0.127109 -0.641524 0.641524 0.420587 0.333367 0.833267
-0.166667 0.416667 0.000000 -0.641524 0.641524 0.420587 0.333367 0.916583
-0.083333 0.333333 0.000000 -0.641524 0.641524 0.420587 0.416683 0.833267
-0.000000 0.333333 0.127109 -0.641524 0.641524 0.420587 0.500000 0.833267
-0.000000 0.416667 0.000000 -0.641524 0.641524 0.420587 0.500000 0.916583
0.083333 0.333333 0.000000 -0.641524 0.641524 0.420587 0.583317 0.833267
0.166667 0.333333 0.127109 -0.641524 0.641524 0.420587 0.666633 0.833267
0.166667 0.416667 0.000000 -0.641524 0.641524 0.420587 0.666633 0.916583
0.250000 0.333333 0.000000 -0.641524 0.641524 0.420587 0.749950 0.833267
0.333333 0.333333 0.127109 -0.641524 0.641524 0.420587 0.833266 0.833267
0.333333 0.416667 0.000000 -0.641524 0.641524 0.420587 0.833266 0.916583
-0.166667 0.250000 0.000000 -0.641524 -0.641524 0.420587 0.333367 0.749950
-0.166667 0.333333 0.127109 -0.641524 -0.641524 0.420587 0.333367 0.833267
-0.250000 0.333333 0.000000 -0.641524 -0.641524 0.420587 0.250050 0.833267
-0.000000 0.250000 0.000000 -0.641524 -0.641524 0.420587 0.500000 0.749950
-0.000000 0.333333 0.127109 -0.641524 -0.641524 0.420587 0.500000 0.833267
-0.083333 0.333333 0.000000 -0.641524 -0.641524 0.420587 0.416683 0.833267
0.166667 0.250000 0.000000 -0.641524 -0.641524 0.420587 0.666633 0.749950
0.166667 0.333333 0.127109 -0.641524 -0.641524 0.420587 0.666633 0.833267
0.083333 0.333333 0.000000 -0.641524 -0.641524 0.420587 0.583317 0.833267
0.333333 0.250000 0.000000 -0.641524 -0.641524 0.420587 0.833266 0.749950
0.333333 0.333333 0.127109 -0.641524 -0.641524 0.420587 0.833266 0.833267
0.250000 0.333333 0.000000 -0.641524 -0.641524 0.420587 0.749950 0.833267
-0.416667 0.166667 0.000000 -0.641524 0.641524 0.420587 0.083417 0.666633
-0.333333 0.166667 0.127109 -0.641524 0.641524 0.420587 0.166733 0.666633
-0.333333 0.250000 0.000000 -0.641524 0.641524 0.420587 0.166733 0.749950
-0.250000 0.166667 0.000000 -0.641524 0.641524 0.420587 0.250050 0.666633
-0.166667 0.166667 0.127109 -0.641524 0.641524 0.420587 0.333367 0.666633
-0.166667 0.250000 0.000000 -0.641524 0.641524 0.420587 0.333367 0.749950
-0.083333 0.166667 0.000000 -0.641524 0.641524 0.420587 0.416683 0.666633
-0.000000 0.166667 0.127109 -0.641524 0.641524 0.420587 0.500000 0.666633
-0.000000 0.250000 0.000000 -0.641524 0.641524 0.420587 0.500000 0.749950
0.083333 0.166667 0.000000 -0.641524 0.641524 0.420587 0.583317 0.666633
0.166667 0.166667 0.127109 -0.641524 0.641524 0.420587 0.666633 0.666633
0.166667 0.250000 0.000000 -0.641524 0.641524 0.420587 0.666633 0.749950
0.250000 0.166667 0.000000 -0.641524 0.641524 0.420587 0.749950 0.666633
0.333333 0.166667 0.127109 -0.641524 0.641524 0.420587 0.833266 0.666633
0.333333 0.250000 0.000000 -0.641524 0.641524 0.420587 0.833266 0.749950
-0.333333 0.083333 0.000000 -0.641524 -0.641524 0.420587 0.166733 0.583317
-0.333333 0.166667 0.127109 -0.641524 -0.641524 0.420587 0.166733 0.666633
-0.416667 0.166667 0.000000 -0.641524 -0.641524 0.420587 0.083417 0.666633
-0.166667 0.083333 0.000000 -0.641524 -0.641524 0.420587 0.333367 0.583317
-0.166667 0.166667 0.127109 -0.641524 -0.641524 0.420587 0.333367 0.666633
-0.250000 0.166667 0.000000 -0.641524 -0.641524 0.420587 0.250050 0.666633
-0.000000 0.083333 0.000000 -0.641524 -0.641524 0.420587 0.500000 0.583317
-0.000000 0.166667 0.127109 -0.641524 -0.641524 0.420587 0.500000 0.666633
-0.083333 0.166667 0.000000 -0.641524 -0.641524 0.420587 0.416683 0.666633
0.166667 0.083333 0.000000 -0.641524 -0.641524 0.420587 0.666633 0.583317
0.166667 0.166667 0.127109 -0.641524 -0.641524 0.420587 0.666633 0.666633
0.083333 0.166667 0.000000 -0.641524 -0.641524 0.420587 0.583317 0.666633
0.333333 0.083333 0.000000 -0.641524 -0.641524 0.420587 0.833266 0.583317
0.333333 0.166667 0.127109 -0.641524 -0.641524 0.420587 0.833266 0.666633
0.250000 0.166667 0.000000 -0.641524 -0.641524 0.420587 0.749950 0.666633
-0.416667 -0.000000 0.000000 -0.641524 0.641524 0.420587 0.083417 0.500000
-0.333333 -0.000000 0.127109 -0.641524 0.641524 0.420587 0.166733 0.500000
-0.333333 0.083333 0.000000 -0.641524 0.641524 0.420587 0.166733 0.583317
-0.250000 -0.000000 0.000000 -0.641524 0.641524 0.420587 0.250050 0.500000
-0.166667 -0.000000 0.127109 -0.641524 0.641524 0.420587 0.333367 0.500000
-0.166667 0.083333 0.000000 -0.641524 0.641524 0.420587 0.333367 0.583317
-0.083333 -0.000000 0.000000 -0.641524 0.641524 0.420587 0.416683 0.500000
-0.000000 0.000000 0.127109 -0.641524 0.641524 0.420587 0.500000 0.500000
-0.000000 0.083333 0.000000 -0.641524 0.641524 0.420587 0.500000 0.583317
0.083333 0.000000 0.000000 -0.641524 0.641524 0.420587 0.583317 0.500000
0.166667 0.000000 0.127109 -0.641524 0.641524 0.420587 0.666633 0.500000
0.166667 0.083333 0.000000 -0.641524 0.641524 0.420587 0.666633 0.583317
0.250000 0.000000 0.000000 -0.641524 0.641524 0.420587 0.749950 0.500000
0.333333 0.000000 0.127109 -0.641524 0.641524 0.420587 0.833266 0.500000
0.333333 0.083333 0.000000 -0.641524 0.641524 0.420587 0.833266 0.583317
-0.333333 -0.083333 0.000000 -0.641524 -0.641524 0.420587 0.166733 0.416684
-0.333333 -0.000000 0.127109 -0.641524 -0.641524 0.420587 0.166733 0.500000
-0.416667 -0.000000 0.000000 -0.641524 -0.641524 0.420587 0.083417 0.500000
-0.166667 -0.083333 0.000000 -0.641524 -0.641524 0.420587 0.333367 0.416684
-0.166667 -0.000000 0.127109 -0.641524 -0.641524 0.420587 0.333367 0.500000
-0.250000 -0.000000 0.000000 -0.641524 -0.641524 0.420587 0.250050 0.500000
-0.000000 -0.083333 0.000000 -0.641524 -0.641524 0.420587 0.500000 0.416683
-0.000000 0.000000 0.127109 -0.641524 -0.641524 0.420587 0.500000 0.500000
-0.083333 -0.000000 0.000000 -0.641524 -0.641524 0.420587 0.416683 0.500000
0.166667 -0.083333 0.000000 -0.641524 -0.641524 0.420587 0.666633 0.416683
0.166667 0.000000 0.127109 -0.641524 -0.641524 0.420587 0.666633 0.500000
0.083333 0.000000 0.000000 -0.641524 -0.641524 0.420587 0.583317 0.500000
0.333333 -0.083333 0.000000 -0.641524 -0.641524 0.420587 0.833266 0.416683
0.333333 0.000000 0.127109 -0.641524 -0.641524 0.420587 0.833266 0.500000
0.250000 0.000000 0.000000 -0.641524 -0.641524 0.420587 0.749950 0.500000
-0.416667 -0.166667 0.000000 -0.641524 0.641524 0.420587 0.083417 0.333367
-0.333333 -0.166667 0.127109 -0.641524 0.641524 0.420587 0.166733 0.333367
-0.333333 -0.083333 0.000000 -0.641524 0.641524 0.420587 0.166733 0.416684
-0.250000 -0.166667 0.000000 -0.641524 0.641524 0.420587 0.250050 0.333367
-0.166667 -0.166667 0.127109 -0.641524 0.641524 0.420587 0.333367 0.333367
-0.166667 -0.083333 0.000000 -0.641524 0.641524 0.420587 0.333367 0.416684
-0.083333 -0.166667 0.000000 -0.641524 0.641524 0.420587 0.416683 0.333367
-0.000000 -0.166667 0.127109 -0.641524 0.641524 0.420587 0.500000 0.333367
-0.000000 -0.083333 0.000000 -0.641524 0.641524 0.420587 0.500000 0.416683
0.083333 -0.166667 0.000000 -0.641524 0.641524 0.420587 0.583317 0.333367
0.166667 -0.166667 0.127109 -0.641524 0.641524 0.420587 0.666633 0.333367
0.166667 -0.083333 0.000000 -0.641524 0.641524 0.420587 0.666633 0.416683
0.250000 -0.166667 0.000000 -0.641524 0.641524 0.420587 0.749950 0.333367
0.333333 -0.166667 0.127109 -0.641524 0.641524 0.420587 0.833266 0.333367
0.333333 -0.083333 0.000000 -0.641524 0.641524 0.420587 0.833266 0.416683
-0.333333 -0.250000 0.000000 -0.641524 -0.641524 0.420587 0.166733 0.250050
-0.333333 -0.166667 0.127109 -0.641524 -0.641524 0.420587 0.166733 0.333367
-0.416667 -0.166667 0.000000 -0.641524 -0.641524 0.420587 0.083417 0.333367
-0.166667 -0.250000 0.000000 -0.641524 -0.641524 0.420587 0.333367 0.250050
-0.166667 -0.166667 0.127109 -0.641524 -0.641524 0.420587 0.333367 0.333367
-0.250000 -0.166667 0.000000 -0.641524 -0.641524 0.420587 0.250050 0.333367
-0.000000 -0.250000 0.000000 -0.641524 -0.641524 0.420587 0.500000 0.250050
-0.000000 -0.166667 0.127109 -0.641524 -0.641524 0.420587 0.500000 0.333367
-0.083333 -0.166667 0.000000 -0.641524 -0.641524 0.420587 0.416683 0.333367
0.166667 -0.250000 0.000000 -0.641524 -0.641524 0.420587 0.666633 0.250050
0.166667 -0.166667 0.127109 -0.641524 -0.641524 0.420587 0.666633 0.333367
0.083333 -0.166667 0.000000 -0.641524 -0.641524 0.420587 0.583317 0.333367
0.333333 -0.250000 0.000000 -0.641524 -0.641524 0.420587 0.833266 0.250050
0.333333 -0.166667 0.127109 -0.641524 -0.641524 0.420587 0.833266 0.333367
0.250000 -0.166667 0.000000 -0.641524 -0.641524 0.420587 0.749950 0.333367
-0.416667 -0.333333 0.000000 -0.641524 0.641524 0.420587 0.083417 0.166734
-0.333333 -0.333333 0.127109 -0.641524 0.641524 0.420587 0.166733 0.166734
-0.333333 -0.250000 0.000000 -0.641524 0.641524 0.420587 0.166733 0.250050
-0.250000 -0.333333 0.000000 -0.641524 0.641524 0.420587 0.250050 0.166734
-0.166667 -0.333333 0.127109 -0.641524 0.641524 0.420587 0.333366 0.166734
-0.166667 -0.250000 0.000000 -0.641524 0.641524 0.420587 0.333367 0.250050
-0.083333 -0.333333 0.000000 -0.641524 0.641524 0.420587 0.416683 0.166734
-0.000000 -0.333333 0.127109 -0.641524 0.641524 0.420587 0.500000 0.166734
-0.000000 -0.250000 0.000000 -0.641524 0.641524 0.420587 0.500000 0.250050
0.083333 -0.333333 0.000000 -0.641524 0.641524 0.420587 0.583316 0.166734
0.166667 -0.333333 0.127109 -0.641524 0.641524 0.420587 0.666633 0.166734
0.166667 -0.250000 0.000000 -0.641524 0.641524 0.420587 0.666633 0.250050
0.250000 -0.333333 0.000000 -0.641524 0.641524 0.420587 0.749950 0.166734
0.333333 -0.333333 0.127109 -0.641524 0.641524 0.420587 0.833266 0.166734
0.333333 -0.250000 0.000000 -0.641524 0.641524 0.420587 0.833266 0.250050
-0.333333 -0.416667 0.000000 -0.641524 -0.641524 0.420587 0.166733 0.083417
-0.333333 -0.333333 0.127109 -0.641524 -0.641524 0.420587 0.166733 0.166734
-0.416667 -0.333333 0.000000 -0.641524 -0.641524 0.420587 0.083417 0.166734
-0.166667 -0.416667 0.000000 -0.641524 -0.641524 0.420587 0.333366 0.083417
-0.166667 -0.333333 0.127109 -0.641524 -0.641524 0.420587 0.333366 0.166734
-0.250000 -0.333333 0.000000 -0.641524 -0.641524 0.420587 0.250050 0.166734
-0.000000 -0.416667 0.000000 -0.641524 -0.641524 0.420587 0.500000 0.083417
-0.000000 -0.333333 0.127109 -0.641524 -0.641524 0.420587 0.500000 0.166734
-0.083333 -0.333333 0.000000 -0.641524 -0.641524 0.420587 0.416683 0.166734
0.166667 -0.416667 0.000000 -0.641524 -0.641524 0.420587 0.666633 0.083417
0.166667 -0.333333 0.127109 -0.641524 -0.641524 0.420587 0.666633 0.166734
0.083333 -0.333333 0.000000 -0.641524 -0.641524 0.420587 0.583316 0.166734
0.333333 -0.416667 0.000000 -0.641524 -0.641524 0.420587 0.833266 0.083417
0.333333 -0.333333 0.127109 -0.641524 -0.641524 0.420587 0.833266 0.166734
0.250000 -0.333333 0.000000 -0.641524 -0.641524 0.420587 0.749950 0.166734
-0.416667 0.333333 0.000000 -0.641524 0.641524 0.420587 0.083417 0.833267
-0.333333 0.333333 0.127109 -0.641524 0.641524 0.420587 0.166733 0.833267
-0.333333 0.416667 0.000000 -0.641524 0.641524 0.420587 0.166733 0.916583
3 0 1 2
3 3 4 5
3 4 6 5
3 7 8 6
3 9 10 8
3 11 12 10
3 13 14 12
3 15 16 14
3 17 18 16
3 19 20 18
3 21 22 20
3 23 2 22
3 24 25 26
3 27 24 28
3 29 30 31
3 32 33 34
3 35 36 37
3 38 39 40
3 41 42 43
3 44 45 46
3 47 48 49
3 50 51 52
3 28 26 53
3 54 55 56
3 57 58 59
3 60 29 61
3 62 63 64
3 65 35 66
3 67 68 69
3 70 41 71
3 72 73 74
3 75 47 76
3 77 78 79
3 80 53 81
3 80 27 28
3 82 83 84
3 85 60 61
3 86 87 88
3 89 65 66
3 90 91 92
3 93 70 71
3 94 95 96
3 97 75 76
3 98 99 100
3 101 81 102
3 103 80 101
3 104 105 106
3 107 85 108
3 109 110 111
3 112 89 113
3 114 115 116
3 117 93 118
3 119 120 121
3 122 97 123
3 124 125 126
3 127 102 128
3 127 103 101
3 129 130 131
3 132 107 108
3 133 134 135
3 136 112 113
3 137 138 139
3 140 117 118
3 141 142 143
3 144 122 123
3 145 146 147
3 148 128 149
3 150 127 148
3 151 152 153
3 154 132 155
3 156 157 158
3 159 136 160
3 161 162 163
3 164 140 165
3 166 167 168
3 169 144 170
3 171 172 173
3 174 149 175
3 174 150 148
3 176 177 178
3 179 154 155
3 180 181 182
3 183 159 160
3 184 185 186
3 187 164 165
3 188 189 190
3 191 169 170
3 192 193 194
3 195 175 196
3 197 174 195
3 198 199 200
3 201 179 202
3 203 204 205
3 206 183 207
3 208 209 210
3 211 187 212
3 213 214 215
3 216 191 217
3 218 219 220
3 221 196 222
3 221 197 195
3 223 224 225
3 226 201 202
3 227 228 229
3 230 206 207
3 231 232 233
3 234 211 212
3 235 236 237
3 238 216 217
3 239 240 241
3 242 222 243
3 244 221 242
3 245 246 247
3 248 226 249
3 250 251 252
3 253 230 254
3 255 256 257
3 258 234 259
3 260 261 262
3 263 238 264
3 265 266 267
3 268 242 243
3 269 244 242
3 270 249 244
3 271 248 249
3 272 254 248
3 273 253 254
3 274 259 253
3 275 258 259
3 276 264 258
3 277 263 264
3 278 5 263
3 279 280 25
3 281 282 279
3 31 283 281
3 30 284 31
3 37 285 30
3 36 286 37
3 43 287 36
3 42 288 43
3 49 289 42
3 48 290 49
3 2 291 48
3 24 281 279
3 0 292 1
3 3 293 4
3 4 7 6
3 7 9 8
3 9 11 10
3 11 13 12
3 13 15 14
3 15 17 16
3 17 19 18
3 19 21 20
3 21 23 22
3 23 0 2
3 24 279 25
3 294 295 296
3 297 298 299
3 35 37 30
3 300 301 302
3 41 43 36
3 303 304 305
3 47 49 42
3 306 307 308
3 22 2 48
3 28 24 26
3 27 61 29
3 29 31 281
3 309 310 311
3 60 66 35
3 312 313 314
3 65 71 41
3 315 316 317
3 70 76 47
3 318 319 320
3 75 20 22
3 80 28 53
3 321 322 323
3 85 61 27
3 324 325 326
3 89 66 60
3 327 328 329
3 93 71 65
3 330 331 332
3 97 76 70
3 333 334 335
3 18 20 75
3 101 80 81
3 336 337 338
3 103 108 85
3 339 340 341
3 107 113 89
3 342 343 344
3 112 118 93
3 345 346 347
3 117 123 97
3 348 349 350
3 122 16 18
3 127 101 102
3 351 352 353
3 132 108 103
3 354 355 356
3 136 113 107
3 357 358 359
3 140 118 112
3 360 361 362
3 144 123 117
3 363 364 365
3 14 16 122
3 148 127 128
3 366 367 368
3 150 155 132
3 369 370 371
3 154 160 136
3 372 373 374
3 159 165 140
3 375 376 377
3 164 170 144
3 378 379 380
3 169 12 14
3 174 148 149
3 381 382 383
3 179 155 150
3 384 385 386
3 183 160 154
3 387 388 389
3 187 165 159
3 390 391 392
3 191 170 164
3 393 394 395
3 10 12 169
3 195 174 175
3 396 397 398
3 197 202 179
3 399 400 401
3 201 207 183
3 402 403 404
3 206 212 187
3 405 406 407
3 211 217 191
3 408 409 410
3 216 8 10
3 221 195 196
3 411 412 413
3 226 202 197
3 414 415 416
3 230 207 201
3 417 418 419
3 234 212 206
3 420 421 422
3 238 217 211
3 423 424 425
3 6 8 216
3 242 221 222
3 426 427 428
3 244 249 226
3 429 430 431
3 248 254 230
3 432 433 434
3 253 259 234
3 435 436 437
3 258 264 238
3 438 439 440
3 263 5 6
3 268 269 242
3 269 270 244
3 270 271 249
3 271 272 248
3 272 273 254
3 273 274 253
3 274 275 259
3 275 276 258
3 276 277 264
3 277 278 263
3 278 3 5
3 279 282 280
3 281 283 282
3 31 284 283
3 30 285 284
3 37 286 285
3 36 287 286
3 43 288 287
3 42 289 288
3 49 290 289
3 48 291 290
3 2 1 291
3 441 442 443
