ply
format ascii 1.0
comment Created by Blender 2.78 (sub 0) - www.blender.org, source file: 'Table.blend'
element vertex 152
property float x
property float y
property float z
property float nx
property float ny
property float nz
property float s
property float t
element face 92
property list uchar uint vertex_indices
end_header
-0.947030 0.650000 -0.050000 -0.000000 1.000000 0.000000 1.097690 1.302318
-1.000000 0.650000 -0.700000 -0.000000 1.000000 0.000000 1.127795 -0.422592
-1.000000 0.650000 -0.050000 -0.000000 1.000000 0.000000 1.127795 1.302721
-1.000000 -0.603241 0.050000 0.000000 0.000000 1.000000 0.013690 -0.406213
-0.947031 -0.650000 0.050000 0.000000 0.000000 1.000000 0.026837 -0.424068
-0.947031 -0.603241 0.050000 0.000000 0.000000 1.000000 0.026837 -0.406213
0.999999 -0.603242 0.050000 1.000000 0.000000 0.000006 0.510109 -0.406227
1.000000 -0.650000 -0.050000 1.000000 0.000000 0.000006 1.006545 -0.424090
1.000000 -0.603242 -0.050000 1.000000 0.000000 0.000006 1.006546 -0.406235
-0.947031 -0.650000 0.050000 0.000000 -1.000000 0.000001 -0.469580 1.066014
-1.000000 -0.650000 -0.050000 0.000000 -1.000000 0.000001 -0.482727 0.569590
-0.947030 -0.650000 -0.050000 0.000000 -1.000000 0.000001 -0.469581 0.569590
-1.000000 0.600120 0.050000 -1.000000 0.000000 -0.000003 0.013697 0.053305
-1.000000 0.650000 -0.050000 -1.000000 0.000000 -0.000003 -0.482717 0.072361
-1.000000 0.600120 -0.050000 -1.000000 0.000000 -0.000003 -0.482717 0.053313
-0.947030 0.650000 -0.050000 0.000000 1.000000 0.000002 0.026848 0.568777
-1.000000 0.650000 0.050000 0.000000 1.000000 0.000002 0.013697 0.072352
-0.947030 0.650000 0.050000 0.000000 1.000000 0.000002 0.026844 0.072352
1.000000 0.650000 -0.050000 0.000000 1.000000 0.000003 0.510116 0.568766
0.951556 0.650000 0.050000 0.000000 1.000000 0.000003 0.498088 0.072356
1.000000 0.650000 0.050000 0.000000 1.000000 0.000003 0.510114 0.072356
0.999999 -0.650000 0.050000 -0.000000 -1.000000 -0.000004 0.013696 1.066013
0.951555 -0.650000 -0.050000 -0.000000 -1.000000 -0.000004 0.001671 0.569589
1.000000 -0.650000 -0.050000 -0.000000 -1.000000 -0.000004 0.013697 0.569589
0.951555 -0.603242 0.050000 0.000000 0.000000 1.000000 0.498084 -0.406227
0.999999 -0.650000 0.050000 0.000000 0.000000 1.000000 0.510108 -0.424083
0.999999 -0.603242 0.050000 0.000000 0.000000 1.000000 0.510109 -0.406227
-1.000000 0.600120 -0.050000 -0.000000 -1.000000 -0.000000 1.037477 1.301568
-0.947030 0.600120 -0.700000 -0.000000 -1.000000 -0.000000 1.067582 -0.423341
-0.947030 0.600120 -0.050000 -0.000000 -1.000000 -0.000000 1.067582 1.301971
0.951555 0.650000 -0.050000 0.000000 1.000000 0.000003 0.498092 0.568766
-0.947030 0.650000 0.050000 0.000000 1.000000 0.000003 0.026844 0.072352
0.951555 -0.650000 0.050000 -0.000000 -1.000000 -0.000004 0.001672 1.066013
-0.947030 -0.650000 -0.050000 -0.000000 -1.000000 -0.000004 -0.469581 0.569590
0.951555 -0.650000 0.050000 0.000000 0.000000 1.000000 0.498084 -0.424083
0.951555 -0.603242 -0.050000 0.000000 0.000000 -1.000000 0.032365 1.053989
-0.947030 -0.650000 -0.050000 0.000000 0.000000 -1.000000 0.014511 0.582737
-0.947030 -0.603242 -0.050000 0.000000 0.000000 -1.000000 0.032366 0.582737
-0.947030 0.600120 -0.050000 -0.000000 -0.000000 -1.000000 0.491887 0.582738
0.951555 0.600120 -0.050000 -0.000000 -0.000000 -1.000000 0.491887 1.053990
-0.947030 0.600120 0.050000 0.000000 0.000000 1.000000 0.026844 0.053305
0.951556 0.600119 0.050000 0.000000 0.000000 1.000000 0.498089 0.053308
1.000000 -0.603242 -0.050000 -0.000000 -0.000000 -1.000000 0.032365 1.066014
1.000000 0.600120 -0.050000 -0.000000 -0.000000 -1.000000 0.491887 1.066014
1.000000 0.600119 0.050000 0.000000 0.000000 1.000000 0.510114 0.053308
-1.000000 -0.650000 0.050000 -1.000000 0.000000 -0.000002 0.013689 -0.424068
-1.000000 -0.603242 -0.050000 -1.000000 0.000000 -0.000002 -0.482727 -0.406202
-1.000000 -0.650000 -0.050000 -1.000000 0.000000 -0.000002 -0.482728 -0.424056
1.000000 0.600119 0.050000 1.000000 0.000000 -0.000005 0.510114 0.053308
1.000000 -0.603242 -0.050000 1.000000 0.000000 -0.000005 1.006546 -0.406235
1.000000 0.600120 -0.050000 1.000000 0.000000 -0.000005 1.006557 0.053299
-1.000000 0.600120 0.050000 0.000000 0.000000 1.000000 0.013697 0.053305
-1.000000 0.600120 -0.050000 -0.000000 -0.000000 -1.000000 0.491887 0.569590
1.000000 -0.650000 -0.050000 1.000000 0.000000 0.000000 1.366713 1.238033
1.000000 -0.603242 -0.700000 1.000000 0.000000 0.000000 1.395718 -0.423745
1.000000 -0.603242 -0.050000 1.000000 0.000000 0.000000 1.395718 1.238379
-1.000000 0.650000 0.050000 0.000000 0.000000 1.000000 0.013697 0.072352
-0.947030 0.650000 0.050000 0.000000 0.000000 1.000000 0.026844 0.072352
1.000000 0.650000 0.050000 1.000000 0.000000 -0.000005 0.510114 0.072356
1.000000 0.650000 -0.050000 1.000000 0.000000 -0.000005 1.006557 0.072348
0.951556 0.650000 0.050000 0.000000 0.000000 1.000000 0.498088 0.072356
1.000000 0.650000 0.050000 0.000000 0.000000 1.000000 0.510114 0.072356
-1.000000 -0.603242 -0.050000 -1.000000 0.000000 0.000000 1.336357 1.270122
-1.000000 -0.650000 -0.700000 -1.000000 0.000000 0.000000 1.365901 -0.422598
-1.000000 -0.650000 -0.050000 -1.000000 0.000000 0.000000 1.365901 1.270475
0.951555 0.650000 -0.050000 0.000000 0.000000 -1.000000 0.510934 1.053990
-0.947030 0.650000 -0.050000 0.000000 0.000000 -1.000000 0.510934 0.582738
-1.000000 -0.603242 -0.050000 -1.000000 0.000000 -0.000003 -0.482727 -0.406202
-0.947030 -0.650000 -0.700000 -0.000000 -0.000000 -1.000000 0.511747 0.596697
-1.000000 -0.603242 -0.700000 -0.000000 -0.000000 -1.000000 0.529602 0.583549
-0.947030 -0.603242 -0.700000 -0.000000 -0.000000 -1.000000 0.529602 0.596697
1.000000 -0.650000 -0.700000 -0.000000 -0.000000 -1.000000 0.531606 0.581614
0.951555 -0.603242 -0.700000 -0.000000 -0.000000 -1.000000 0.549461 0.569589
1.000000 -0.603242 -0.700000 -0.000000 -0.000000 -1.000000 0.549461 0.581614
-0.947030 0.600120 -0.700000 -0.000000 -0.000000 -1.000000 0.511747 0.582737
-1.000000 0.650000 -0.700000 -0.000000 -0.000000 -1.000000 0.530794 0.569589
-0.947030 0.650000 -0.700000 -0.000000 -0.000000 -1.000000 0.530794 0.582737
1.000000 0.600120 -0.700000 -0.000000 -0.000000 -1.000000 0.530414 0.595574
0.951555 0.650000 -0.700000 -0.000000 -0.000000 -1.000000 0.549461 0.583549
1.000000 0.650000 -0.700000 -0.000000 -0.000000 -1.000000 0.549461 0.595574
1.000000 -0.603242 -0.050000 -0.000000 1.000000 0.000000 1.395718 1.238379
0.951555 -0.603242 -0.700000 -0.000000 1.000000 0.000000 1.424720 -0.423347
0.951555 -0.603242 -0.050000 -0.000000 1.000000 0.000000 1.424720 1.238777
-1.000000 -0.650000 -0.050000 -0.000000 -1.000000 -0.000000 1.247726 1.268980
-0.947030 -0.650000 -0.700000 -0.000000 -1.000000 -0.000000 1.277269 -0.423696
-0.947030 -0.650000 -0.050000 -0.000000 -1.000000 -0.000000 1.277269 1.269375
0.951555 -0.603242 -0.050000 -1.000000 0.000000 0.000000 1.424720 1.238777
0.951555 -0.650000 -0.700000 -1.000000 0.000000 0.000000 1.453725 -0.423001
0.951555 -0.650000 -0.050000 -1.000000 0.000000 0.000000 1.453725 1.239123
1.000000 0.600120 -0.050000 1.000000 0.000000 0.000000 1.217336 1.272016
1.000000 0.650000 -0.700000 1.000000 0.000000 0.000000 1.246914 -0.422596
1.000000 0.650000 -0.050000 1.000000 0.000000 0.000000 1.246914 1.272358
0.951555 0.600120 -0.050000 -0.000000 -1.000000 -0.000000 1.187761 1.271610
1.000000 0.600120 -0.700000 -0.000000 -1.000000 -0.000000 1.217336 -0.422937
1.000000 0.600120 -0.050000 -0.000000 -1.000000 -0.000000 1.217336 1.272016
0.951555 0.650000 -0.050000 -1.000000 0.000000 0.000000 1.158183 1.271268
0.951555 0.600120 -0.700000 -1.000000 0.000000 0.000000 1.187761 -0.423343
0.951555 0.600120 -0.050000 -1.000000 0.000000 0.000000 1.187761 1.271610
1.000000 0.650000 -0.050000 -0.000000 1.000000 0.000000 1.128607 1.270862
0.951555 0.650000 -0.700000 -0.000000 1.000000 0.000000 1.158183 -0.423684
0.951555 0.650000 -0.050000 -0.000000 1.000000 0.000000 1.158183 1.271268
-0.947030 0.600120 -0.050000 1.000000 0.000000 0.000000 1.067582 1.301971
-0.947030 0.650000 -0.700000 1.000000 0.000000 0.000000 1.097690 -0.422994
-0.947030 0.650000 -0.050000 1.000000 0.000000 0.000000 1.097690 1.302318
-1.000000 0.650000 -0.050000 -1.000000 0.000000 0.000000 1.007369 1.301220
-1.000000 0.600120 -0.700000 -1.000000 0.000000 0.000000 1.037477 -0.423743
-1.000000 0.600120 -0.050000 -1.000000 0.000000 0.000000 1.037477 1.301568
-0.947030 -0.650000 -0.050000 1.000000 0.000000 0.000000 1.277269 1.269375
-0.947030 -0.603242 -0.700000 1.000000 0.000000 0.000000 1.306813 -0.423344
-0.947030 -0.603242 -0.050000 1.000000 0.000000 0.000000 1.306813 1.269727
0.951555 -0.650000 -0.050000 -0.000000 -1.000000 -0.000000 1.453725 1.239123
1.000000 -0.650000 -0.700000 -0.000000 -1.000000 -0.000000 1.482728 -0.422603
1.000000 -0.650000 -0.050000 -0.000000 -1.000000 -0.000000 1.482728 1.239520
-0.947030 -0.603242 -0.050000 -0.000000 1.000000 0.000000 1.306813 1.269727
-1.000000 -0.603242 -0.700000 -0.000000 1.000000 0.000000 1.336357 -0.422949
-1.000000 -0.603242 -0.050000 -0.000000 1.000000 0.000000 1.336357 1.270122
-0.947030 0.650000 -0.700000 0.000000 1.000000 0.000000 1.097690 -0.422994
-1.000000 -0.650000 0.050000 0.000000 -0.000000 1.000000 0.013689 -0.424068
0.999999 -0.603242 0.050000 1.000000 -0.000001 0.000007 0.510109 -0.406227
0.999999 -0.650000 0.050000 1.000000 -0.000001 0.000007 0.510108 -0.424083
1.000000 -0.650000 -0.050000 1.000000 -0.000001 0.000007 1.006545 -0.424090
-1.000000 -0.650000 0.050000 0.000000 -1.000000 0.000001 -0.482728 1.066014
-1.000000 0.650000 0.050000 -1.000000 -0.000000 -0.000003 0.013697 0.072352
-1.000000 0.650000 -0.050000 -0.000000 1.000000 0.000002 0.013700 0.568777
-1.000000 0.600120 -0.700000 0.000000 -1.000000 0.000000 1.037477 -0.423743
0.951555 0.650000 -0.050000 0.000000 1.000000 0.000002 0.498092 0.568766
0.951555 -0.650000 0.050000 -0.000000 -1.000000 0.000001 0.001672 1.066013
0.951555 -0.650000 -0.050000 0.000000 0.000000 -1.000000 0.014510 1.053989
-1.000000 -0.603241 0.050000 -1.000000 -0.000000 -0.000002 0.013690 -0.406213
1.000000 0.600119 0.050000 1.000000 -0.000001 0.000006 0.510114 0.053308
0.999999 -0.603242 0.050000 1.000000 -0.000001 0.000006 0.510109 -0.406227
1.000000 -0.603242 -0.050000 1.000000 -0.000001 0.000006 1.006546 -0.406235
-1.000000 -0.603242 -0.050000 0.000000 -0.000000 -1.000000 0.032366 0.569589
1.000000 -0.650000 -0.700000 1.000000 0.000000 -0.000000 1.366713 -0.424090
-1.000000 -0.603242 -0.700000 -1.000000 0.000000 0.000000 1.336357 -0.422949
-1.000000 0.600120 0.050000 -1.000000 0.000000 -0.000002 0.013697 0.053305
-1.000000 -0.650000 -0.700000 0.000000 0.000000 -1.000000 0.511747 0.583549
0.951555 -0.650000 -0.700000 0.000000 0.000000 -1.000000 0.531606 0.569589
-1.000000 0.600120 -0.700000 0.000000 0.000000 -1.000000 0.511747 0.569589
0.951555 0.600120 -0.700000 0.000000 0.000000 -1.000000 0.530414 0.583549
1.000000 -0.603242 -0.700000 0.000000 1.000000 0.000000 1.395718 -0.423745
-1.000000 -0.650000 -0.700000 0.000000 -1.000000 0.000000 1.247726 -0.424090
0.951555 -0.603242 -0.700000 -1.000000 0.000000 0.000000 1.424720 -0.423347
1.000000 0.600120 -0.700000 1.000000 0.000000 -0.000000 1.217336 -0.422937
0.951555 0.600120 -0.700000 0.000000 -1.000000 0.000000 1.187761 -0.423343
0.951555 0.650000 -0.700000 -1.000000 0.000000 0.000000 1.158183 -0.423684
1.000000 0.650000 -0.700000 0.000000 1.000000 0.000000 1.128607 -0.424090
-0.947030 0.600120 -0.700000 1.000000 0.000000 -0.000000 1.067582 -0.423341
-1.000000 0.650000 -0.700000 -1.000000 0.000000 0.000000 1.007369 -0.424090
-0.947030 -0.650000 -0.700000 1.000000 0.000000 -0.000000 1.277269 -0.423696
0.951555 -0.650000 -0.700000 0.000000 -1.000000 0.000000 1.453725 -0.423001
-0.947030 -0.603242 -0.700000 0.000000 1.000000 0.000000 1.306813 -0.423344
3 0 1 2
3 3 4 5
3 6 7 8
3 9 10 11
3 12 13 14
3 15 16 17
3 18 19 20
3 21 22 23
3 24 25 26
3 27 28 29
3 30 31 19
3 32 33 22
3 5 34 24
3 35 36 37
3 35 38 39
3 40 24 41
3 42 39 43
3 41 26 44
3 45 46 47
3 48 49 50
3 51 5 40
3 37 52 38
3 53 54 55
3 56 40 57
3 58 50 59
3 60 44 61
3 62 63 64
3 57 41 60
3 65 38 66
3 67 12 14
3 68 69 70
3 71 72 73
3 74 75 76
3 77 78 79
3 80 81 82
3 83 84 85
3 86 87 88
3 89 90 91
3 92 93 94
3 95 96 97
3 98 99 100
3 101 102 103
3 104 105 106
3 107 108 109
3 110 111 112
3 113 114 115
3 0 116 1
3 3 117 4
3 118 119 120
3 9 121 10
3 12 122 13
3 15 123 16
3 18 30 19
3 21 32 22
3 24 34 25
3 27 124 28
3 125 15 17
3 126 9 11
3 5 4 34
3 35 127 36
3 35 37 38
3 40 5 24
3 42 35 39
3 41 24 26
3 45 128 46
3 129 130 131
3 51 3 5
3 37 132 52
3 53 133 54
3 56 51 40
3 58 48 50
3 60 41 44
3 62 134 63
3 57 40 41
3 65 39 38
3 46 128 135
3 68 136 69
3 71 137 72
3 74 138 75
3 77 139 78
3 80 140 81
3 83 141 84
3 86 142 87
3 89 143 90
3 92 144 93
3 95 145 96
3 98 146 99
3 101 147 102
3 104 148 105
3 107 149 108
3 110 150 111
3 113 151 114
