ply
format ascii 1.0
comment Created by Blender 2.78 (sub 0) - www.blender.org, source file: 'Wall.blend'
element vertex 72
property float x
property float y
property float z
property float nx
property float ny
property float nz
property float s
property float t
element face 36
property list uchar uint vertex_indices
end_header
0.500000 0.500000 0.000000 0.000000 -0.000000 -1.000000 0.000000 0.000000
-0.500000 -0.500000 0.000000 0.000000 -0.000000 -1.000000 -1.000000 -1.000000
-0.500000 0.500000 0.000000 0.000000 -0.000000 -1.000000 -1.000000 0.000000
0.500000 -0.500000 0.617780 -0.000000 -1.000000 -0.000000 -0.000000 0.867780
-0.500000 -0.500000 0.000000 -0.000000 -1.000000 -0.000000 -1.000000 0.250000
0.500000 -0.500000 0.000000 -0.000000 -1.000000 -0.000000 0.000000 0.250000
-0.500000 -0.500000 0.617780 -1.000000 0.000000 -0.000000 0.000000 0.867780
-0.500000 0.500000 0.000000 -1.000000 0.000000 -0.000000 1.000000 0.250000
-0.500000 -0.500000 0.000000 -1.000000 0.000000 -0.000000 0.000000 0.250000
0.500000 0.500000 0.617780 1.000000 0.000000 -0.000000 -0.000000 0.867780
0.500000 -0.500000 0.000000 1.000000 0.000000 -0.000000 -1.000000 0.250000
0.500000 0.500000 0.000000 1.000000 0.000000 -0.000000 0.000000 0.250000
0.359006 0.359005 0.758775 0.707107 -0.000000 0.707107 0.859005 0.008775
0.500000 -0.500000 0.617780 0.707107 -0.000000 0.707107 -0.000000 -0.132220
0.500000 0.500000 0.617780 0.707107 -0.000000 0.707107 1.000000 -0.132220
0.500000 0.500000 0.617780 0.000000 0.707107 0.707107 0.000000 1.000000
-0.359005 0.359005 0.758775 0.000000 0.707107 0.707107 -0.859005 0.859005
0.359006 0.359005 0.758775 0.000000 0.707107 0.707107 -0.140994 0.859005
0.359005 -0.359006 0.758775 -0.000000 -0.707107 0.707107 0.859005 0.140994
-0.500000 -0.500000 0.617780 -0.000000 -0.707107 0.707107 -0.000000 0.000000
0.500000 -0.500000 0.617780 -0.000000 -0.707107 0.707107 1.000000 -0.000000
-0.359005 0.359005 0.758775 -0.707107 0.000000 0.707107 0.859005 0.008775
-0.500000 -0.500000 0.617780 -0.707107 0.000000 0.707107 0.000000 -0.132220
-0.359006 -0.359005 0.758775 -0.707107 0.000000 0.707107 0.140995 0.008775
0.500000 0.500000 0.000000 0.000000 1.000000 0.000000 0.000000 0.250000
-0.500000 0.500000 0.617780 0.000000 1.000000 0.000000 -1.000000 0.867780
0.500000 0.500000 0.617780 0.000000 1.000000 0.000000 0.000000 0.867780
0.359005 -0.359006 0.758775 -0.000000 -0.705760 -0.708451 0.859005 0.140994
-0.507909 -0.507909 0.907113 -0.000000 -0.705760 -0.708451 -0.007909 -0.007909
-0.359006 -0.359005 0.758775 -0.000000 -0.705760 -0.708451 0.140994 0.140995
0.507909 -0.507909 0.907113 -0.000000 -1.000000 0.000000 2.007909 0.157113
-0.507909 -0.507909 1.074143 -0.000000 -1.000000 0.000000 0.992091 0.324143
-0.507909 -0.507909 0.907113 -0.000000 -1.000000 0.000000 0.992091 0.157113
0.359006 0.359005 0.758775 0.705760 -0.000000 -0.708451 0.859006 0.859005
0.507909 -0.507909 0.907113 0.705760 -0.000000 -0.708451 1.007909 -0.007909
0.359005 -0.359006 0.758775 0.705760 -0.000000 -0.708451 0.859005 0.140994
-0.359006 -0.359005 0.758775 -0.705760 0.000000 -0.708451 0.140994 0.140995
-0.507909 0.507909 0.907113 -0.705760 0.000000 -0.708451 -0.007909 1.007909
-0.359005 0.359005 0.758775 -0.705760 0.000000 -0.708451 0.140995 0.859005
-0.359005 0.359005 0.758775 0.000000 0.705760 -0.708451 0.140995 0.859005
0.507909 0.507909 0.907113 0.000000 0.705760 -0.708451 1.007909 1.007909
0.359006 0.359005 0.758775 0.000000 0.705760 -0.708451 0.859006 0.859005
-0.507909 0.507909 1.074143 0.000000 0.000000 1.000000 -1.007909 0.007909
0.507909 -0.507909 1.074143 0.000000 0.000000 1.000000 0.007909 -1.007909
0.507909 0.507909 1.074143 0.000000 0.000000 1.000000 0.007909 0.007909
0.507909 0.507909 0.907113 1.000000 -0.000001 0.000000 2.007909 0.157113
0.507909 -0.507909 1.074143 1.000000 -0.000001 0.000000 0.992091 0.324143
0.507909 -0.507909 0.907113 1.000000 -0.000001 0.000000 0.992091 0.157113
-0.507909 -0.507909 0.907113 -1.000000 0.000000 0.000000 -1.007909 0.157113
-0.507909 0.507909 1.074143 -1.000000 0.000000 0.000000 0.007909 0.324143
-0.507909 0.507909 0.907113 -1.000000 0.000000 0.000000 0.007909 0.157113
-0.507909 0.507909 0.907113 0.000000 1.000000 -0.000000 -1.007909 0.157113
0.507909 0.507909 1.074143 0.000000 1.000000 -0.000000 0.007909 0.324143
0.507909 0.507909 0.907113 0.000000 1.000000 -0.000000 0.007909 0.157113
0.500000 -0.500000 0.000000 0.000000 0.000000 -1.000000 0.000000 -1.000000
-0.500000 -0.500000 0.617780 -0.000000 -1.000000 0.000000 -1.000000 0.867780
-0.500000 0.500000 0.617780 -1.000000 0.000000 -0.000000 1.000000 0.867780
0.500000 -0.500000 0.617780 1.000000 -0.000000 0.000000 -1.000000 0.867780
0.359005 -0.359006 0.758775 0.707107 -0.000000 0.707107 0.140994 0.008775
-0.500000 0.500000 0.617780 0.000000 0.707107 0.707107 -1.000000 1.000000
-0.359006 -0.359005 0.758775 -0.000000 -0.707107 0.707107 0.140994 0.140995
-0.500000 0.500000 0.617780 -0.707107 0.000000 0.707107 1.000000 -0.132220
-0.500000 0.500000 0.000000 0.000000 1.000000 0.000000 -1.000000 0.250000
0.507909 -0.507909 0.907113 -0.000000 -0.705760 -0.708451 1.007909 -0.007909
0.507909 -0.507909 1.074143 -0.000000 -1.000000 -0.000000 2.007909 0.324143
0.507909 0.507909 0.907113 0.705760 -0.000000 -0.708451 1.007909 1.007909
-0.507909 -0.507909 0.907113 -0.705760 0.000000 -0.708451 -0.007909 -0.007909
-0.507909 0.507909 0.907113 0.000000 0.705760 -0.708451 -0.007909 1.007909
-0.507909 -0.507909 1.074143 0.000000 -0.000000 1.000000 -1.007909 -1.007909
0.507909 0.507909 1.074143 1.000000 -0.000001 0.000000 2.007909 0.324143
-0.507909 -0.507909 1.074143 -1.000000 0.000000 0.000000 -1.007909 0.324143
-0.507909 0.507909 1.074143 0.000000 1.000000 0.000000 -1.007909 0.324143
3 0 1 2
3 3 4 5
3 6 7 8
3 9 10 11
3 12 13 14
3 15 16 17
3 18 19 20
3 21 22 23
3 24 25 26
3 27 28 29
3 30 31 32
3 33 34 35
3 36 37 38
3 39 40 41
3 42 43 44
3 45 46 47
3 48 49 50
3 51 52 53
3 0 54 1
3 3 55 4
3 6 56 7
3 9 57 10
3 12 58 13
3 15 59 16
3 18 60 19
3 21 61 22
3 24 62 25
3 27 63 28
3 30 64 31
3 33 65 34
3 36 66 37
3 39 67 40
3 42 68 43
3 45 69 46
3 48 70 49
3 51 71 52
