ply
format ascii 1.0
comment Created by Blender 2.78 (sub 0) - www.blender.org, source file: 'Wall.blend'
element vertex 100
property float x
property float y
property float z
property float nx
property float ny
property float nz
property float s
property float t
element face 52
property list uchar uint vertex_indices
end_header
0.500000 0.500000 0.000000 0.000000 -0.000000 -1.000000 0.000000 0.000000
-0.500000 -0.500000 0.000000 0.000000 -0.000000 -1.000000 -1.000000 -1.000000
-0.500000 0.500000 0.000000 0.000000 -0.000000 -1.000000 -1.000000 0.000000
0.500000 -0.500000 0.617780 -0.000000 -1.000000 -0.000000 -0.000000 0.867780
-0.500000 -0.500000 0.000000 -0.000000 -1.000000 -0.000000 -1.000000 0.250000
0.500000 -0.500000 0.000000 -0.000000 -1.000000 -0.000000 0.000000 0.250000
-0.500000 -0.500000 0.617780 -1.000000 0.000000 -0.000000 0.000000 0.867780
-0.500000 0.500000 0.000000 -1.000000 0.000000 -0.000000 1.000000 0.250000
-0.500000 -0.500000 0.000000 -1.000000 0.000000 -0.000000 0.000000 0.250000
0.500000 0.500000 0.617780 1.000000 0.000000 -0.000000 -0.000000 0.867780
0.500000 -0.500000 0.000000 1.000000 0.000000 -0.000000 -1.000000 0.250000
0.500000 0.500000 0.000000 1.000000 0.000000 -0.000000 0.000000 0.250000
0.359006 0.359005 0.758775 0.707107 -0.000000 0.707107 0.859005 0.008775
0.500000 -0.500000 0.617780 0.707107 -0.000000 0.707107 -0.000000 -0.132220
0.500000 0.500000 0.617780 0.707107 -0.000000 0.707107 1.000000 -0.132220
0.500000 0.500000 0.617780 0.000000 0.707107 0.707107 0.000000 1.000000
-0.359005 0.359005 0.758775 0.000000 0.707107 0.707107 -0.859005 0.859005
0.359006 0.359005 0.758775 0.000000 0.707107 0.707107 -0.140994 0.859005
0.359005 -0.359006 0.758775 -0.000000 -0.707107 0.707107 0.859005 0.140994
-0.500000 -0.500000 0.617780 -0.000000 -0.707107 0.707107 -0.000000 0.000000
0.500000 -0.500000 0.617780 -0.000000 -0.707107 0.707107 1.000000 -0.000000
-0.359005 0.359005 0.758775 -0.707107 0.000000 0.707107 0.859005 0.008775
-0.500000 -0.500000 0.617780 -0.707107 0.000000 0.707107 0.000000 -0.132220
-0.359006 -0.359005 0.758775 -0.707107 0.000000 0.707107 0.140995 0.008775
0.500000 0.500000 0.000000 0.000000 1.000000 0.000000 0.000000 0.250000
-0.500000 0.500000 0.617780 0.000000 1.000000 0.000000 -1.000000 0.867780
0.500000 0.500000 0.617780 0.000000 1.000000 0.000000 0.000000 0.867780
-0.128618 0.128618 1.124378 -0.000000 -1.000000 -0.000000 0.371382 0.374378
0.128618 0.128617 1.004837 -0.000000 -1.000000 -0.000000 0.628618 0.254837
0.128618 0.128617 1.124378 -0.000000 -1.000000 -0.000000 0.628618 0.374378
-0.359006 -0.359005 0.758775 -1.000000 0.000000 0.000000 0.140995 0.008775
-0.359005 0.359005 1.023740 -1.000000 0.000000 0.000000 0.859005 0.273740
-0.359005 0.359005 0.758775 -1.000000 0.000000 0.000000 0.859005 0.008775
-0.359005 0.359005 0.758775 0.000000 1.000000 -0.000000 0.140995 0.008775
0.359006 0.359005 1.023740 0.000000 1.000000 -0.000000 0.859006 0.273740
0.359006 0.359005 0.758775 0.000000 1.000000 -0.000000 0.859006 0.008775
0.359006 0.359005 0.758775 1.000000 -0.000001 0.000000 0.859005 0.008775
0.359005 -0.359006 1.023740 1.000000 -0.000001 0.000000 0.140994 0.273740
0.359005 -0.359006 0.758775 1.000000 -0.000001 0.000000 0.140994 0.008775
-0.258367 0.258367 1.124378 -0.707107 0.000000 0.707107 0.758367 0.374378
-0.359006 -0.359005 1.023740 -0.707107 0.000000 0.707107 0.140995 0.273740
-0.258367 -0.258367 1.124378 -0.707107 0.000000 0.707107 0.241633 0.374378
-0.258367 -0.258367 1.124378 -0.000000 -0.707107 0.707107 0.241633 0.374378
0.359005 -0.359006 1.023740 -0.000000 -0.707107 0.707107 0.859005 0.273740
0.258366 -0.258367 1.124378 -0.000000 -0.707107 0.707107 0.758366 0.374378
0.258367 0.258366 1.124378 0.000000 0.707107 0.707107 0.758367 0.374378
-0.359005 0.359005 1.023740 0.000000 0.707107 0.707107 0.140995 0.273740
-0.258367 0.258367 1.124378 0.000000 0.707107 0.707107 0.241633 0.374378
0.258366 -0.258367 1.124378 0.707107 -0.000000 0.707106 0.241633 0.374378
0.359006 0.359005 1.023740 0.707107 -0.000000 0.707106 0.859005 0.273740
0.258367 0.258366 1.124378 0.707107 -0.000000 0.707106 0.758366 0.374378
0.359005 -0.359006 0.758775 -0.000000 -1.000000 0.000000 0.859005 0.008775
-0.359006 -0.359005 1.023740 -0.000000 -1.000000 0.000000 0.140994 0.273740
-0.359006 -0.359005 0.758775 -0.000000 -1.000000 0.000000 0.140994 0.008775
-0.128618 0.128618 1.124378 0.000000 -0.000000 1.000000 0.371382 0.628618
-0.258367 -0.258367 1.124378 0.000000 -0.000000 1.000000 0.241633 0.241633
-0.128618 -0.128618 1.124378 0.000000 -0.000000 1.000000 0.371382 0.371382
0.128618 -0.128618 1.124378 0.000000 -0.000000 1.000000 0.628618 0.371382
0.258366 -0.258367 1.124378 0.000000 -0.000000 1.000000 0.758366 0.241633
0.128618 0.128617 1.124378 -0.000000 -0.000000 1.000000 0.628618 0.628617
-0.258367 0.258367 1.124378 -0.000000 -0.000000 1.000000 0.241633 0.758367
0.258367 0.258366 1.124378 0.000000 0.000000 1.000000 0.758367 0.758366
0.128618 -0.128618 1.004837 -0.000000 0.000000 1.000000 0.628618 0.371382
-0.128618 0.128618 1.004837 -0.000000 0.000000 1.000000 0.371382 0.628618
-0.128618 -0.128618 1.004837 -0.000000 0.000000 1.000000 0.371382 0.371382
-0.128618 -0.128618 1.124378 1.000000 -0.000000 0.000000 0.371382 0.374378
-0.128618 0.128618 1.004837 1.000000 -0.000000 0.000000 0.628618 0.254837
-0.128618 0.128618 1.124378 1.000000 -0.000000 0.000000 0.628618 0.374378
0.128618 0.128617 1.124378 -1.000000 0.000001 0.000000 0.628617 0.374378
0.128618 -0.128618 1.004837 -1.000000 0.000001 0.000000 0.371382 0.254837
0.128618 -0.128618 1.124378 -1.000000 0.000001 0.000000 0.371382 0.374378
0.128618 -0.128618 1.124378 0.000000 1.000000 0.000000 0.628618 0.374378
-0.128618 -0.128618 1.004837 0.000000 1.000000 0.000000 0.371382 0.254837
-0.128618 -0.128618 1.124378 0.000000 1.000000 0.000000 0.371382 0.374378
0.500000 -0.500000 0.000000 0.000000 0.000000 -1.000000 0.000000 -1.000000
-0.500000 -0.500000 0.617780 -0.000000 -1.000000 0.000000 -1.000000 0.867780
-0.500000 0.500000 0.617780 -1.000000 0.000000 -0.000000 1.000000 0.867780
0.500000 -0.500000 0.617780 1.000000 -0.000000 0.000000 -1.000000 0.867780
0.359005 -0.359006 0.758775 0.707107 -0.000000 0.707107 0.140994 0.008775
-0.500000 0.500000 0.617780 0.000000 0.707107 0.707107 -1.000000 1.000000
-0.359006 -0.359005 0.758775 -0.000000 -0.707107 0.707107 0.140994 0.140995
-0.500000 0.500000 0.617780 -0.707107 0.000000 0.707107 1.000000 -0.132220
-0.500000 0.500000 0.000000 0.000000 1.000000 0.000000 -1.000000 0.250000
-0.128618 0.128618 1.004837 -0.000000 -1.000000 0.000000 0.371382 0.254837
-0.359006 -0.359005 1.023740 -1.000000 0.000000 0.000000 0.140995 0.273740
-0.359005 0.359005 1.023740 0.000000 1.000000 0.000000 0.140995 0.273740
0.359006 0.359005 1.023740 1.000000 -0.000001 0.000000 0.859005 0.273740
-0.359005 0.359005 1.023740 -0.707107 0.000000 0.707107 0.859005 0.273740
-0.258367 -0.258367 1.124378 -0.000000 -0.707107 0.707106 0.241633 0.374378
-0.359006 -0.359005 1.023740 -0.000000 -0.707107 0.707106 0.140994 0.273740
0.359005 -0.359006 1.023740 -0.000000 -0.707107 0.707106 0.859005 0.273740
0.359006 0.359005 1.023740 0.000000 0.707107 0.707107 0.859006 0.273740
0.258366 -0.258367 1.124378 0.707107 -0.000000 0.707107 0.241633 0.374378
0.359005 -0.359006 1.023740 0.707107 -0.000000 0.707107 0.140994 0.273740
0.359006 0.359005 1.023740 0.707107 -0.000000 0.707107 0.859005 0.273740
0.359005 -0.359006 1.023740 -0.000000 -1.000000 -0.000000 0.859005 0.273740
0.128618 0.128617 1.004837 0.000000 0.000000 1.000000 0.628618 0.628617
-0.128618 -0.128618 1.004837 1.000000 -0.000000 0.000000 0.371382 0.254837
0.128618 0.128617 1.004837 -1.000000 0.000001 0.000000 0.628617 0.254837
0.128618 -0.128618 1.004837 0.000000 1.000000 -0.000000 0.628618 0.254837
3 0 1 2
3 3 4 5
3 6 7 8
3 9 10 11
3 12 13 14
3 15 16 17
3 18 19 20
3 21 22 23
3 24 25 26
3 27 28 29
3 30 31 32
3 33 34 35
3 36 37 38
3 39 40 41
3 42 43 44
3 45 46 47
3 48 49 50
3 51 52 53
3 54 55 56
3 57 55 58
3 59 60 54
3 59 58 61
3 62 63 64
3 65 66 67
3 68 69 70
3 71 72 73
3 0 74 1
3 3 75 4
3 6 76 7
3 9 77 10
3 12 78 13
3 15 79 16
3 18 80 19
3 21 81 22
3 24 82 25
3 27 83 28
3 30 84 31
3 33 85 34
3 36 86 37
3 39 87 40
3 88 89 90
3 45 91 46
3 92 93 94
3 51 95 52
3 54 60 55
3 57 56 55
3 59 61 60
3 59 57 58
3 62 96 63
3 65 97 66
3 68 98 69
3 71 99 72
