ply
format ascii 1.0
comment Created by Blender 2.78 (sub 0) - www.blender.org, source file: 'Wall.blend'
element vertex 96
property float x
property float y
property float z
property float nx
property float ny
property float nz
property float s
property float t
element face 52
property list uchar uint vertex_indices
end_header
0.500000 0.500000 0.000000 0.000000 -0.000000 -1.000000 0.000000 0.000000
-0.500000 -0.500000 0.000000 0.000000 -0.000000 -1.000000 -1.000000 -1.000000
-0.500000 0.500000 0.000000 0.000000 -0.000000 -1.000000 -1.000000 0.000000
0.500000 -0.500000 0.617780 -0.000000 -1.000000 -0.000000 -0.000000 0.867780
-0.500000 -0.500000 0.000000 -0.000000 -1.000000 -0.000000 -1.000000 0.250000
0.500000 -0.500000 0.000000 -0.000000 -1.000000 -0.000000 0.000000 0.250000
0.153802 -0.153802 0.758775 -0.000000 -1.000000 0.000000 0.653802 0.008775
-0.153802 -0.153802 0.965729 -0.000000 -1.000000 0.000000 0.346198 0.215729
-0.153802 -0.153802 0.758775 -0.000000 -1.000000 0.000000 0.346198 0.008775
-0.500000 -0.500000 0.617780 -1.000000 0.000000 -0.000000 0.000000 0.867780
-0.500000 0.500000 0.000000 -1.000000 0.000000 -0.000000 1.000000 0.250000
-0.500000 -0.500000 0.000000 -1.000000 0.000000 -0.000000 0.000000 0.250000
0.500000 0.500000 0.617780 1.000000 0.000000 -0.000000 -0.000000 0.867780
0.500000 -0.500000 0.000000 1.000000 0.000000 -0.000000 -1.000000 0.250000
0.500000 0.500000 0.000000 1.000000 0.000000 -0.000000 0.000000 0.250000
0.359006 0.359005 0.758775 0.707107 -0.000000 0.707107 0.859005 0.008775
0.500000 -0.500000 0.617780 0.707107 -0.000000 0.707107 -0.000000 -0.132220
0.500000 0.500000 0.617780 0.707107 -0.000000 0.707107 1.000000 -0.132220
0.500000 0.500000 0.617780 0.000000 0.707107 0.707107 0.000000 1.000000
-0.359005 0.359005 0.758775 0.000000 0.707107 0.707107 -0.859005 0.859005
0.359006 0.359005 0.758775 0.000000 0.707107 0.707107 -0.140994 0.859005
0.359005 -0.359006 0.758775 -0.000000 -0.707107 0.707107 0.859005 0.140994
-0.500000 -0.500000 0.617780 -0.000000 -0.707107 0.707107 -0.000000 0.000000
0.500000 -0.500000 0.617780 -0.000000 -0.707107 0.707107 1.000000 -0.000000
-0.359005 0.359005 0.758775 -0.707107 0.000000 0.707107 0.859005 0.008775
-0.500000 -0.500000 0.617780 -0.707107 0.000000 0.707107 0.000000 -0.132220
-0.359006 -0.359005 0.758775 -0.707107 0.000000 0.707107 0.140995 0.008775
0.500000 0.500000 0.000000 0.000000 1.000000 0.000000 0.000000 0.250000
-0.500000 0.500000 0.617780 0.000000 1.000000 0.000000 -1.000000 0.867780
0.500000 0.500000 0.617780 0.000000 1.000000 0.000000 0.000000 0.867780
0.153802 0.153802 0.758775 0.000000 0.000000 1.000000 0.653802 0.653802
0.359005 -0.359006 0.758775 0.000000 0.000000 1.000000 0.859005 0.140994
0.359006 0.359005 0.758775 0.000000 0.000000 1.000000 0.859006 0.859005
-0.359005 0.359005 0.758775 -0.000000 -0.000000 1.000000 0.140995 0.859005
-0.153802 0.153802 0.758775 -0.000000 -0.000000 1.000000 0.346198 0.653802
0.153802 -0.153802 0.758775 0.000000 -0.000000 1.000000 0.653802 0.346198
-0.359006 -0.359005 0.758775 0.000000 -0.000000 1.000000 0.140994 0.140995
-0.153802 -0.153802 0.758775 0.000000 -0.000000 1.000000 0.346198 0.346198
-0.153802 0.153802 0.965729 -0.762446 0.000000 -0.647052 0.653802 0.215729
-0.254614 -0.254614 1.084519 -0.762446 0.000000 -0.647052 0.245386 0.334519
-0.254614 0.254614 1.084519 -0.762446 0.000000 -0.647052 0.754614 0.334519
0.153802 0.153802 0.758775 1.000000 -0.000001 0.000000 0.653802 0.008775
0.153802 -0.153802 0.965729 1.000000 -0.000001 0.000000 0.346198 0.215729
0.153802 -0.153802 0.758775 1.000000 -0.000001 0.000000 0.346198 0.008775
-0.153802 -0.153802 0.758775 -1.000000 0.000000 0.000000 0.346198 0.008775
-0.153802 0.153802 0.965729 -1.000000 0.000000 0.000000 0.653802 0.215729
-0.153802 0.153802 0.758775 -1.000000 0.000000 0.000000 0.653802 0.008775
-0.153802 0.153802 0.758775 0.000000 1.000000 -0.000000 0.346198 0.008775
0.153802 0.153802 0.965729 0.000000 1.000000 -0.000000 0.653802 0.215729
0.153802 0.153802 0.758775 0.000000 1.000000 -0.000000 0.653802 0.008775
0.254613 -0.254614 1.084519 -0.000000 -1.000000 0.000000 0.754613 0.334519
-0.254614 -0.254614 1.298557 -0.000000 -1.000000 0.000000 0.245386 0.548557
-0.254614 -0.254614 1.084519 -0.000000 -1.000000 0.000000 0.245386 0.334519
0.153802 0.153802 0.965729 0.000000 0.762446 -0.647052 0.653802 0.215729
-0.254614 0.254614 1.084519 0.000000 0.762446 -0.647052 0.245386 0.334519
0.254614 0.254613 1.084519 0.000000 0.762446 -0.647052 0.754614 0.334519
0.153802 -0.153802 0.965729 -0.000000 -0.762446 -0.647052 0.653802 0.215729
-0.254614 -0.254614 1.084519 -0.000000 -0.762446 -0.647052 0.245386 0.334519
-0.153802 -0.153802 0.965729 -0.000000 -0.762446 -0.647052 0.346198 0.215729
0.153802 0.153802 0.965729 0.762446 -0.000000 -0.647052 0.653802 0.215729
0.254613 -0.254614 1.084519 0.762446 -0.000000 -0.647052 0.245386 0.334519
0.153802 -0.153802 0.965729 0.762446 -0.000000 -0.647052 0.346198 0.215729
-0.254614 0.254614 1.298557 0.000000 0.000000 1.000000 0.245386 0.754614
0.254613 -0.254614 1.298557 0.000000 0.000000 1.000000 0.754613 0.245386
0.254614 0.254613 1.298557 0.000000 0.000000 1.000000 0.754614 0.754613
0.254614 0.254613 1.084519 1.000000 -0.000001 0.000000 0.754613 0.334519
0.254613 -0.254614 1.298557 1.000000 -0.000001 0.000000 0.245386 0.548557
0.254613 -0.254614 1.084519 1.000000 -0.000001 0.000000 0.245386 0.334519
-0.254614 -0.254614 1.084519 -1.000000 0.000000 0.000000 0.245386 0.334519
-0.254614 0.254614 1.298557 -1.000000 0.000000 0.000000 0.754614 0.548557
-0.254614 0.254614 1.084519 -1.000000 0.000000 0.000000 0.754614 0.334519
-0.254614 0.254614 1.084519 0.000000 1.000000 -0.000000 0.245386 0.334519
0.254614 0.254613 1.298557 0.000000 1.000000 -0.000000 0.754614 0.548557
0.254614 0.254613 1.084519 0.000000 1.000000 -0.000000 0.754614 0.334519
0.500000 -0.500000 0.000000 0.000000 0.000000 -1.000000 0.000000 -1.000000
-0.500000 -0.500000 0.617780 -0.000000 -1.000000 0.000000 -1.000000 0.867780
0.153802 -0.153802 0.965729 -0.000000 -1.000000 -0.000000 0.653802 0.215729
-0.500000 0.500000 0.617780 -1.000000 0.000000 -0.000000 1.000000 0.867780
0.500000 -0.500000 0.617780 1.000000 -0.000000 0.000000 -1.000000 0.867780
0.359005 -0.359006 0.758775 0.707107 -0.000000 0.707107 0.140994 0.008775
-0.500000 0.500000 0.617780 0.000000 0.707107 0.707107 -1.000000 1.000000
-0.359006 -0.359005 0.758775 -0.000000 -0.707107 0.707107 0.140994 0.140995
-0.500000 0.500000 0.617780 -0.707107 0.000000 0.707107 1.000000 -0.132220
-0.500000 0.500000 0.000000 0.000000 1.000000 0.000000 -1.000000 0.250000
-0.153802 -0.153802 0.965729 -0.762446 0.000000 -0.647052 0.346198 0.215729
0.153802 0.153802 0.965729 1.000000 -0.000001 0.000000 0.653802 0.215729
-0.153802 -0.153802 0.965729 -1.000000 0.000000 0.000000 0.346198 0.215729
-0.153802 0.153802 0.965729 0.000000 1.000000 0.000000 0.346198 0.215729
0.254613 -0.254614 1.298557 -0.000000 -1.000000 -0.000000 0.754613 0.548557
-0.153802 0.153802 0.965729 0.000000 0.762446 -0.647052 0.346198 0.215729
0.254613 -0.254614 1.084519 -0.000000 -0.762446 -0.647052 0.754613 0.334519
0.254614 0.254613 1.084519 0.762446 -0.000000 -0.647052 0.754613 0.334519
-0.254614 -0.254614 1.298557 0.000000 -0.000000 1.000000 0.245386 0.245386
0.254614 0.254613 1.298557 1.000000 -0.000001 0.000000 0.754613 0.548557
-0.254614 -0.254614 1.298557 -1.000000 0.000000 0.000000 0.245386 0.548557
-0.254614 0.254614 1.298557 0.000000 1.000000 0.000000 0.245386 0.548557
3 0 1 2
3 3 4 5
3 6 7 8
3 9 10 11
3 12 13 14
3 15 16 17
3 18 19 20
3 21 22 23
3 24 25 26
3 27 28 29
3 30 31 32
3 30 33 34
3 35 36 31
3 34 36 37
3 38 39 40
3 41 42 43
3 44 45 46
3 47 48 49
3 50 51 52
3 53 54 55
3 56 57 58
3 59 60 61
3 62 63 64
3 65 66 67
3 68 69 70
3 71 72 73
3 0 74 1
3 3 75 4
3 6 76 7
3 9 77 10
3 12 78 13
3 15 79 16
3 18 80 19
3 21 81 22
3 24 82 25
3 27 83 28
3 30 35 31
3 30 32 33
3 35 37 36
3 34 33 36
3 38 84 39
3 41 85 42
3 44 86 45
3 47 87 48
3 50 88 51
3 53 89 54
3 56 90 57
3 59 91 60
3 62 92 63
3 65 93 66
3 68 94 69
3 71 95 72
